M48
; DRILL file {KiCad (6.0.4)} date Fri Aug  5 18:48:57 2022
; FORMAT={-:-/ absolute / metric / decimal}
; #@! TF.CreationDate,2022-08-05T18:48:57-07:00
; #@! TF.GenerationSoftware,Kicad,Pcbnew,(6.0.4)
; #@! TF.FileFunction,NonPlated,1,2,NPTH
FMAT,2
METRIC
; #@! TA.AperFunction,NonPlated,NPTH,ComponentDrill
T1C1.200
; #@! TA.AperFunction,NonPlated,NPTH,ComponentDrill
T2C1.300
; #@! TA.AperFunction,NonPlated,NPTH,ComponentDrill
T3C1.702
; #@! TA.AperFunction,NonPlated,NPTH,ComponentDrill
T4C3.000
; #@! TA.AperFunction,NonPlated,NPTH,ComponentDrill
T5C3.200
; #@! TA.AperFunction,NonPlated,NPTH,ComponentDrill
T6C3.429
; #@! TA.AperFunction,NonPlated,NPTH,ComponentDrill
T7C3.988
%
G90
G05
T3
X63.928Y-128.668
X64.348Y-128.668
X74.508Y-128.668
X74.928Y-128.668
X88.795Y-112.389
X89.215Y-112.389
X99.375Y-112.389
X99.795Y-112.389
X117.418Y-109.198
X117.838Y-109.198
X127.998Y-109.198
X128.418Y-109.198
X143.6Y-120.968
X144.02Y-120.968
X150.395Y-188.121
X150.815Y-188.121
X154.18Y-120.968
X154.6Y-120.968
X160.975Y-188.121
X161.395Y-188.121
X169.42Y-201.442
X169.84Y-201.442
X180.0Y-201.442
X180.42Y-201.442
X223.1Y-126.206
X223.52Y-126.206
X233.68Y-126.206
X234.1Y-126.206
X275.927Y-174.293
X275.927Y-200.935
X276.347Y-174.293
X276.347Y-200.935
X286.507Y-174.293
X286.507Y-200.935
X286.927Y-174.293
X286.927Y-200.935
X294.952Y-160.972
X294.952Y-187.614
X295.372Y-160.972
X295.372Y-187.614
X301.988Y-99.175
X301.988Y-120.815
X302.408Y-99.175
X302.408Y-120.815
X305.532Y-160.972
X305.532Y-187.614
X305.952Y-160.972
X305.952Y-187.614
X312.568Y-99.175
X312.568Y-120.815
X312.988Y-99.175
X312.988Y-120.815
X313.977Y-174.293
X314.397Y-174.293
X324.557Y-174.293
X324.977Y-174.293
X328.268Y-87.188
X328.268Y-108.828
X328.688Y-87.188
X328.688Y-108.828
X338.848Y-87.188
X338.848Y-108.828
X339.268Y-87.188
X339.268Y-108.828
X356.617Y-90.415
X356.617Y-112.055
X357.037Y-90.415
X357.037Y-112.055
X367.197Y-90.415
X367.197Y-112.055
X367.617Y-90.415
X367.617Y-112.055
X382.841Y-106.321
X382.841Y-127.961
X383.261Y-106.321
X383.261Y-127.961
X393.421Y-106.321
X393.421Y-127.961
X393.841Y-106.321
X393.841Y-127.961
T4
X64.428Y-132.418
X65.618Y-126.128
X69.428Y-134.618
X71.968Y-123.588
X89.295Y-116.139
X90.485Y-109.849
X94.295Y-118.339
X96.835Y-107.309
X117.918Y-112.948
X119.108Y-106.658
X122.918Y-115.148
X125.458Y-104.118
X144.1Y-124.718
X145.29Y-118.427
X149.1Y-126.917
X150.895Y-191.871
X151.64Y-115.887
X152.085Y-185.581
X155.895Y-194.071
X158.435Y-183.041
X169.92Y-205.192
X171.11Y-198.902
X174.92Y-207.392
X177.46Y-196.362
X223.6Y-129.956
X224.79Y-123.666
X228.6Y-132.156
X231.14Y-121.126
X276.427Y-178.043
X276.427Y-204.685
X277.617Y-171.753
X277.617Y-198.395
X281.427Y-180.243
X281.427Y-206.885
X283.967Y-169.213
X283.967Y-195.855
X295.452Y-164.722
X295.452Y-191.364
X296.642Y-158.432
X296.642Y-185.074
X300.452Y-166.922
X300.452Y-193.564
X302.488Y-102.925
X302.488Y-124.565
X302.992Y-155.892
X302.992Y-182.534
X303.678Y-96.635
X303.678Y-118.275
X307.488Y-105.125
X307.488Y-126.765
X310.028Y-94.095
X310.028Y-115.735
X314.477Y-178.043
X315.667Y-171.753
X319.477Y-180.243
X322.017Y-169.213
X328.768Y-90.938
X328.768Y-112.578
X329.958Y-84.648
X329.958Y-106.288
X333.768Y-93.138
X333.768Y-114.778
X336.308Y-82.108
X336.308Y-103.748
X357.117Y-94.165
X357.117Y-115.805
X358.307Y-87.875
X358.307Y-109.515
X362.117Y-96.365
X362.117Y-118.005
X364.657Y-85.335
X364.657Y-106.975
X383.341Y-110.071
X383.341Y-131.711
X384.531Y-103.781
X384.531Y-125.421
X388.341Y-112.271
X388.341Y-133.911
X390.881Y-101.241
X390.881Y-122.881
T5
X63.0Y-81.2
X63.0Y-226.7
X113.8Y-153.95
X164.6Y-81.2
X164.6Y-226.7
X190.5Y-128.746
X228.6Y-196.2
X266.7Y-128.746
X292.6Y-81.2
X292.6Y-226.7
X343.4Y-153.95
X394.2Y-81.2
X394.2Y-226.7
T6
X69.428Y-128.668
X94.295Y-112.389
X122.918Y-109.198
X149.1Y-120.968
X155.895Y-188.121
X174.92Y-201.442
X228.6Y-126.206
X281.427Y-174.293
X281.427Y-200.935
X300.452Y-160.972
X300.452Y-187.614
X307.488Y-99.175
X307.488Y-120.815
X319.477Y-174.293
X333.768Y-87.188
X333.768Y-108.828
X362.117Y-90.415
X362.117Y-112.055
X388.341Y-106.321
X388.341Y-127.961
T7
X69.428Y-128.668
X94.295Y-112.389
X122.918Y-109.198
X149.1Y-120.968
X155.895Y-188.121
X174.92Y-201.442
X228.6Y-126.206
X281.427Y-174.293
X281.427Y-200.935
X300.452Y-160.972
X300.452Y-187.614
X307.488Y-99.175
X307.488Y-120.815
X319.477Y-174.293
X333.768Y-87.188
X333.768Y-108.828
X362.117Y-90.415
X362.117Y-112.055
X388.341Y-106.321
X388.341Y-127.961
T1
X203.005Y-147.075G85X203.005Y-147.525
G05
X207.855Y-147.075G85X207.855Y-147.525
G05
T2
X202.705Y-143.92G85X202.705Y-144.62
G05
X208.155Y-143.92G85X208.155Y-144.62
G05
T0
M30
