G04 #@! TF.GenerationSoftware,KiCad,Pcbnew,(6.0.4)*
G04 #@! TF.CreationDate,2022-08-05T18:48:07-07:00*
G04 #@! TF.ProjectId,GCCMX,4743434d-582e-46b6-9963-61645f706362,rev?*
G04 #@! TF.SameCoordinates,Original*
G04 #@! TF.FileFunction,Paste,Bot*
G04 #@! TF.FilePolarity,Positive*
%FSLAX46Y46*%
G04 Gerber Fmt 4.6, Leading zero omitted, Abs format (unit mm)*
G04 Created by KiCad (PCBNEW (6.0.4)) date 2022-08-05 18:48:07*
%MOMM*%
%LPD*%
G01*
G04 APERTURE LIST*
%ADD10R,2.600000X2.600000*%
%ADD11R,2.550000X2.500000*%
G04 APERTURE END LIST*
D10*
X86019945Y-116138868D03*
D11*
X86734945Y-109848868D03*
X100584945Y-107308868D03*
D10*
X97569945Y-118338868D03*
D11*
X115358213Y-106658028D03*
D10*
X114643213Y-112948028D03*
X126193213Y-115148028D03*
D11*
X129208213Y-104118028D03*
D10*
X140825000Y-124717500D03*
D11*
X141540000Y-118427500D03*
X155390000Y-115887500D03*
D10*
X152375000Y-126917500D03*
X299213253Y-102925054D03*
D11*
X299928253Y-96635054D03*
D10*
X310763253Y-105125054D03*
D11*
X313778253Y-94095054D03*
D10*
X325493452Y-90937595D03*
D11*
X326208452Y-84647595D03*
X340058452Y-82107595D03*
D10*
X337043452Y-93137595D03*
D11*
X299928253Y-118275054D03*
D10*
X299213253Y-124565054D03*
D11*
X313778253Y-115735054D03*
D10*
X310763253Y-126765054D03*
X220325000Y-129956250D03*
D11*
X221040000Y-123666250D03*
X234890000Y-121126250D03*
D10*
X231875000Y-132156250D03*
X166644603Y-205192263D03*
D11*
X167359603Y-198902263D03*
D10*
X178194603Y-207392263D03*
D11*
X181209603Y-196362263D03*
X148334603Y-185581263D03*
D10*
X147619603Y-191871263D03*
D11*
X162184603Y-183041263D03*
D10*
X159169603Y-194071263D03*
X353842169Y-94164988D03*
D11*
X354557169Y-87874988D03*
D10*
X365392169Y-96364988D03*
D11*
X368407169Y-85334988D03*
X380781283Y-103781424D03*
D10*
X380066283Y-110071424D03*
D11*
X394631283Y-101241424D03*
D10*
X391616283Y-112271424D03*
D11*
X273867453Y-198394578D03*
D10*
X273152453Y-204684578D03*
X284702453Y-206884578D03*
D11*
X287717453Y-195854578D03*
D10*
X292177453Y-191363578D03*
D11*
X292892453Y-185073578D03*
X306742453Y-182533578D03*
D10*
X303727453Y-193563578D03*
X311202453Y-178042578D03*
D11*
X311917453Y-171752578D03*
X325767453Y-169212578D03*
D10*
X322752453Y-180242578D03*
X273152453Y-178042578D03*
D11*
X273867453Y-171752578D03*
X287717453Y-169212578D03*
D10*
X284702453Y-180242578D03*
X292177453Y-164721578D03*
D11*
X292892453Y-158431578D03*
D10*
X303727453Y-166921578D03*
D11*
X306742453Y-155891578D03*
X380781283Y-125421424D03*
D10*
X380066283Y-131711424D03*
X391616283Y-133911424D03*
D11*
X394631283Y-122881424D03*
X354557169Y-109514988D03*
D10*
X353842169Y-115804988D03*
X365392169Y-118004988D03*
D11*
X368407169Y-106974988D03*
D10*
X325493452Y-112577595D03*
D11*
X326208452Y-106287595D03*
D10*
X337043452Y-114777595D03*
D11*
X340058452Y-103747595D03*
X61868481Y-126128351D03*
D10*
X61153481Y-132418351D03*
D11*
X75718481Y-123588351D03*
D10*
X72703481Y-134618351D03*
M02*
