%FSLAX45Y45*%
G04 Gerber Fmt 4.5, Leading zero omitted, Abs format (unit mm)*
G04 Created by KiCad (PCBNEW (6.0.4)) date 2022-08-08 16:35:19*
%MOMM*%
%LPD*%
G01*
G04 APERTURE LIST*
%TA.AperFunction,Profile*%
%ADD10C,0.050000*%
%TD*%
%ADD11C,0.200000*%
%ADD12C,0.120000*%
%ADD13C,0.130000*%
%ADD14C,0.170180*%
%ADD15C,0.300000*%
%ADD16C,0.320000*%
%ADD17C,0.342900*%
%ADD18C,0.398780*%
G04 APERTURE END LIST*
D10*
X39420000Y-23170000D02*
G75*
G03*
X39920000Y-22670000I0J500000D01*
G01*
X39920000Y-8120000D02*
G75*
G03*
X39420000Y-7620000I-500000J0D01*
G01*
X39420000Y-23170000D02*
X6300000Y-23170000D01*
X39420000Y-7620000D02*
X6300000Y-7620000D01*
X5800000Y-22670000D02*
G75*
G03*
X6300000Y-23170000I500000J0D01*
G01*
X6300000Y-7620000D02*
G75*
G03*
X5800000Y-8120000I0J-500000D01*
G01*
X39920000Y-8120000D02*
X39920000Y-22670000D01*
X5800000Y-8120000D02*
X5800000Y-22670000D01*
D11*
D12*
X20240475Y-14670047D02*
X20360475Y-14790047D01*
X20360475Y-14670047D02*
X20240475Y-14790047D01*
D11*
X20250475Y-14707547D02*
X20250475Y-14752547D01*
X20350475Y-14707547D02*
X20350475Y-14752547D01*
X20250475Y-14752547D02*
G75*
G03*
X20350475Y-14752547I50000J0D01*
G01*
X20350475Y-14707547D02*
G75*
G03*
X20250475Y-14707547I-50000J0D01*
G01*
D12*
X20725475Y-14670047D02*
X20845475Y-14790047D01*
X20845475Y-14670047D02*
X20725475Y-14790047D01*
D11*
X20735475Y-14707547D02*
X20735475Y-14752547D01*
X20835475Y-14707547D02*
X20835475Y-14752547D01*
X20735475Y-14752547D02*
G75*
G03*
X20835475Y-14752547I50000J0D01*
G01*
X20835475Y-14707547D02*
G75*
G03*
X20735475Y-14707547I-50000J0D01*
G01*
D13*
X20335475Y-14427047D02*
G75*
G03*
X20335475Y-14427047I-65000J0D01*
G01*
D11*
X20215475Y-14392047D02*
X20215475Y-14462047D01*
X20325475Y-14392047D02*
X20325475Y-14462047D01*
X20215475Y-14462047D02*
G75*
G03*
X20325475Y-14462047I55000J0D01*
G01*
X20325475Y-14392047D02*
G75*
G03*
X20215475Y-14392047I-55000J0D01*
G01*
D13*
X20880475Y-14427047D02*
G75*
G03*
X20880475Y-14427047I-65000J0D01*
G01*
D11*
X20760475Y-14392047D02*
X20760475Y-14462047D01*
X20870475Y-14392047D02*
X20870475Y-14462047D01*
X20760475Y-14462047D02*
G75*
G03*
X20870475Y-14462047I55000J0D01*
G01*
X20870475Y-14392047D02*
G75*
G03*
X20760475Y-14392047I-55000J0D01*
G01*
D14*
X6392848Y-12781745D02*
X6392848Y-12951925D01*
X6307758Y-12866835D02*
X6477938Y-12866835D01*
X6434848Y-12781745D02*
X6434848Y-12951925D01*
X6349758Y-12866835D02*
X6519938Y-12866835D01*
X7450848Y-12781745D02*
X7450848Y-12951925D01*
X7365758Y-12866835D02*
X7535938Y-12866835D01*
X7492848Y-12781745D02*
X7492848Y-12951925D01*
X7407758Y-12866835D02*
X7577938Y-12866835D01*
X8879495Y-11153797D02*
X8879495Y-11323977D01*
X8794405Y-11238887D02*
X8964585Y-11238887D01*
X8921495Y-11153797D02*
X8921495Y-11323977D01*
X8836405Y-11238887D02*
X9006585Y-11238887D01*
X9937495Y-11153797D02*
X9937495Y-11323977D01*
X9852405Y-11238887D02*
X10022585Y-11238887D01*
X9979495Y-11153797D02*
X9979495Y-11323977D01*
X9894405Y-11238887D02*
X10064585Y-11238887D01*
X11741821Y-10834713D02*
X11741821Y-11004893D01*
X11656731Y-10919803D02*
X11826911Y-10919803D01*
X11783821Y-10834713D02*
X11783821Y-11004893D01*
X11698731Y-10919803D02*
X11868911Y-10919803D01*
X12799821Y-10834713D02*
X12799821Y-11004893D01*
X12714731Y-10919803D02*
X12884911Y-10919803D01*
X12841821Y-10834713D02*
X12841821Y-11004893D01*
X12756731Y-10919803D02*
X12926911Y-10919803D01*
X14360000Y-12011660D02*
X14360000Y-12181840D01*
X14274910Y-12096750D02*
X14445090Y-12096750D01*
X14402000Y-12011660D02*
X14402000Y-12181840D01*
X14316910Y-12096750D02*
X14487090Y-12096750D01*
X15039460Y-18727036D02*
X15039460Y-18897216D01*
X14954370Y-18812126D02*
X15124550Y-18812126D01*
X15081460Y-18727036D02*
X15081460Y-18897216D01*
X14996370Y-18812126D02*
X15166550Y-18812126D01*
X15418000Y-12011660D02*
X15418000Y-12181840D01*
X15332910Y-12096750D02*
X15503090Y-12096750D01*
X15460000Y-12011660D02*
X15460000Y-12181840D01*
X15374910Y-12096750D02*
X15545090Y-12096750D01*
X16097460Y-18727036D02*
X16097460Y-18897216D01*
X16012370Y-18812126D02*
X16182550Y-18812126D01*
X16139460Y-18727036D02*
X16139460Y-18897216D01*
X16054370Y-18812126D02*
X16224550Y-18812126D01*
X16941960Y-20059136D02*
X16941960Y-20229316D01*
X16856870Y-20144226D02*
X17027050Y-20144226D01*
X16983960Y-20059136D02*
X16983960Y-20229316D01*
X16898870Y-20144226D02*
X17069050Y-20144226D01*
X17999960Y-20059136D02*
X17999960Y-20229316D01*
X17914870Y-20144226D02*
X18085050Y-20144226D01*
X18041960Y-20059136D02*
X18041960Y-20229316D01*
X17956870Y-20144226D02*
X18127050Y-20144226D01*
X22310000Y-12535535D02*
X22310000Y-12705715D01*
X22224910Y-12620625D02*
X22395090Y-12620625D01*
X22352000Y-12535535D02*
X22352000Y-12705715D01*
X22266910Y-12620625D02*
X22437090Y-12620625D01*
X23368000Y-12535535D02*
X23368000Y-12705715D01*
X23282910Y-12620625D02*
X23453090Y-12620625D01*
X23410000Y-12535535D02*
X23410000Y-12705715D01*
X23324910Y-12620625D02*
X23495090Y-12620625D01*
X27592745Y-17344168D02*
X27592745Y-17514348D01*
X27507655Y-17429258D02*
X27677835Y-17429258D01*
X27592745Y-20008368D02*
X27592745Y-20178548D01*
X27507655Y-20093458D02*
X27677835Y-20093458D01*
X27634745Y-17344168D02*
X27634745Y-17514348D01*
X27549655Y-17429258D02*
X27719835Y-17429258D01*
X27634745Y-20008368D02*
X27634745Y-20178548D01*
X27549655Y-20093458D02*
X27719835Y-20093458D01*
X28650745Y-17344168D02*
X28650745Y-17514348D01*
X28565655Y-17429258D02*
X28735835Y-17429258D01*
X28650745Y-20008368D02*
X28650745Y-20178548D01*
X28565655Y-20093458D02*
X28735835Y-20093458D01*
X28692745Y-17344168D02*
X28692745Y-17514348D01*
X28607655Y-17429258D02*
X28777835Y-17429258D01*
X28692745Y-20008368D02*
X28692745Y-20178548D01*
X28607655Y-20093458D02*
X28777835Y-20093458D01*
X29495245Y-16012068D02*
X29495245Y-16182248D01*
X29410155Y-16097158D02*
X29580335Y-16097158D01*
X29495245Y-18676268D02*
X29495245Y-18846448D01*
X29410155Y-18761358D02*
X29580335Y-18761358D01*
X29537245Y-16012068D02*
X29537245Y-16182248D01*
X29452155Y-16097158D02*
X29622335Y-16097158D01*
X29537245Y-18676268D02*
X29537245Y-18846448D01*
X29452155Y-18761358D02*
X29622335Y-18761358D01*
X30198825Y-9832415D02*
X30198825Y-10002595D01*
X30113735Y-9917505D02*
X30283915Y-9917505D01*
X30198825Y-11996415D02*
X30198825Y-12166595D01*
X30113735Y-12081505D02*
X30283915Y-12081505D01*
X30240825Y-9832415D02*
X30240825Y-10002595D01*
X30155735Y-9917505D02*
X30325915Y-9917505D01*
X30240825Y-11996415D02*
X30240825Y-12166595D01*
X30155735Y-12081505D02*
X30325915Y-12081505D01*
X30553245Y-16012068D02*
X30553245Y-16182248D01*
X30468155Y-16097158D02*
X30638335Y-16097158D01*
X30553245Y-18676268D02*
X30553245Y-18846448D01*
X30468155Y-18761358D02*
X30638335Y-18761358D01*
X30595245Y-16012068D02*
X30595245Y-16182248D01*
X30510155Y-16097158D02*
X30680335Y-16097158D01*
X30595245Y-18676268D02*
X30595245Y-18846448D01*
X30510155Y-18761358D02*
X30680335Y-18761358D01*
X31256825Y-9832415D02*
X31256825Y-10002595D01*
X31171735Y-9917505D02*
X31341915Y-9917505D01*
X31256825Y-11996415D02*
X31256825Y-12166595D01*
X31171735Y-12081505D02*
X31341915Y-12081505D01*
X31298825Y-9832415D02*
X31298825Y-10002595D01*
X31213735Y-9917505D02*
X31383915Y-9917505D01*
X31298825Y-11996415D02*
X31298825Y-12166595D01*
X31213735Y-12081505D02*
X31383915Y-12081505D01*
X31397745Y-17344168D02*
X31397745Y-17514348D01*
X31312655Y-17429258D02*
X31482835Y-17429258D01*
X31439745Y-17344168D02*
X31439745Y-17514348D01*
X31354655Y-17429258D02*
X31524835Y-17429258D01*
X32455745Y-17344168D02*
X32455745Y-17514348D01*
X32370655Y-17429258D02*
X32540835Y-17429258D01*
X32497745Y-17344168D02*
X32497745Y-17514348D01*
X32412655Y-17429258D02*
X32582835Y-17429258D01*
X32826845Y-8633670D02*
X32826845Y-8803850D01*
X32741755Y-8718760D02*
X32911935Y-8718760D01*
X32826845Y-10797670D02*
X32826845Y-10967850D01*
X32741755Y-10882760D02*
X32911935Y-10882760D01*
X32868845Y-8633670D02*
X32868845Y-8803850D01*
X32783755Y-8718760D02*
X32953935Y-8718760D01*
X32868845Y-10797670D02*
X32868845Y-10967850D01*
X32783755Y-10882760D02*
X32953935Y-10882760D01*
X33884845Y-8633670D02*
X33884845Y-8803850D01*
X33799755Y-8718760D02*
X33969935Y-8718760D01*
X33884845Y-10797670D02*
X33884845Y-10967850D01*
X33799755Y-10882760D02*
X33969935Y-10882760D01*
X33926845Y-8633670D02*
X33926845Y-8803850D01*
X33841755Y-8718760D02*
X34011935Y-8718760D01*
X33926845Y-10797670D02*
X33926845Y-10967850D01*
X33841755Y-10882760D02*
X34011935Y-10882760D01*
X35661717Y-8956409D02*
X35661717Y-9126589D01*
X35576627Y-9041499D02*
X35746807Y-9041499D01*
X35661717Y-11120409D02*
X35661717Y-11290589D01*
X35576627Y-11205499D02*
X35746807Y-11205499D01*
X35703717Y-8956409D02*
X35703717Y-9126589D01*
X35618627Y-9041499D02*
X35788807Y-9041499D01*
X35703717Y-11120409D02*
X35703717Y-11290589D01*
X35618627Y-11205499D02*
X35788807Y-11205499D01*
X36719717Y-8956409D02*
X36719717Y-9126589D01*
X36634627Y-9041499D02*
X36804807Y-9041499D01*
X36719717Y-11120409D02*
X36719717Y-11290589D01*
X36634627Y-11205499D02*
X36804807Y-11205499D01*
X36761717Y-8956409D02*
X36761717Y-9126589D01*
X36676627Y-9041499D02*
X36846807Y-9041499D01*
X36761717Y-11120409D02*
X36761717Y-11290589D01*
X36676627Y-11205499D02*
X36846807Y-11205499D01*
X38284128Y-10547052D02*
X38284128Y-10717232D01*
X38199038Y-10632142D02*
X38369218Y-10632142D01*
X38284128Y-12711052D02*
X38284128Y-12881232D01*
X38199038Y-12796142D02*
X38369218Y-12796142D01*
X38326128Y-10547052D02*
X38326128Y-10717232D01*
X38241038Y-10632142D02*
X38411218Y-10632142D01*
X38326128Y-12711052D02*
X38326128Y-12881232D01*
X38241038Y-12796142D02*
X38411218Y-12796142D01*
X39342128Y-10547052D02*
X39342128Y-10717232D01*
X39257038Y-10632142D02*
X39427218Y-10632142D01*
X39342128Y-12711052D02*
X39342128Y-12881232D01*
X39257038Y-12796142D02*
X39427218Y-12796142D01*
X39384128Y-10547052D02*
X39384128Y-10717232D01*
X39299038Y-10632142D02*
X39469218Y-10632142D01*
X39384128Y-12711052D02*
X39384128Y-12881232D01*
X39299038Y-12796142D02*
X39469218Y-12796142D01*
D15*
X6548915Y-13347902D02*
X6548915Y-13135768D01*
X6336781Y-13135768D01*
X6336781Y-13347902D01*
X6548915Y-13347902D01*
X6667915Y-12718902D02*
X6667915Y-12506768D01*
X6455781Y-12506768D01*
X6455781Y-12718902D01*
X6667915Y-12718902D01*
X7048915Y-13567902D02*
X7048915Y-13355768D01*
X6836781Y-13355768D01*
X6836781Y-13567902D01*
X7048915Y-13567902D01*
X7302915Y-12464902D02*
X7302915Y-12252768D01*
X7090781Y-12252768D01*
X7090781Y-12464902D01*
X7302915Y-12464902D01*
X9035562Y-11719954D02*
X9035562Y-11507820D01*
X8823428Y-11507820D01*
X8823428Y-11719954D01*
X9035562Y-11719954D01*
X9154562Y-11090954D02*
X9154562Y-10878820D01*
X8942428Y-10878820D01*
X8942428Y-11090954D01*
X9154562Y-11090954D01*
X9535562Y-11939954D02*
X9535562Y-11727820D01*
X9323428Y-11727820D01*
X9323428Y-11939954D01*
X9535562Y-11939954D01*
X9789562Y-10836954D02*
X9789562Y-10624820D01*
X9577428Y-10624820D01*
X9577428Y-10836954D01*
X9789562Y-10836954D01*
X11897888Y-11400870D02*
X11897888Y-11188736D01*
X11685754Y-11188736D01*
X11685754Y-11400870D01*
X11897888Y-11400870D01*
X12016888Y-10771870D02*
X12016888Y-10559736D01*
X11804754Y-10559736D01*
X11804754Y-10771870D01*
X12016888Y-10771870D01*
X12397888Y-11620870D02*
X12397888Y-11408736D01*
X12185754Y-11408736D01*
X12185754Y-11620870D01*
X12397888Y-11620870D01*
X12651888Y-10517870D02*
X12651888Y-10305736D01*
X12439754Y-10305736D01*
X12439754Y-10517870D01*
X12651888Y-10517870D01*
X14516067Y-12577817D02*
X14516067Y-12365683D01*
X14303933Y-12365683D01*
X14303933Y-12577817D01*
X14516067Y-12577817D01*
X14635067Y-11948817D02*
X14635067Y-11736683D01*
X14422933Y-11736683D01*
X14422933Y-11948817D01*
X14635067Y-11948817D01*
X15016067Y-12797817D02*
X15016067Y-12585683D01*
X14803933Y-12585683D01*
X14803933Y-12797817D01*
X15016067Y-12797817D01*
X15195527Y-19293193D02*
X15195527Y-19081059D01*
X14983393Y-19081059D01*
X14983393Y-19293193D01*
X15195527Y-19293193D01*
X15270067Y-11694817D02*
X15270067Y-11482683D01*
X15057933Y-11482683D01*
X15057933Y-11694817D01*
X15270067Y-11694817D01*
X15314527Y-18664193D02*
X15314527Y-18452059D01*
X15102393Y-18452059D01*
X15102393Y-18664193D01*
X15314527Y-18664193D01*
X15695527Y-19513193D02*
X15695527Y-19301059D01*
X15483393Y-19301059D01*
X15483393Y-19513193D01*
X15695527Y-19513193D01*
X15949527Y-18410193D02*
X15949527Y-18198059D01*
X15737393Y-18198059D01*
X15737393Y-18410193D01*
X15949527Y-18410193D01*
X17098027Y-20625293D02*
X17098027Y-20413159D01*
X16885893Y-20413159D01*
X16885893Y-20625293D01*
X17098027Y-20625293D01*
X17217027Y-19996293D02*
X17217027Y-19784159D01*
X17004893Y-19784159D01*
X17004893Y-19996293D01*
X17217027Y-19996293D01*
X17598027Y-20845293D02*
X17598027Y-20633159D01*
X17385893Y-20633159D01*
X17385893Y-20845293D01*
X17598027Y-20845293D01*
X17852027Y-19742293D02*
X17852027Y-19530159D01*
X17639893Y-19530159D01*
X17639893Y-19742293D01*
X17852027Y-19742293D01*
X22466067Y-13101692D02*
X22466067Y-12889558D01*
X22253933Y-12889558D01*
X22253933Y-13101692D01*
X22466067Y-13101692D01*
X22585067Y-12472692D02*
X22585067Y-12260558D01*
X22372933Y-12260558D01*
X22372933Y-12472692D01*
X22585067Y-12472692D01*
X22966067Y-13321692D02*
X22966067Y-13109558D01*
X22753933Y-13109558D01*
X22753933Y-13321692D01*
X22966067Y-13321692D01*
X23220067Y-12218692D02*
X23220067Y-12006558D01*
X23007933Y-12006558D01*
X23007933Y-12218692D01*
X23220067Y-12218692D01*
X27748812Y-17910325D02*
X27748812Y-17698191D01*
X27536678Y-17698191D01*
X27536678Y-17910325D01*
X27748812Y-17910325D01*
X27748812Y-20574525D02*
X27748812Y-20362391D01*
X27536678Y-20362391D01*
X27536678Y-20574525D01*
X27748812Y-20574525D01*
X27867812Y-17281325D02*
X27867812Y-17069191D01*
X27655678Y-17069191D01*
X27655678Y-17281325D01*
X27867812Y-17281325D01*
X27867812Y-19945525D02*
X27867812Y-19733391D01*
X27655678Y-19733391D01*
X27655678Y-19945525D01*
X27867812Y-19945525D01*
X28248812Y-18130325D02*
X28248812Y-17918191D01*
X28036678Y-17918191D01*
X28036678Y-18130325D01*
X28248812Y-18130325D01*
X28248812Y-20794525D02*
X28248812Y-20582391D01*
X28036678Y-20582391D01*
X28036678Y-20794525D01*
X28248812Y-20794525D01*
X28502812Y-17027325D02*
X28502812Y-16815191D01*
X28290678Y-16815191D01*
X28290678Y-17027325D01*
X28502812Y-17027325D01*
X28502812Y-19691525D02*
X28502812Y-19479391D01*
X28290678Y-19479391D01*
X28290678Y-19691525D01*
X28502812Y-19691525D01*
X29651312Y-16578225D02*
X29651312Y-16366091D01*
X29439178Y-16366091D01*
X29439178Y-16578225D01*
X29651312Y-16578225D01*
X29651312Y-19242425D02*
X29651312Y-19030291D01*
X29439178Y-19030291D01*
X29439178Y-19242425D01*
X29651312Y-19242425D01*
X29770312Y-15949225D02*
X29770312Y-15737091D01*
X29558178Y-15737091D01*
X29558178Y-15949225D01*
X29770312Y-15949225D01*
X29770312Y-18613425D02*
X29770312Y-18401291D01*
X29558178Y-18401291D01*
X29558178Y-18613425D01*
X29770312Y-18613425D01*
X30151312Y-16798225D02*
X30151312Y-16586091D01*
X29939178Y-16586091D01*
X29939178Y-16798225D01*
X30151312Y-16798225D01*
X30151312Y-19462425D02*
X30151312Y-19250291D01*
X29939178Y-19250291D01*
X29939178Y-19462425D01*
X30151312Y-19462425D01*
X30354892Y-10398572D02*
X30354892Y-10186438D01*
X30142758Y-10186438D01*
X30142758Y-10398572D01*
X30354892Y-10398572D01*
X30354892Y-12562572D02*
X30354892Y-12350438D01*
X30142758Y-12350438D01*
X30142758Y-12562572D01*
X30354892Y-12562572D01*
X30405312Y-15695225D02*
X30405312Y-15483091D01*
X30193178Y-15483091D01*
X30193178Y-15695225D01*
X30405312Y-15695225D01*
X30405312Y-18359425D02*
X30405312Y-18147291D01*
X30193178Y-18147291D01*
X30193178Y-18359425D01*
X30405312Y-18359425D01*
X30473892Y-9769572D02*
X30473892Y-9557438D01*
X30261758Y-9557438D01*
X30261758Y-9769572D01*
X30473892Y-9769572D01*
X30473892Y-11933572D02*
X30473892Y-11721438D01*
X30261758Y-11721438D01*
X30261758Y-11933572D01*
X30473892Y-11933572D01*
X30854892Y-10618572D02*
X30854892Y-10406438D01*
X30642758Y-10406438D01*
X30642758Y-10618572D01*
X30854892Y-10618572D01*
X30854892Y-12782572D02*
X30854892Y-12570438D01*
X30642758Y-12570438D01*
X30642758Y-12782572D01*
X30854892Y-12782572D01*
X31108892Y-9515572D02*
X31108892Y-9303438D01*
X30896758Y-9303438D01*
X30896758Y-9515572D01*
X31108892Y-9515572D01*
X31108892Y-11679572D02*
X31108892Y-11467438D01*
X30896758Y-11467438D01*
X30896758Y-11679572D01*
X31108892Y-11679572D01*
X31553812Y-17910325D02*
X31553812Y-17698191D01*
X31341678Y-17698191D01*
X31341678Y-17910325D01*
X31553812Y-17910325D01*
X31672812Y-17281325D02*
X31672812Y-17069191D01*
X31460678Y-17069191D01*
X31460678Y-17281325D01*
X31672812Y-17281325D01*
X32053812Y-18130325D02*
X32053812Y-17918191D01*
X31841678Y-17918191D01*
X31841678Y-18130325D01*
X32053812Y-18130325D01*
X32307812Y-17027325D02*
X32307812Y-16815191D01*
X32095678Y-16815191D01*
X32095678Y-17027325D01*
X32307812Y-17027325D01*
X32982912Y-9199827D02*
X32982912Y-8987693D01*
X32770778Y-8987693D01*
X32770778Y-9199827D01*
X32982912Y-9199827D01*
X32982912Y-11363826D02*
X32982912Y-11151693D01*
X32770778Y-11151693D01*
X32770778Y-11363826D01*
X32982912Y-11363826D01*
X33101912Y-8570827D02*
X33101912Y-8358692D01*
X32889778Y-8358692D01*
X32889778Y-8570827D01*
X33101912Y-8570827D01*
X33101912Y-10734827D02*
X33101912Y-10522693D01*
X32889778Y-10522693D01*
X32889778Y-10734827D01*
X33101912Y-10734827D01*
X33482912Y-9419827D02*
X33482912Y-9207693D01*
X33270778Y-9207693D01*
X33270778Y-9419827D01*
X33482912Y-9419827D01*
X33482912Y-11583826D02*
X33482912Y-11371692D01*
X33270778Y-11371692D01*
X33270778Y-11583826D01*
X33482912Y-11583826D01*
X33736912Y-8316826D02*
X33736912Y-8104692D01*
X33524778Y-8104692D01*
X33524778Y-8316826D01*
X33736912Y-8316826D01*
X33736912Y-10480827D02*
X33736912Y-10268693D01*
X33524778Y-10268693D01*
X33524778Y-10480827D01*
X33736912Y-10480827D01*
X35817784Y-9522566D02*
X35817784Y-9310432D01*
X35605650Y-9310432D01*
X35605650Y-9522566D01*
X35817784Y-9522566D01*
X35817784Y-11686566D02*
X35817784Y-11474432D01*
X35605650Y-11474432D01*
X35605650Y-11686566D01*
X35817784Y-11686566D01*
X35936784Y-8893566D02*
X35936784Y-8681432D01*
X35724650Y-8681432D01*
X35724650Y-8893566D01*
X35936784Y-8893566D01*
X35936784Y-11057566D02*
X35936784Y-10845432D01*
X35724650Y-10845432D01*
X35724650Y-11057566D01*
X35936784Y-11057566D01*
X36317784Y-9742566D02*
X36317784Y-9530432D01*
X36105650Y-9530432D01*
X36105650Y-9742566D01*
X36317784Y-9742566D01*
X36317784Y-11906566D02*
X36317784Y-11694432D01*
X36105650Y-11694432D01*
X36105650Y-11906566D01*
X36317784Y-11906566D01*
X36571784Y-8639566D02*
X36571784Y-8427432D01*
X36359650Y-8427432D01*
X36359650Y-8639566D01*
X36571784Y-8639566D01*
X36571784Y-10803566D02*
X36571784Y-10591432D01*
X36359650Y-10591432D01*
X36359650Y-10803566D01*
X36571784Y-10803566D01*
X38440195Y-11113209D02*
X38440195Y-10901075D01*
X38228061Y-10901075D01*
X38228061Y-11113209D01*
X38440195Y-11113209D01*
X38440195Y-13277209D02*
X38440195Y-13065075D01*
X38228061Y-13065075D01*
X38228061Y-13277209D01*
X38440195Y-13277209D01*
X38559195Y-10484209D02*
X38559195Y-10272075D01*
X38347061Y-10272075D01*
X38347061Y-10484209D01*
X38559195Y-10484209D01*
X38559195Y-12648209D02*
X38559195Y-12436075D01*
X38347061Y-12436075D01*
X38347061Y-12648209D01*
X38559195Y-12648209D01*
X38940195Y-11333209D02*
X38940195Y-11121075D01*
X38728061Y-11121075D01*
X38728061Y-11333209D01*
X38940195Y-11333209D01*
X38940195Y-13497209D02*
X38940195Y-13285075D01*
X38728061Y-13285075D01*
X38728061Y-13497209D01*
X38940195Y-13497209D01*
X39194195Y-10230209D02*
X39194195Y-10018075D01*
X38982061Y-10018075D01*
X38982061Y-10230209D01*
X39194195Y-10230209D01*
X39194195Y-12394209D02*
X39194195Y-12182075D01*
X38982061Y-12182075D01*
X38982061Y-12394209D01*
X39194195Y-12394209D01*
D16*
X6300000Y-8280000D02*
X6460000Y-8120000D01*
X6300000Y-7960000D01*
X6140000Y-8120000D01*
X6300000Y-8280000D01*
X6300000Y-22830000D02*
X6460000Y-22670000D01*
X6300000Y-22510000D01*
X6140000Y-22670000D01*
X6300000Y-22830000D01*
X11380000Y-15555000D02*
X11540000Y-15395000D01*
X11380000Y-15235000D01*
X11220000Y-15395000D01*
X11380000Y-15555000D01*
X16460000Y-8280000D02*
X16620000Y-8120000D01*
X16460000Y-7960000D01*
X16300000Y-8120000D01*
X16460000Y-8280000D01*
X16460000Y-22830000D02*
X16620000Y-22670000D01*
X16460000Y-22510000D01*
X16300000Y-22670000D01*
X16460000Y-22830000D01*
X19050000Y-13034625D02*
X19210000Y-12874625D01*
X19050000Y-12714625D01*
X18890000Y-12874625D01*
X19050000Y-13034625D01*
X22860000Y-19780000D02*
X23020000Y-19620000D01*
X22860000Y-19460000D01*
X22700000Y-19620000D01*
X22860000Y-19780000D01*
X26670000Y-13034625D02*
X26830000Y-12874625D01*
X26670000Y-12714625D01*
X26510000Y-12874625D01*
X26670000Y-13034625D01*
X29260000Y-8280000D02*
X29420000Y-8120000D01*
X29260000Y-7960000D01*
X29100000Y-8120000D01*
X29260000Y-8280000D01*
X29260000Y-22830000D02*
X29420000Y-22670000D01*
X29260000Y-22510000D01*
X29100000Y-22670000D01*
X29260000Y-22830000D01*
X34340000Y-15555000D02*
X34500000Y-15395000D01*
X34340000Y-15235000D01*
X34180000Y-15395000D01*
X34340000Y-15555000D01*
X39420000Y-8280000D02*
X39580000Y-8120000D01*
X39420000Y-7960000D01*
X39260000Y-8120000D01*
X39420000Y-8280000D01*
X39420000Y-22830000D02*
X39580000Y-22670000D01*
X39420000Y-22510000D01*
X39260000Y-22670000D01*
X39420000Y-22830000D01*
D17*
X6771398Y-12695385D02*
X7114298Y-13038285D01*
X7114298Y-12695385D02*
X6771398Y-13038285D01*
X7114298Y-12866835D02*
G75*
G03*
X7114298Y-12866835I-171450J0D01*
G01*
X9258045Y-11067437D02*
X9600945Y-11410337D01*
X9600945Y-11067437D02*
X9258045Y-11410337D01*
X9600945Y-11238887D02*
G75*
G03*
X9600945Y-11238887I-171450J0D01*
G01*
X12120371Y-10748353D02*
X12463271Y-11091253D01*
X12463271Y-10748353D02*
X12120371Y-11091253D01*
X12463271Y-10919803D02*
G75*
G03*
X12463271Y-10919803I-171450J0D01*
G01*
X14738550Y-11925300D02*
X15081450Y-12268200D01*
X15081450Y-11925300D02*
X14738550Y-12268200D01*
X15081450Y-12096750D02*
G75*
G03*
X15081450Y-12096750I-171450J0D01*
G01*
X15418010Y-18640676D02*
X15760910Y-18983576D01*
X15760910Y-18640676D02*
X15418010Y-18983576D01*
X15760910Y-18812126D02*
G75*
G03*
X15760910Y-18812126I-171450J0D01*
G01*
X17320510Y-19972776D02*
X17663410Y-20315676D01*
X17663410Y-19972776D02*
X17320510Y-20315676D01*
X17663410Y-20144226D02*
G75*
G03*
X17663410Y-20144226I-171450J0D01*
G01*
X22688550Y-12449175D02*
X23031450Y-12792075D01*
X23031450Y-12449175D02*
X22688550Y-12792075D01*
X23031450Y-12620625D02*
G75*
G03*
X23031450Y-12620625I-171450J0D01*
G01*
X27971295Y-17257808D02*
X28314195Y-17600708D01*
X28314195Y-17257808D02*
X27971295Y-17600708D01*
X28314195Y-17429258D02*
G75*
G03*
X28314195Y-17429258I-171450J0D01*
G01*
X27971295Y-19922008D02*
X28314195Y-20264908D01*
X28314195Y-19922008D02*
X27971295Y-20264908D01*
X28314195Y-20093458D02*
G75*
G03*
X28314195Y-20093458I-171450J0D01*
G01*
X29873795Y-15925708D02*
X30216695Y-16268608D01*
X30216695Y-15925708D02*
X29873795Y-16268608D01*
X30216695Y-16097158D02*
G75*
G03*
X30216695Y-16097158I-171450J0D01*
G01*
X29873795Y-18589908D02*
X30216695Y-18932808D01*
X30216695Y-18589908D02*
X29873795Y-18932808D01*
X30216695Y-18761358D02*
G75*
G03*
X30216695Y-18761358I-171450J0D01*
G01*
X30577375Y-9746055D02*
X30920275Y-10088955D01*
X30920275Y-9746055D02*
X30577375Y-10088955D01*
X30920275Y-9917505D02*
G75*
G03*
X30920275Y-9917505I-171450J0D01*
G01*
X30577375Y-11910055D02*
X30920275Y-12252955D01*
X30920275Y-11910055D02*
X30577375Y-12252955D01*
X30920275Y-12081505D02*
G75*
G03*
X30920275Y-12081505I-171450J0D01*
G01*
X31776295Y-17257808D02*
X32119195Y-17600708D01*
X32119195Y-17257808D02*
X31776295Y-17600708D01*
X32119195Y-17429258D02*
G75*
G03*
X32119195Y-17429258I-171450J0D01*
G01*
X33205395Y-8547310D02*
X33548295Y-8890210D01*
X33548295Y-8547310D02*
X33205395Y-8890210D01*
X33548295Y-8718760D02*
G75*
G03*
X33548295Y-8718760I-171450J0D01*
G01*
X33205395Y-10711310D02*
X33548295Y-11054210D01*
X33548295Y-10711310D02*
X33205395Y-11054210D01*
X33548295Y-10882760D02*
G75*
G03*
X33548295Y-10882760I-171450J0D01*
G01*
X36040267Y-8870049D02*
X36383167Y-9212949D01*
X36383167Y-8870049D02*
X36040267Y-9212949D01*
X36383167Y-9041499D02*
G75*
G03*
X36383167Y-9041499I-171450J0D01*
G01*
X36040267Y-11034049D02*
X36383167Y-11376949D01*
X36383167Y-11034049D02*
X36040267Y-11376949D01*
X36383167Y-11205499D02*
G75*
G03*
X36383167Y-11205499I-171450J0D01*
G01*
X38662678Y-10460692D02*
X39005578Y-10803592D01*
X39005578Y-10460692D02*
X38662678Y-10803592D01*
X39005578Y-10632142D02*
G75*
G03*
X39005578Y-10632142I-171450J0D01*
G01*
X38662678Y-12624692D02*
X39005578Y-12967592D01*
X39005578Y-12624692D02*
X38662678Y-12967592D01*
X39005578Y-12796142D02*
G75*
G03*
X39005578Y-12796142I-171450J0D01*
G01*
D18*
X6743458Y-12667445D02*
X7142238Y-13066225D01*
X7142238Y-12667445D02*
X6743458Y-13066225D01*
X6942848Y-12667445D02*
X6942848Y-13066225D01*
X6743458Y-12866835D02*
X7142238Y-12866835D01*
X9230105Y-11039497D02*
X9628885Y-11438277D01*
X9628885Y-11039497D02*
X9230105Y-11438277D01*
X9429495Y-11039497D02*
X9429495Y-11438277D01*
X9230105Y-11238887D02*
X9628885Y-11238887D01*
X12092431Y-10720413D02*
X12491211Y-11119193D01*
X12491211Y-10720413D02*
X12092431Y-11119193D01*
X12291821Y-10720413D02*
X12291821Y-11119193D01*
X12092431Y-10919803D02*
X12491211Y-10919803D01*
X14710610Y-11897360D02*
X15109390Y-12296140D01*
X15109390Y-11897360D02*
X14710610Y-12296140D01*
X14910000Y-11897360D02*
X14910000Y-12296140D01*
X14710610Y-12096750D02*
X15109390Y-12096750D01*
X15390070Y-18612736D02*
X15788850Y-19011516D01*
X15788850Y-18612736D02*
X15390070Y-19011516D01*
X15589460Y-18612736D02*
X15589460Y-19011516D01*
X15390070Y-18812126D02*
X15788850Y-18812126D01*
X17292570Y-19944836D02*
X17691350Y-20343616D01*
X17691350Y-19944836D02*
X17292570Y-20343616D01*
X17491960Y-19944836D02*
X17491960Y-20343616D01*
X17292570Y-20144226D02*
X17691350Y-20144226D01*
X22660610Y-12421235D02*
X23059390Y-12820015D01*
X23059390Y-12421235D02*
X22660610Y-12820015D01*
X22860000Y-12421235D02*
X22860000Y-12820015D01*
X22660610Y-12620625D02*
X23059390Y-12620625D01*
X27943355Y-17229868D02*
X28342135Y-17628648D01*
X28342135Y-17229868D02*
X27943355Y-17628648D01*
X28142745Y-17229868D02*
X28142745Y-17628648D01*
X27943355Y-17429258D02*
X28342135Y-17429258D01*
X27943355Y-19894068D02*
X28342135Y-20292848D01*
X28342135Y-19894068D02*
X27943355Y-20292848D01*
X28142745Y-19894068D02*
X28142745Y-20292848D01*
X27943355Y-20093458D02*
X28342135Y-20093458D01*
X29845855Y-15897768D02*
X30244635Y-16296548D01*
X30244635Y-15897768D02*
X29845855Y-16296548D01*
X30045245Y-15897768D02*
X30045245Y-16296548D01*
X29845855Y-16097158D02*
X30244635Y-16097158D01*
X29845855Y-18561968D02*
X30244635Y-18960748D01*
X30244635Y-18561968D02*
X29845855Y-18960748D01*
X30045245Y-18561968D02*
X30045245Y-18960748D01*
X29845855Y-18761358D02*
X30244635Y-18761358D01*
X30549435Y-9718115D02*
X30948215Y-10116895D01*
X30948215Y-9718115D02*
X30549435Y-10116895D01*
X30748825Y-9718115D02*
X30748825Y-10116895D01*
X30549435Y-9917505D02*
X30948215Y-9917505D01*
X30549435Y-11882115D02*
X30948215Y-12280895D01*
X30948215Y-11882115D02*
X30549435Y-12280895D01*
X30748825Y-11882115D02*
X30748825Y-12280895D01*
X30549435Y-12081505D02*
X30948215Y-12081505D01*
X31748355Y-17229868D02*
X32147135Y-17628648D01*
X32147135Y-17229868D02*
X31748355Y-17628648D01*
X31947745Y-17229868D02*
X31947745Y-17628648D01*
X31748355Y-17429258D02*
X32147135Y-17429258D01*
X33177455Y-8519370D02*
X33576235Y-8918150D01*
X33576235Y-8519370D02*
X33177455Y-8918150D01*
X33376845Y-8519370D02*
X33376845Y-8918150D01*
X33177455Y-8718760D02*
X33576235Y-8718760D01*
X33177455Y-10683370D02*
X33576235Y-11082150D01*
X33576235Y-10683370D02*
X33177455Y-11082150D01*
X33376845Y-10683370D02*
X33376845Y-11082150D01*
X33177455Y-10882760D02*
X33576235Y-10882760D01*
X36012327Y-8842109D02*
X36411107Y-9240889D01*
X36411107Y-8842109D02*
X36012327Y-9240889D01*
X36211717Y-8842109D02*
X36211717Y-9240889D01*
X36012327Y-9041499D02*
X36411107Y-9041499D01*
X36012327Y-11006109D02*
X36411107Y-11404889D01*
X36411107Y-11006109D02*
X36012327Y-11404889D01*
X36211717Y-11006109D02*
X36211717Y-11404889D01*
X36012327Y-11205499D02*
X36411107Y-11205499D01*
X38634738Y-10432752D02*
X39033518Y-10831532D01*
X39033518Y-10432752D02*
X38634738Y-10831532D01*
X38834128Y-10432752D02*
X38834128Y-10831532D01*
X38634738Y-10632142D02*
X39033518Y-10632142D01*
X38634738Y-12596752D02*
X39033518Y-12995532D01*
X39033518Y-12596752D02*
X38634738Y-12995532D01*
X38834128Y-12596752D02*
X38834128Y-12995532D01*
X38634738Y-12796142D02*
X39033518Y-12796142D01*
D11*
X6055119Y-23482976D02*
X6055119Y-23282976D01*
X6102738Y-23282976D01*
X6131309Y-23292500D01*
X6150357Y-23311548D01*
X6159881Y-23330595D01*
X6169405Y-23368690D01*
X6169405Y-23397262D01*
X6159881Y-23435357D01*
X6150357Y-23454405D01*
X6131309Y-23473452D01*
X6102738Y-23482976D01*
X6055119Y-23482976D01*
X6255119Y-23482976D02*
X6255119Y-23349643D01*
X6255119Y-23387738D02*
X6264643Y-23368690D01*
X6274167Y-23359167D01*
X6293214Y-23349643D01*
X6312262Y-23349643D01*
X6378928Y-23482976D02*
X6378928Y-23349643D01*
X6378928Y-23282976D02*
X6369405Y-23292500D01*
X6378928Y-23302024D01*
X6388452Y-23292500D01*
X6378928Y-23282976D01*
X6378928Y-23302024D01*
X6502738Y-23482976D02*
X6483690Y-23473452D01*
X6474167Y-23454405D01*
X6474167Y-23282976D01*
X6607500Y-23482976D02*
X6588452Y-23473452D01*
X6578928Y-23454405D01*
X6578928Y-23282976D01*
X6836071Y-23482976D02*
X6836071Y-23282976D01*
X6902738Y-23425833D01*
X6969405Y-23282976D01*
X6969405Y-23482976D01*
X7150357Y-23482976D02*
X7150357Y-23378214D01*
X7140833Y-23359167D01*
X7121786Y-23349643D01*
X7083690Y-23349643D01*
X7064643Y-23359167D01*
X7150357Y-23473452D02*
X7131309Y-23482976D01*
X7083690Y-23482976D01*
X7064643Y-23473452D01*
X7055119Y-23454405D01*
X7055119Y-23435357D01*
X7064643Y-23416309D01*
X7083690Y-23406786D01*
X7131309Y-23406786D01*
X7150357Y-23397262D01*
X7245595Y-23349643D02*
X7245595Y-23549643D01*
X7245595Y-23359167D02*
X7264643Y-23349643D01*
X7302738Y-23349643D01*
X7321786Y-23359167D01*
X7331309Y-23368690D01*
X7340833Y-23387738D01*
X7340833Y-23444881D01*
X7331309Y-23463928D01*
X7321786Y-23473452D01*
X7302738Y-23482976D01*
X7264643Y-23482976D01*
X7245595Y-23473452D01*
X7426548Y-23463928D02*
X7436071Y-23473452D01*
X7426548Y-23482976D01*
X7417024Y-23473452D01*
X7426548Y-23463928D01*
X7426548Y-23482976D01*
X7426548Y-23359167D02*
X7436071Y-23368690D01*
X7426548Y-23378214D01*
X7417024Y-23368690D01*
X7426548Y-23359167D01*
X7426548Y-23378214D01*
D12*
X5677500Y-23752500D02*
X5797500Y-23872500D01*
X5797500Y-23752500D02*
X5677500Y-23872500D01*
D11*
X6159881Y-23902976D02*
X6045595Y-23902976D01*
X6102738Y-23902976D02*
X6102738Y-23702976D01*
X6083690Y-23731548D01*
X6064643Y-23750595D01*
X6045595Y-23760119D01*
X6245595Y-23883928D02*
X6255119Y-23893452D01*
X6245595Y-23902976D01*
X6236071Y-23893452D01*
X6245595Y-23883928D01*
X6245595Y-23902976D01*
X6331309Y-23722024D02*
X6340833Y-23712500D01*
X6359881Y-23702976D01*
X6407500Y-23702976D01*
X6426548Y-23712500D01*
X6436071Y-23722024D01*
X6445595Y-23741071D01*
X6445595Y-23760119D01*
X6436071Y-23788690D01*
X6321786Y-23902976D01*
X6445595Y-23902976D01*
X6569405Y-23702976D02*
X6588452Y-23702976D01*
X6607500Y-23712500D01*
X6617024Y-23722024D01*
X6626548Y-23741071D01*
X6636071Y-23779167D01*
X6636071Y-23826786D01*
X6626548Y-23864881D01*
X6617024Y-23883928D01*
X6607500Y-23893452D01*
X6588452Y-23902976D01*
X6569405Y-23902976D01*
X6550357Y-23893452D01*
X6540833Y-23883928D01*
X6531309Y-23864881D01*
X6521786Y-23826786D01*
X6521786Y-23779167D01*
X6531309Y-23741071D01*
X6540833Y-23722024D01*
X6550357Y-23712500D01*
X6569405Y-23702976D01*
X6759881Y-23702976D02*
X6778928Y-23702976D01*
X6797976Y-23712500D01*
X6807500Y-23722024D01*
X6817024Y-23741071D01*
X6826548Y-23779167D01*
X6826548Y-23826786D01*
X6817024Y-23864881D01*
X6807500Y-23883928D01*
X6797976Y-23893452D01*
X6778928Y-23902976D01*
X6759881Y-23902976D01*
X6740833Y-23893452D01*
X6731309Y-23883928D01*
X6721786Y-23864881D01*
X6712262Y-23826786D01*
X6712262Y-23779167D01*
X6721786Y-23741071D01*
X6731309Y-23722024D01*
X6740833Y-23712500D01*
X6759881Y-23702976D01*
X6912262Y-23902976D02*
X6912262Y-23769643D01*
X6912262Y-23788690D02*
X6921786Y-23779167D01*
X6940833Y-23769643D01*
X6969405Y-23769643D01*
X6988452Y-23779167D01*
X6997976Y-23798214D01*
X6997976Y-23902976D01*
X6997976Y-23798214D02*
X7007500Y-23779167D01*
X7026548Y-23769643D01*
X7055119Y-23769643D01*
X7074167Y-23779167D01*
X7083690Y-23798214D01*
X7083690Y-23902976D01*
X7178928Y-23902976D02*
X7178928Y-23769643D01*
X7178928Y-23788690D02*
X7188452Y-23779167D01*
X7207500Y-23769643D01*
X7236071Y-23769643D01*
X7255119Y-23779167D01*
X7264643Y-23798214D01*
X7264643Y-23902976D01*
X7264643Y-23798214D02*
X7274167Y-23779167D01*
X7293214Y-23769643D01*
X7321786Y-23769643D01*
X7340833Y-23779167D01*
X7350357Y-23798214D01*
X7350357Y-23902976D01*
X7740833Y-23693452D02*
X7569405Y-23950595D01*
X7997976Y-23702976D02*
X8017024Y-23702976D01*
X8036071Y-23712500D01*
X8045595Y-23722024D01*
X8055119Y-23741071D01*
X8064643Y-23779167D01*
X8064643Y-23826786D01*
X8055119Y-23864881D01*
X8045595Y-23883928D01*
X8036071Y-23893452D01*
X8017024Y-23902976D01*
X7997976Y-23902976D01*
X7978928Y-23893452D01*
X7969405Y-23883928D01*
X7959881Y-23864881D01*
X7950357Y-23826786D01*
X7950357Y-23779167D01*
X7959881Y-23741071D01*
X7969405Y-23722024D01*
X7978928Y-23712500D01*
X7997976Y-23702976D01*
X8150357Y-23883928D02*
X8159881Y-23893452D01*
X8150357Y-23902976D01*
X8140833Y-23893452D01*
X8150357Y-23883928D01*
X8150357Y-23902976D01*
X8283690Y-23702976D02*
X8302738Y-23702976D01*
X8321786Y-23712500D01*
X8331309Y-23722024D01*
X8340833Y-23741071D01*
X8350357Y-23779167D01*
X8350357Y-23826786D01*
X8340833Y-23864881D01*
X8331309Y-23883928D01*
X8321786Y-23893452D01*
X8302738Y-23902976D01*
X8283690Y-23902976D01*
X8264643Y-23893452D01*
X8255119Y-23883928D01*
X8245595Y-23864881D01*
X8236071Y-23826786D01*
X8236071Y-23779167D01*
X8245595Y-23741071D01*
X8255119Y-23722024D01*
X8264643Y-23712500D01*
X8283690Y-23702976D01*
X8521786Y-23769643D02*
X8521786Y-23902976D01*
X8474167Y-23693452D02*
X8426548Y-23836309D01*
X8550357Y-23836309D01*
X8607500Y-23702976D02*
X8740833Y-23702976D01*
X8655119Y-23902976D01*
X8807500Y-23722024D02*
X8817024Y-23712500D01*
X8836071Y-23702976D01*
X8883690Y-23702976D01*
X8902738Y-23712500D01*
X8912262Y-23722024D01*
X8921786Y-23741071D01*
X8921786Y-23760119D01*
X8912262Y-23788690D01*
X8797976Y-23902976D01*
X8921786Y-23902976D01*
X8997976Y-23702976D02*
X8997976Y-23741071D01*
X9074167Y-23702976D02*
X9074167Y-23741071D01*
X9369405Y-23979167D02*
X9359881Y-23969643D01*
X9340833Y-23941071D01*
X9331310Y-23922024D01*
X9321786Y-23893452D01*
X9312262Y-23845833D01*
X9312262Y-23807738D01*
X9321786Y-23760119D01*
X9331310Y-23731548D01*
X9340833Y-23712500D01*
X9359881Y-23683928D01*
X9369405Y-23674405D01*
X9483690Y-23702976D02*
X9502738Y-23702976D01*
X9521786Y-23712500D01*
X9531310Y-23722024D01*
X9540833Y-23741071D01*
X9550357Y-23779167D01*
X9550357Y-23826786D01*
X9540833Y-23864881D01*
X9531310Y-23883928D01*
X9521786Y-23893452D01*
X9502738Y-23902976D01*
X9483690Y-23902976D01*
X9464643Y-23893452D01*
X9455119Y-23883928D01*
X9445595Y-23864881D01*
X9436071Y-23826786D01*
X9436071Y-23779167D01*
X9445595Y-23741071D01*
X9455119Y-23722024D01*
X9464643Y-23712500D01*
X9483690Y-23702976D01*
X9788452Y-23902976D02*
X9788452Y-23702976D01*
X9874167Y-23902976D02*
X9874167Y-23798214D01*
X9864643Y-23779167D01*
X9845595Y-23769643D01*
X9817024Y-23769643D01*
X9797976Y-23779167D01*
X9788452Y-23788690D01*
X9997976Y-23902976D02*
X9978929Y-23893452D01*
X9969405Y-23883928D01*
X9959881Y-23864881D01*
X9959881Y-23807738D01*
X9969405Y-23788690D01*
X9978929Y-23779167D01*
X9997976Y-23769643D01*
X10026548Y-23769643D01*
X10045595Y-23779167D01*
X10055119Y-23788690D01*
X10064643Y-23807738D01*
X10064643Y-23864881D01*
X10055119Y-23883928D01*
X10045595Y-23893452D01*
X10026548Y-23902976D01*
X9997976Y-23902976D01*
X10178929Y-23902976D02*
X10159881Y-23893452D01*
X10150357Y-23874405D01*
X10150357Y-23702976D01*
X10331310Y-23893452D02*
X10312262Y-23902976D01*
X10274167Y-23902976D01*
X10255119Y-23893452D01*
X10245595Y-23874405D01*
X10245595Y-23798214D01*
X10255119Y-23779167D01*
X10274167Y-23769643D01*
X10312262Y-23769643D01*
X10331310Y-23779167D01*
X10340833Y-23798214D01*
X10340833Y-23817262D01*
X10245595Y-23836309D01*
X10417024Y-23893452D02*
X10436071Y-23902976D01*
X10474167Y-23902976D01*
X10493214Y-23893452D01*
X10502738Y-23874405D01*
X10502738Y-23864881D01*
X10493214Y-23845833D01*
X10474167Y-23836309D01*
X10445595Y-23836309D01*
X10426548Y-23826786D01*
X10417024Y-23807738D01*
X10417024Y-23798214D01*
X10426548Y-23779167D01*
X10445595Y-23769643D01*
X10474167Y-23769643D01*
X10493214Y-23779167D01*
X10740833Y-23826786D02*
X10893214Y-23826786D01*
X10817024Y-23902976D02*
X10817024Y-23750595D01*
X11131310Y-23722024D02*
X11140833Y-23712500D01*
X11159881Y-23702976D01*
X11207500Y-23702976D01*
X11226548Y-23712500D01*
X11236071Y-23722024D01*
X11245595Y-23741071D01*
X11245595Y-23760119D01*
X11236071Y-23788690D01*
X11121786Y-23902976D01*
X11245595Y-23902976D01*
X11474167Y-23893452D02*
X11493214Y-23902976D01*
X11531309Y-23902976D01*
X11550357Y-23893452D01*
X11559881Y-23874405D01*
X11559881Y-23864881D01*
X11550357Y-23845833D01*
X11531309Y-23836309D01*
X11502738Y-23836309D01*
X11483690Y-23826786D01*
X11474167Y-23807738D01*
X11474167Y-23798214D01*
X11483690Y-23779167D01*
X11502738Y-23769643D01*
X11531309Y-23769643D01*
X11550357Y-23779167D01*
X11674167Y-23902976D02*
X11655119Y-23893452D01*
X11645595Y-23874405D01*
X11645595Y-23702976D01*
X11778928Y-23902976D02*
X11759881Y-23893452D01*
X11750357Y-23883928D01*
X11740833Y-23864881D01*
X11740833Y-23807738D01*
X11750357Y-23788690D01*
X11759881Y-23779167D01*
X11778928Y-23769643D01*
X11807500Y-23769643D01*
X11826548Y-23779167D01*
X11836071Y-23788690D01*
X11845595Y-23807738D01*
X11845595Y-23864881D01*
X11836071Y-23883928D01*
X11826548Y-23893452D01*
X11807500Y-23902976D01*
X11778928Y-23902976D01*
X11902738Y-23769643D02*
X11978928Y-23769643D01*
X11931309Y-23702976D02*
X11931309Y-23874405D01*
X11940833Y-23893452D01*
X11959881Y-23902976D01*
X11978928Y-23902976D01*
X12036071Y-23893452D02*
X12055119Y-23902976D01*
X12093214Y-23902976D01*
X12112262Y-23893452D01*
X12121786Y-23874405D01*
X12121786Y-23864881D01*
X12112262Y-23845833D01*
X12093214Y-23836309D01*
X12064643Y-23836309D01*
X12045595Y-23826786D01*
X12036071Y-23807738D01*
X12036071Y-23798214D01*
X12045595Y-23779167D01*
X12064643Y-23769643D01*
X12093214Y-23769643D01*
X12112262Y-23779167D01*
X12188452Y-23979167D02*
X12197976Y-23969643D01*
X12217024Y-23941071D01*
X12226548Y-23922024D01*
X12236071Y-23893452D01*
X12245595Y-23845833D01*
X12245595Y-23807738D01*
X12236071Y-23760119D01*
X12226548Y-23731548D01*
X12217024Y-23712500D01*
X12197976Y-23683928D01*
X12188452Y-23674405D01*
X12550357Y-23979167D02*
X12540833Y-23969643D01*
X12521786Y-23941071D01*
X12512262Y-23922024D01*
X12502738Y-23893452D01*
X12493214Y-23845833D01*
X12493214Y-23807738D01*
X12502738Y-23760119D01*
X12512262Y-23731548D01*
X12521786Y-23712500D01*
X12540833Y-23683928D01*
X12550357Y-23674405D01*
X12626548Y-23769643D02*
X12626548Y-23902976D01*
X12626548Y-23788690D02*
X12636071Y-23779167D01*
X12655119Y-23769643D01*
X12683690Y-23769643D01*
X12702738Y-23779167D01*
X12712262Y-23798214D01*
X12712262Y-23902976D01*
X12836071Y-23902976D02*
X12817024Y-23893452D01*
X12807500Y-23883928D01*
X12797976Y-23864881D01*
X12797976Y-23807738D01*
X12807500Y-23788690D01*
X12817024Y-23779167D01*
X12836071Y-23769643D01*
X12864643Y-23769643D01*
X12883690Y-23779167D01*
X12893214Y-23788690D01*
X12902738Y-23807738D01*
X12902738Y-23864881D01*
X12893214Y-23883928D01*
X12883690Y-23893452D01*
X12864643Y-23902976D01*
X12836071Y-23902976D01*
X12959881Y-23769643D02*
X13036071Y-23769643D01*
X12988452Y-23702976D02*
X12988452Y-23874405D01*
X12997976Y-23893452D01*
X13017024Y-23902976D01*
X13036071Y-23902976D01*
X13255119Y-23769643D02*
X13255119Y-23969643D01*
X13255119Y-23779167D02*
X13274167Y-23769643D01*
X13312262Y-23769643D01*
X13331309Y-23779167D01*
X13340833Y-23788690D01*
X13350357Y-23807738D01*
X13350357Y-23864881D01*
X13340833Y-23883928D01*
X13331309Y-23893452D01*
X13312262Y-23902976D01*
X13274167Y-23902976D01*
X13255119Y-23893452D01*
X13464643Y-23902976D02*
X13445595Y-23893452D01*
X13436071Y-23874405D01*
X13436071Y-23702976D01*
X13626548Y-23902976D02*
X13626548Y-23798214D01*
X13617024Y-23779167D01*
X13597976Y-23769643D01*
X13559881Y-23769643D01*
X13540833Y-23779167D01*
X13626548Y-23893452D02*
X13607500Y-23902976D01*
X13559881Y-23902976D01*
X13540833Y-23893452D01*
X13531309Y-23874405D01*
X13531309Y-23855357D01*
X13540833Y-23836309D01*
X13559881Y-23826786D01*
X13607500Y-23826786D01*
X13626548Y-23817262D01*
X13693214Y-23769643D02*
X13769405Y-23769643D01*
X13721786Y-23702976D02*
X13721786Y-23874405D01*
X13731309Y-23893452D01*
X13750357Y-23902976D01*
X13769405Y-23902976D01*
X13912262Y-23893452D02*
X13893214Y-23902976D01*
X13855119Y-23902976D01*
X13836071Y-23893452D01*
X13826548Y-23874405D01*
X13826548Y-23798214D01*
X13836071Y-23779167D01*
X13855119Y-23769643D01*
X13893214Y-23769643D01*
X13912262Y-23779167D01*
X13921786Y-23798214D01*
X13921786Y-23817262D01*
X13826548Y-23836309D01*
X14093214Y-23902976D02*
X14093214Y-23702976D01*
X14093214Y-23893452D02*
X14074167Y-23902976D01*
X14036071Y-23902976D01*
X14017024Y-23893452D01*
X14007500Y-23883928D01*
X13997976Y-23864881D01*
X13997976Y-23807738D01*
X14007500Y-23788690D01*
X14017024Y-23779167D01*
X14036071Y-23769643D01*
X14074167Y-23769643D01*
X14093214Y-23779167D01*
X14169405Y-23979167D02*
X14178928Y-23969643D01*
X14197976Y-23941071D01*
X14207500Y-23922024D01*
X14217024Y-23893452D01*
X14226548Y-23845833D01*
X14226548Y-23807738D01*
X14217024Y-23760119D01*
X14207500Y-23731548D01*
X14197976Y-23712500D01*
X14178928Y-23683928D01*
X14169405Y-23674405D01*
D13*
X5797500Y-24076500D02*
G75*
G03*
X5797500Y-24076500I-65000J0D01*
G01*
D11*
X6159881Y-24166976D02*
X6045595Y-24166976D01*
X6102738Y-24166976D02*
X6102738Y-23966976D01*
X6083690Y-23995548D01*
X6064643Y-24014595D01*
X6045595Y-24024119D01*
X6245595Y-24147928D02*
X6255119Y-24157452D01*
X6245595Y-24166976D01*
X6236071Y-24157452D01*
X6245595Y-24147928D01*
X6245595Y-24166976D01*
X6321786Y-23966976D02*
X6445595Y-23966976D01*
X6378928Y-24043167D01*
X6407500Y-24043167D01*
X6426548Y-24052690D01*
X6436071Y-24062214D01*
X6445595Y-24081262D01*
X6445595Y-24128881D01*
X6436071Y-24147928D01*
X6426548Y-24157452D01*
X6407500Y-24166976D01*
X6350357Y-24166976D01*
X6331309Y-24157452D01*
X6321786Y-24147928D01*
X6569405Y-23966976D02*
X6588452Y-23966976D01*
X6607500Y-23976500D01*
X6617024Y-23986024D01*
X6626548Y-24005071D01*
X6636071Y-24043167D01*
X6636071Y-24090786D01*
X6626548Y-24128881D01*
X6617024Y-24147928D01*
X6607500Y-24157452D01*
X6588452Y-24166976D01*
X6569405Y-24166976D01*
X6550357Y-24157452D01*
X6540833Y-24147928D01*
X6531309Y-24128881D01*
X6521786Y-24090786D01*
X6521786Y-24043167D01*
X6531309Y-24005071D01*
X6540833Y-23986024D01*
X6550357Y-23976500D01*
X6569405Y-23966976D01*
X6759881Y-23966976D02*
X6778928Y-23966976D01*
X6797976Y-23976500D01*
X6807500Y-23986024D01*
X6817024Y-24005071D01*
X6826548Y-24043167D01*
X6826548Y-24090786D01*
X6817024Y-24128881D01*
X6807500Y-24147928D01*
X6797976Y-24157452D01*
X6778928Y-24166976D01*
X6759881Y-24166976D01*
X6740833Y-24157452D01*
X6731309Y-24147928D01*
X6721786Y-24128881D01*
X6712262Y-24090786D01*
X6712262Y-24043167D01*
X6721786Y-24005071D01*
X6731309Y-23986024D01*
X6740833Y-23976500D01*
X6759881Y-23966976D01*
X6912262Y-24166976D02*
X6912262Y-24033643D01*
X6912262Y-24052690D02*
X6921786Y-24043167D01*
X6940833Y-24033643D01*
X6969405Y-24033643D01*
X6988452Y-24043167D01*
X6997976Y-24062214D01*
X6997976Y-24166976D01*
X6997976Y-24062214D02*
X7007500Y-24043167D01*
X7026548Y-24033643D01*
X7055119Y-24033643D01*
X7074167Y-24043167D01*
X7083690Y-24062214D01*
X7083690Y-24166976D01*
X7178928Y-24166976D02*
X7178928Y-24033643D01*
X7178928Y-24052690D02*
X7188452Y-24043167D01*
X7207500Y-24033643D01*
X7236071Y-24033643D01*
X7255119Y-24043167D01*
X7264643Y-24062214D01*
X7264643Y-24166976D01*
X7264643Y-24062214D02*
X7274167Y-24043167D01*
X7293214Y-24033643D01*
X7321786Y-24033643D01*
X7340833Y-24043167D01*
X7350357Y-24062214D01*
X7350357Y-24166976D01*
X7740833Y-23957452D02*
X7569405Y-24214595D01*
X7997976Y-23966976D02*
X8017024Y-23966976D01*
X8036071Y-23976500D01*
X8045595Y-23986024D01*
X8055119Y-24005071D01*
X8064643Y-24043167D01*
X8064643Y-24090786D01*
X8055119Y-24128881D01*
X8045595Y-24147928D01*
X8036071Y-24157452D01*
X8017024Y-24166976D01*
X7997976Y-24166976D01*
X7978928Y-24157452D01*
X7969405Y-24147928D01*
X7959881Y-24128881D01*
X7950357Y-24090786D01*
X7950357Y-24043167D01*
X7959881Y-24005071D01*
X7969405Y-23986024D01*
X7978928Y-23976500D01*
X7997976Y-23966976D01*
X8150357Y-24147928D02*
X8159881Y-24157452D01*
X8150357Y-24166976D01*
X8140833Y-24157452D01*
X8150357Y-24147928D01*
X8150357Y-24166976D01*
X8283690Y-23966976D02*
X8302738Y-23966976D01*
X8321786Y-23976500D01*
X8331309Y-23986024D01*
X8340833Y-24005071D01*
X8350357Y-24043167D01*
X8350357Y-24090786D01*
X8340833Y-24128881D01*
X8331309Y-24147928D01*
X8321786Y-24157452D01*
X8302738Y-24166976D01*
X8283690Y-24166976D01*
X8264643Y-24157452D01*
X8255119Y-24147928D01*
X8245595Y-24128881D01*
X8236071Y-24090786D01*
X8236071Y-24043167D01*
X8245595Y-24005071D01*
X8255119Y-23986024D01*
X8264643Y-23976500D01*
X8283690Y-23966976D01*
X8531310Y-23966976D02*
X8436071Y-23966976D01*
X8426548Y-24062214D01*
X8436071Y-24052690D01*
X8455119Y-24043167D01*
X8502738Y-24043167D01*
X8521786Y-24052690D01*
X8531310Y-24062214D01*
X8540833Y-24081262D01*
X8540833Y-24128881D01*
X8531310Y-24147928D01*
X8521786Y-24157452D01*
X8502738Y-24166976D01*
X8455119Y-24166976D01*
X8436071Y-24157452D01*
X8426548Y-24147928D01*
X8731310Y-24166976D02*
X8617024Y-24166976D01*
X8674167Y-24166976D02*
X8674167Y-23966976D01*
X8655119Y-23995548D01*
X8636071Y-24014595D01*
X8617024Y-24024119D01*
X8807500Y-23986024D02*
X8817024Y-23976500D01*
X8836071Y-23966976D01*
X8883690Y-23966976D01*
X8902738Y-23976500D01*
X8912262Y-23986024D01*
X8921786Y-24005071D01*
X8921786Y-24024119D01*
X8912262Y-24052690D01*
X8797976Y-24166976D01*
X8921786Y-24166976D01*
X8997976Y-23966976D02*
X8997976Y-24005071D01*
X9074167Y-23966976D02*
X9074167Y-24005071D01*
X9369405Y-24243167D02*
X9359881Y-24233643D01*
X9340833Y-24205071D01*
X9331310Y-24186024D01*
X9321786Y-24157452D01*
X9312262Y-24109833D01*
X9312262Y-24071738D01*
X9321786Y-24024119D01*
X9331310Y-23995548D01*
X9340833Y-23976500D01*
X9359881Y-23947928D01*
X9369405Y-23938405D01*
X9483690Y-23966976D02*
X9502738Y-23966976D01*
X9521786Y-23976500D01*
X9531310Y-23986024D01*
X9540833Y-24005071D01*
X9550357Y-24043167D01*
X9550357Y-24090786D01*
X9540833Y-24128881D01*
X9531310Y-24147928D01*
X9521786Y-24157452D01*
X9502738Y-24166976D01*
X9483690Y-24166976D01*
X9464643Y-24157452D01*
X9455119Y-24147928D01*
X9445595Y-24128881D01*
X9436071Y-24090786D01*
X9436071Y-24043167D01*
X9445595Y-24005071D01*
X9455119Y-23986024D01*
X9464643Y-23976500D01*
X9483690Y-23966976D01*
X9788452Y-24166976D02*
X9788452Y-23966976D01*
X9874167Y-24166976D02*
X9874167Y-24062214D01*
X9864643Y-24043167D01*
X9845595Y-24033643D01*
X9817024Y-24033643D01*
X9797976Y-24043167D01*
X9788452Y-24052690D01*
X9997976Y-24166976D02*
X9978929Y-24157452D01*
X9969405Y-24147928D01*
X9959881Y-24128881D01*
X9959881Y-24071738D01*
X9969405Y-24052690D01*
X9978929Y-24043167D01*
X9997976Y-24033643D01*
X10026548Y-24033643D01*
X10045595Y-24043167D01*
X10055119Y-24052690D01*
X10064643Y-24071738D01*
X10064643Y-24128881D01*
X10055119Y-24147928D01*
X10045595Y-24157452D01*
X10026548Y-24166976D01*
X9997976Y-24166976D01*
X10178929Y-24166976D02*
X10159881Y-24157452D01*
X10150357Y-24138405D01*
X10150357Y-23966976D01*
X10331310Y-24157452D02*
X10312262Y-24166976D01*
X10274167Y-24166976D01*
X10255119Y-24157452D01*
X10245595Y-24138405D01*
X10245595Y-24062214D01*
X10255119Y-24043167D01*
X10274167Y-24033643D01*
X10312262Y-24033643D01*
X10331310Y-24043167D01*
X10340833Y-24062214D01*
X10340833Y-24081262D01*
X10245595Y-24100309D01*
X10417024Y-24157452D02*
X10436071Y-24166976D01*
X10474167Y-24166976D01*
X10493214Y-24157452D01*
X10502738Y-24138405D01*
X10502738Y-24128881D01*
X10493214Y-24109833D01*
X10474167Y-24100309D01*
X10445595Y-24100309D01*
X10426548Y-24090786D01*
X10417024Y-24071738D01*
X10417024Y-24062214D01*
X10426548Y-24043167D01*
X10445595Y-24033643D01*
X10474167Y-24033643D01*
X10493214Y-24043167D01*
X10740833Y-24090786D02*
X10893214Y-24090786D01*
X10817024Y-24166976D02*
X10817024Y-24014595D01*
X11131310Y-23986024D02*
X11140833Y-23976500D01*
X11159881Y-23966976D01*
X11207500Y-23966976D01*
X11226548Y-23976500D01*
X11236071Y-23986024D01*
X11245595Y-24005071D01*
X11245595Y-24024119D01*
X11236071Y-24052690D01*
X11121786Y-24166976D01*
X11245595Y-24166976D01*
X11474167Y-24157452D02*
X11493214Y-24166976D01*
X11531309Y-24166976D01*
X11550357Y-24157452D01*
X11559881Y-24138405D01*
X11559881Y-24128881D01*
X11550357Y-24109833D01*
X11531309Y-24100309D01*
X11502738Y-24100309D01*
X11483690Y-24090786D01*
X11474167Y-24071738D01*
X11474167Y-24062214D01*
X11483690Y-24043167D01*
X11502738Y-24033643D01*
X11531309Y-24033643D01*
X11550357Y-24043167D01*
X11674167Y-24166976D02*
X11655119Y-24157452D01*
X11645595Y-24138405D01*
X11645595Y-23966976D01*
X11778928Y-24166976D02*
X11759881Y-24157452D01*
X11750357Y-24147928D01*
X11740833Y-24128881D01*
X11740833Y-24071738D01*
X11750357Y-24052690D01*
X11759881Y-24043167D01*
X11778928Y-24033643D01*
X11807500Y-24033643D01*
X11826548Y-24043167D01*
X11836071Y-24052690D01*
X11845595Y-24071738D01*
X11845595Y-24128881D01*
X11836071Y-24147928D01*
X11826548Y-24157452D01*
X11807500Y-24166976D01*
X11778928Y-24166976D01*
X11902738Y-24033643D02*
X11978928Y-24033643D01*
X11931309Y-23966976D02*
X11931309Y-24138405D01*
X11940833Y-24157452D01*
X11959881Y-24166976D01*
X11978928Y-24166976D01*
X12036071Y-24157452D02*
X12055119Y-24166976D01*
X12093214Y-24166976D01*
X12112262Y-24157452D01*
X12121786Y-24138405D01*
X12121786Y-24128881D01*
X12112262Y-24109833D01*
X12093214Y-24100309D01*
X12064643Y-24100309D01*
X12045595Y-24090786D01*
X12036071Y-24071738D01*
X12036071Y-24062214D01*
X12045595Y-24043167D01*
X12064643Y-24033643D01*
X12093214Y-24033643D01*
X12112262Y-24043167D01*
X12188452Y-24243167D02*
X12197976Y-24233643D01*
X12217024Y-24205071D01*
X12226548Y-24186024D01*
X12236071Y-24157452D01*
X12245595Y-24109833D01*
X12245595Y-24071738D01*
X12236071Y-24024119D01*
X12226548Y-23995548D01*
X12217024Y-23976500D01*
X12197976Y-23947928D01*
X12188452Y-23938405D01*
X12550357Y-24243167D02*
X12540833Y-24233643D01*
X12521786Y-24205071D01*
X12512262Y-24186024D01*
X12502738Y-24157452D01*
X12493214Y-24109833D01*
X12493214Y-24071738D01*
X12502738Y-24024119D01*
X12512262Y-23995548D01*
X12521786Y-23976500D01*
X12540833Y-23947928D01*
X12550357Y-23938405D01*
X12626548Y-24033643D02*
X12626548Y-24166976D01*
X12626548Y-24052690D02*
X12636071Y-24043167D01*
X12655119Y-24033643D01*
X12683690Y-24033643D01*
X12702738Y-24043167D01*
X12712262Y-24062214D01*
X12712262Y-24166976D01*
X12836071Y-24166976D02*
X12817024Y-24157452D01*
X12807500Y-24147928D01*
X12797976Y-24128881D01*
X12797976Y-24071738D01*
X12807500Y-24052690D01*
X12817024Y-24043167D01*
X12836071Y-24033643D01*
X12864643Y-24033643D01*
X12883690Y-24043167D01*
X12893214Y-24052690D01*
X12902738Y-24071738D01*
X12902738Y-24128881D01*
X12893214Y-24147928D01*
X12883690Y-24157452D01*
X12864643Y-24166976D01*
X12836071Y-24166976D01*
X12959881Y-24033643D02*
X13036071Y-24033643D01*
X12988452Y-23966976D02*
X12988452Y-24138405D01*
X12997976Y-24157452D01*
X13017024Y-24166976D01*
X13036071Y-24166976D01*
X13255119Y-24033643D02*
X13255119Y-24233643D01*
X13255119Y-24043167D02*
X13274167Y-24033643D01*
X13312262Y-24033643D01*
X13331309Y-24043167D01*
X13340833Y-24052690D01*
X13350357Y-24071738D01*
X13350357Y-24128881D01*
X13340833Y-24147928D01*
X13331309Y-24157452D01*
X13312262Y-24166976D01*
X13274167Y-24166976D01*
X13255119Y-24157452D01*
X13464643Y-24166976D02*
X13445595Y-24157452D01*
X13436071Y-24138405D01*
X13436071Y-23966976D01*
X13626548Y-24166976D02*
X13626548Y-24062214D01*
X13617024Y-24043167D01*
X13597976Y-24033643D01*
X13559881Y-24033643D01*
X13540833Y-24043167D01*
X13626548Y-24157452D02*
X13607500Y-24166976D01*
X13559881Y-24166976D01*
X13540833Y-24157452D01*
X13531309Y-24138405D01*
X13531309Y-24119357D01*
X13540833Y-24100309D01*
X13559881Y-24090786D01*
X13607500Y-24090786D01*
X13626548Y-24081262D01*
X13693214Y-24033643D02*
X13769405Y-24033643D01*
X13721786Y-23966976D02*
X13721786Y-24138405D01*
X13731309Y-24157452D01*
X13750357Y-24166976D01*
X13769405Y-24166976D01*
X13912262Y-24157452D02*
X13893214Y-24166976D01*
X13855119Y-24166976D01*
X13836071Y-24157452D01*
X13826548Y-24138405D01*
X13826548Y-24062214D01*
X13836071Y-24043167D01*
X13855119Y-24033643D01*
X13893214Y-24033643D01*
X13912262Y-24043167D01*
X13921786Y-24062214D01*
X13921786Y-24081262D01*
X13826548Y-24100309D01*
X14093214Y-24166976D02*
X14093214Y-23966976D01*
X14093214Y-24157452D02*
X14074167Y-24166976D01*
X14036071Y-24166976D01*
X14017024Y-24157452D01*
X14007500Y-24147928D01*
X13997976Y-24128881D01*
X13997976Y-24071738D01*
X14007500Y-24052690D01*
X14017024Y-24043167D01*
X14036071Y-24033643D01*
X14074167Y-24033643D01*
X14093214Y-24043167D01*
X14169405Y-24243167D02*
X14178928Y-24233643D01*
X14197976Y-24205071D01*
X14207500Y-24186024D01*
X14217024Y-24157452D01*
X14226548Y-24109833D01*
X14226548Y-24071738D01*
X14217024Y-24024119D01*
X14207500Y-23995548D01*
X14197976Y-23976500D01*
X14178928Y-23947928D01*
X14169405Y-23938405D01*
D14*
X5712410Y-24255410D02*
X5712410Y-24425590D01*
X5627320Y-24340500D02*
X5797500Y-24340500D01*
D11*
X6159881Y-24430976D02*
X6045595Y-24430976D01*
X6102738Y-24430976D02*
X6102738Y-24230976D01*
X6083690Y-24259548D01*
X6064643Y-24278595D01*
X6045595Y-24288119D01*
X6245595Y-24411928D02*
X6255119Y-24421452D01*
X6245595Y-24430976D01*
X6236071Y-24421452D01*
X6245595Y-24411928D01*
X6245595Y-24430976D01*
X6321786Y-24230976D02*
X6455119Y-24230976D01*
X6369405Y-24430976D01*
X6569405Y-24230976D02*
X6588452Y-24230976D01*
X6607500Y-24240500D01*
X6617024Y-24250024D01*
X6626548Y-24269071D01*
X6636071Y-24307167D01*
X6636071Y-24354786D01*
X6626548Y-24392881D01*
X6617024Y-24411928D01*
X6607500Y-24421452D01*
X6588452Y-24430976D01*
X6569405Y-24430976D01*
X6550357Y-24421452D01*
X6540833Y-24411928D01*
X6531309Y-24392881D01*
X6521786Y-24354786D01*
X6521786Y-24307167D01*
X6531309Y-24269071D01*
X6540833Y-24250024D01*
X6550357Y-24240500D01*
X6569405Y-24230976D01*
X6712262Y-24250024D02*
X6721786Y-24240500D01*
X6740833Y-24230976D01*
X6788452Y-24230976D01*
X6807500Y-24240500D01*
X6817024Y-24250024D01*
X6826548Y-24269071D01*
X6826548Y-24288119D01*
X6817024Y-24316690D01*
X6702738Y-24430976D01*
X6826548Y-24430976D01*
X6912262Y-24430976D02*
X6912262Y-24297643D01*
X6912262Y-24316690D02*
X6921786Y-24307167D01*
X6940833Y-24297643D01*
X6969405Y-24297643D01*
X6988452Y-24307167D01*
X6997976Y-24326214D01*
X6997976Y-24430976D01*
X6997976Y-24326214D02*
X7007500Y-24307167D01*
X7026548Y-24297643D01*
X7055119Y-24297643D01*
X7074167Y-24307167D01*
X7083690Y-24326214D01*
X7083690Y-24430976D01*
X7178928Y-24430976D02*
X7178928Y-24297643D01*
X7178928Y-24316690D02*
X7188452Y-24307167D01*
X7207500Y-24297643D01*
X7236071Y-24297643D01*
X7255119Y-24307167D01*
X7264643Y-24326214D01*
X7264643Y-24430976D01*
X7264643Y-24326214D02*
X7274167Y-24307167D01*
X7293214Y-24297643D01*
X7321786Y-24297643D01*
X7340833Y-24307167D01*
X7350357Y-24326214D01*
X7350357Y-24430976D01*
X7740833Y-24221452D02*
X7569405Y-24478595D01*
X7997976Y-24230976D02*
X8017024Y-24230976D01*
X8036071Y-24240500D01*
X8045595Y-24250024D01*
X8055119Y-24269071D01*
X8064643Y-24307167D01*
X8064643Y-24354786D01*
X8055119Y-24392881D01*
X8045595Y-24411928D01*
X8036071Y-24421452D01*
X8017024Y-24430976D01*
X7997976Y-24430976D01*
X7978928Y-24421452D01*
X7969405Y-24411928D01*
X7959881Y-24392881D01*
X7950357Y-24354786D01*
X7950357Y-24307167D01*
X7959881Y-24269071D01*
X7969405Y-24250024D01*
X7978928Y-24240500D01*
X7997976Y-24230976D01*
X8150357Y-24411928D02*
X8159881Y-24421452D01*
X8150357Y-24430976D01*
X8140833Y-24421452D01*
X8150357Y-24411928D01*
X8150357Y-24430976D01*
X8283690Y-24230976D02*
X8302738Y-24230976D01*
X8321786Y-24240500D01*
X8331309Y-24250024D01*
X8340833Y-24269071D01*
X8350357Y-24307167D01*
X8350357Y-24354786D01*
X8340833Y-24392881D01*
X8331309Y-24411928D01*
X8321786Y-24421452D01*
X8302738Y-24430976D01*
X8283690Y-24430976D01*
X8264643Y-24421452D01*
X8255119Y-24411928D01*
X8245595Y-24392881D01*
X8236071Y-24354786D01*
X8236071Y-24307167D01*
X8245595Y-24269071D01*
X8255119Y-24250024D01*
X8264643Y-24240500D01*
X8283690Y-24230976D01*
X8521786Y-24230976D02*
X8483690Y-24230976D01*
X8464643Y-24240500D01*
X8455119Y-24250024D01*
X8436071Y-24278595D01*
X8426548Y-24316690D01*
X8426548Y-24392881D01*
X8436071Y-24411928D01*
X8445595Y-24421452D01*
X8464643Y-24430976D01*
X8502738Y-24430976D01*
X8521786Y-24421452D01*
X8531310Y-24411928D01*
X8540833Y-24392881D01*
X8540833Y-24345262D01*
X8531310Y-24326214D01*
X8521786Y-24316690D01*
X8502738Y-24307167D01*
X8464643Y-24307167D01*
X8445595Y-24316690D01*
X8436071Y-24326214D01*
X8426548Y-24345262D01*
X8607500Y-24230976D02*
X8740833Y-24230976D01*
X8655119Y-24430976D01*
X8855119Y-24230976D02*
X8874167Y-24230976D01*
X8893214Y-24240500D01*
X8902738Y-24250024D01*
X8912262Y-24269071D01*
X8921786Y-24307167D01*
X8921786Y-24354786D01*
X8912262Y-24392881D01*
X8902738Y-24411928D01*
X8893214Y-24421452D01*
X8874167Y-24430976D01*
X8855119Y-24430976D01*
X8836071Y-24421452D01*
X8826548Y-24411928D01*
X8817024Y-24392881D01*
X8807500Y-24354786D01*
X8807500Y-24307167D01*
X8817024Y-24269071D01*
X8826548Y-24250024D01*
X8836071Y-24240500D01*
X8855119Y-24230976D01*
X8997976Y-24230976D02*
X8997976Y-24269071D01*
X9074167Y-24230976D02*
X9074167Y-24269071D01*
X9369405Y-24507167D02*
X9359881Y-24497643D01*
X9340833Y-24469071D01*
X9331310Y-24450024D01*
X9321786Y-24421452D01*
X9312262Y-24373833D01*
X9312262Y-24335738D01*
X9321786Y-24288119D01*
X9331310Y-24259548D01*
X9340833Y-24240500D01*
X9359881Y-24211928D01*
X9369405Y-24202405D01*
X9474167Y-24316690D02*
X9455119Y-24307167D01*
X9445595Y-24297643D01*
X9436071Y-24278595D01*
X9436071Y-24269071D01*
X9445595Y-24250024D01*
X9455119Y-24240500D01*
X9474167Y-24230976D01*
X9512262Y-24230976D01*
X9531310Y-24240500D01*
X9540833Y-24250024D01*
X9550357Y-24269071D01*
X9550357Y-24278595D01*
X9540833Y-24297643D01*
X9531310Y-24307167D01*
X9512262Y-24316690D01*
X9474167Y-24316690D01*
X9455119Y-24326214D01*
X9445595Y-24335738D01*
X9436071Y-24354786D01*
X9436071Y-24392881D01*
X9445595Y-24411928D01*
X9455119Y-24421452D01*
X9474167Y-24430976D01*
X9512262Y-24430976D01*
X9531310Y-24421452D01*
X9540833Y-24411928D01*
X9550357Y-24392881D01*
X9550357Y-24354786D01*
X9540833Y-24335738D01*
X9531310Y-24326214D01*
X9512262Y-24316690D01*
X9674167Y-24230976D02*
X9693214Y-24230976D01*
X9712262Y-24240500D01*
X9721786Y-24250024D01*
X9731310Y-24269071D01*
X9740833Y-24307167D01*
X9740833Y-24354786D01*
X9731310Y-24392881D01*
X9721786Y-24411928D01*
X9712262Y-24421452D01*
X9693214Y-24430976D01*
X9674167Y-24430976D01*
X9655119Y-24421452D01*
X9645595Y-24411928D01*
X9636071Y-24392881D01*
X9626548Y-24354786D01*
X9626548Y-24307167D01*
X9636071Y-24269071D01*
X9645595Y-24250024D01*
X9655119Y-24240500D01*
X9674167Y-24230976D01*
X9978929Y-24430976D02*
X9978929Y-24230976D01*
X10064643Y-24430976D02*
X10064643Y-24326214D01*
X10055119Y-24307167D01*
X10036071Y-24297643D01*
X10007500Y-24297643D01*
X9988452Y-24307167D01*
X9978929Y-24316690D01*
X10188452Y-24430976D02*
X10169405Y-24421452D01*
X10159881Y-24411928D01*
X10150357Y-24392881D01*
X10150357Y-24335738D01*
X10159881Y-24316690D01*
X10169405Y-24307167D01*
X10188452Y-24297643D01*
X10217024Y-24297643D01*
X10236071Y-24307167D01*
X10245595Y-24316690D01*
X10255119Y-24335738D01*
X10255119Y-24392881D01*
X10245595Y-24411928D01*
X10236071Y-24421452D01*
X10217024Y-24430976D01*
X10188452Y-24430976D01*
X10369405Y-24430976D02*
X10350357Y-24421452D01*
X10340833Y-24402405D01*
X10340833Y-24230976D01*
X10521786Y-24421452D02*
X10502738Y-24430976D01*
X10464643Y-24430976D01*
X10445595Y-24421452D01*
X10436071Y-24402405D01*
X10436071Y-24326214D01*
X10445595Y-24307167D01*
X10464643Y-24297643D01*
X10502738Y-24297643D01*
X10521786Y-24307167D01*
X10531310Y-24326214D01*
X10531310Y-24345262D01*
X10436071Y-24364309D01*
X10607500Y-24421452D02*
X10626548Y-24430976D01*
X10664643Y-24430976D01*
X10683690Y-24421452D01*
X10693214Y-24402405D01*
X10693214Y-24392881D01*
X10683690Y-24373833D01*
X10664643Y-24364309D01*
X10636071Y-24364309D01*
X10617024Y-24354786D01*
X10607500Y-24335738D01*
X10607500Y-24326214D01*
X10617024Y-24307167D01*
X10636071Y-24297643D01*
X10664643Y-24297643D01*
X10683690Y-24307167D01*
X10759881Y-24507167D02*
X10769405Y-24497643D01*
X10788452Y-24469071D01*
X10797976Y-24450024D01*
X10807500Y-24421452D01*
X10817024Y-24373833D01*
X10817024Y-24335738D01*
X10807500Y-24288119D01*
X10797976Y-24259548D01*
X10788452Y-24240500D01*
X10769405Y-24211928D01*
X10759881Y-24202405D01*
X11121786Y-24507167D02*
X11112262Y-24497643D01*
X11093214Y-24469071D01*
X11083690Y-24450024D01*
X11074167Y-24421452D01*
X11064643Y-24373833D01*
X11064643Y-24335738D01*
X11074167Y-24288119D01*
X11083690Y-24259548D01*
X11093214Y-24240500D01*
X11112262Y-24211928D01*
X11121786Y-24202405D01*
X11197976Y-24297643D02*
X11197976Y-24430976D01*
X11197976Y-24316690D02*
X11207500Y-24307167D01*
X11226548Y-24297643D01*
X11255119Y-24297643D01*
X11274167Y-24307167D01*
X11283690Y-24326214D01*
X11283690Y-24430976D01*
X11407500Y-24430976D02*
X11388452Y-24421452D01*
X11378928Y-24411928D01*
X11369405Y-24392881D01*
X11369405Y-24335738D01*
X11378928Y-24316690D01*
X11388452Y-24307167D01*
X11407500Y-24297643D01*
X11436071Y-24297643D01*
X11455119Y-24307167D01*
X11464643Y-24316690D01*
X11474167Y-24335738D01*
X11474167Y-24392881D01*
X11464643Y-24411928D01*
X11455119Y-24421452D01*
X11436071Y-24430976D01*
X11407500Y-24430976D01*
X11531309Y-24297643D02*
X11607500Y-24297643D01*
X11559881Y-24230976D02*
X11559881Y-24402405D01*
X11569405Y-24421452D01*
X11588452Y-24430976D01*
X11607500Y-24430976D01*
X11826548Y-24297643D02*
X11826548Y-24497643D01*
X11826548Y-24307167D02*
X11845595Y-24297643D01*
X11883690Y-24297643D01*
X11902738Y-24307167D01*
X11912262Y-24316690D01*
X11921786Y-24335738D01*
X11921786Y-24392881D01*
X11912262Y-24411928D01*
X11902738Y-24421452D01*
X11883690Y-24430976D01*
X11845595Y-24430976D01*
X11826548Y-24421452D01*
X12036071Y-24430976D02*
X12017024Y-24421452D01*
X12007500Y-24402405D01*
X12007500Y-24230976D01*
X12197976Y-24430976D02*
X12197976Y-24326214D01*
X12188452Y-24307167D01*
X12169405Y-24297643D01*
X12131309Y-24297643D01*
X12112262Y-24307167D01*
X12197976Y-24421452D02*
X12178928Y-24430976D01*
X12131309Y-24430976D01*
X12112262Y-24421452D01*
X12102738Y-24402405D01*
X12102738Y-24383357D01*
X12112262Y-24364309D01*
X12131309Y-24354786D01*
X12178928Y-24354786D01*
X12197976Y-24345262D01*
X12264643Y-24297643D02*
X12340833Y-24297643D01*
X12293214Y-24230976D02*
X12293214Y-24402405D01*
X12302738Y-24421452D01*
X12321786Y-24430976D01*
X12340833Y-24430976D01*
X12483690Y-24421452D02*
X12464643Y-24430976D01*
X12426548Y-24430976D01*
X12407500Y-24421452D01*
X12397976Y-24402405D01*
X12397976Y-24326214D01*
X12407500Y-24307167D01*
X12426548Y-24297643D01*
X12464643Y-24297643D01*
X12483690Y-24307167D01*
X12493214Y-24326214D01*
X12493214Y-24345262D01*
X12397976Y-24364309D01*
X12664643Y-24430976D02*
X12664643Y-24230976D01*
X12664643Y-24421452D02*
X12645595Y-24430976D01*
X12607500Y-24430976D01*
X12588452Y-24421452D01*
X12578928Y-24411928D01*
X12569405Y-24392881D01*
X12569405Y-24335738D01*
X12578928Y-24316690D01*
X12588452Y-24307167D01*
X12607500Y-24297643D01*
X12645595Y-24297643D01*
X12664643Y-24307167D01*
X12740833Y-24507167D02*
X12750357Y-24497643D01*
X12769405Y-24469071D01*
X12778928Y-24450024D01*
X12788452Y-24421452D01*
X12797976Y-24373833D01*
X12797976Y-24335738D01*
X12788452Y-24288119D01*
X12778928Y-24259548D01*
X12769405Y-24240500D01*
X12750357Y-24211928D01*
X12740833Y-24202405D01*
X5768211Y-24701391D02*
X5768211Y-24559969D01*
X5626789Y-24559969D01*
X5626789Y-24701391D01*
X5768211Y-24701391D01*
X6036071Y-24521156D02*
X6159881Y-24521156D01*
X6093214Y-24597347D01*
X6121786Y-24597347D01*
X6140833Y-24606870D01*
X6150357Y-24616394D01*
X6159881Y-24635442D01*
X6159881Y-24683061D01*
X6150357Y-24702108D01*
X6140833Y-24711632D01*
X6121786Y-24721156D01*
X6064643Y-24721156D01*
X6045595Y-24711632D01*
X6036071Y-24702108D01*
X6245595Y-24702108D02*
X6255119Y-24711632D01*
X6245595Y-24721156D01*
X6236071Y-24711632D01*
X6245595Y-24702108D01*
X6245595Y-24721156D01*
X6378928Y-24521156D02*
X6397976Y-24521156D01*
X6417024Y-24530680D01*
X6426548Y-24540204D01*
X6436071Y-24559251D01*
X6445595Y-24597347D01*
X6445595Y-24644966D01*
X6436071Y-24683061D01*
X6426548Y-24702108D01*
X6417024Y-24711632D01*
X6397976Y-24721156D01*
X6378928Y-24721156D01*
X6359881Y-24711632D01*
X6350357Y-24702108D01*
X6340833Y-24683061D01*
X6331309Y-24644966D01*
X6331309Y-24597347D01*
X6340833Y-24559251D01*
X6350357Y-24540204D01*
X6359881Y-24530680D01*
X6378928Y-24521156D01*
X6569405Y-24521156D02*
X6588452Y-24521156D01*
X6607500Y-24530680D01*
X6617024Y-24540204D01*
X6626548Y-24559251D01*
X6636071Y-24597347D01*
X6636071Y-24644966D01*
X6626548Y-24683061D01*
X6617024Y-24702108D01*
X6607500Y-24711632D01*
X6588452Y-24721156D01*
X6569405Y-24721156D01*
X6550357Y-24711632D01*
X6540833Y-24702108D01*
X6531309Y-24683061D01*
X6521786Y-24644966D01*
X6521786Y-24597347D01*
X6531309Y-24559251D01*
X6540833Y-24540204D01*
X6550357Y-24530680D01*
X6569405Y-24521156D01*
X6759881Y-24521156D02*
X6778928Y-24521156D01*
X6797976Y-24530680D01*
X6807500Y-24540204D01*
X6817024Y-24559251D01*
X6826548Y-24597347D01*
X6826548Y-24644966D01*
X6817024Y-24683061D01*
X6807500Y-24702108D01*
X6797976Y-24711632D01*
X6778928Y-24721156D01*
X6759881Y-24721156D01*
X6740833Y-24711632D01*
X6731309Y-24702108D01*
X6721786Y-24683061D01*
X6712262Y-24644966D01*
X6712262Y-24597347D01*
X6721786Y-24559251D01*
X6731309Y-24540204D01*
X6740833Y-24530680D01*
X6759881Y-24521156D01*
X6912262Y-24721156D02*
X6912262Y-24587823D01*
X6912262Y-24606870D02*
X6921786Y-24597347D01*
X6940833Y-24587823D01*
X6969405Y-24587823D01*
X6988452Y-24597347D01*
X6997976Y-24616394D01*
X6997976Y-24721156D01*
X6997976Y-24616394D02*
X7007500Y-24597347D01*
X7026548Y-24587823D01*
X7055119Y-24587823D01*
X7074167Y-24597347D01*
X7083690Y-24616394D01*
X7083690Y-24721156D01*
X7178928Y-24721156D02*
X7178928Y-24587823D01*
X7178928Y-24606870D02*
X7188452Y-24597347D01*
X7207500Y-24587823D01*
X7236071Y-24587823D01*
X7255119Y-24597347D01*
X7264643Y-24616394D01*
X7264643Y-24721156D01*
X7264643Y-24616394D02*
X7274167Y-24597347D01*
X7293214Y-24587823D01*
X7321786Y-24587823D01*
X7340833Y-24597347D01*
X7350357Y-24616394D01*
X7350357Y-24721156D01*
X7740833Y-24511632D02*
X7569405Y-24768775D01*
X7997976Y-24521156D02*
X8017024Y-24521156D01*
X8036071Y-24530680D01*
X8045595Y-24540204D01*
X8055119Y-24559251D01*
X8064643Y-24597347D01*
X8064643Y-24644966D01*
X8055119Y-24683061D01*
X8045595Y-24702108D01*
X8036071Y-24711632D01*
X8017024Y-24721156D01*
X7997976Y-24721156D01*
X7978928Y-24711632D01*
X7969405Y-24702108D01*
X7959881Y-24683061D01*
X7950357Y-24644966D01*
X7950357Y-24597347D01*
X7959881Y-24559251D01*
X7969405Y-24540204D01*
X7978928Y-24530680D01*
X7997976Y-24521156D01*
X8150357Y-24702108D02*
X8159881Y-24711632D01*
X8150357Y-24721156D01*
X8140833Y-24711632D01*
X8150357Y-24702108D01*
X8150357Y-24721156D01*
X8350357Y-24721156D02*
X8236071Y-24721156D01*
X8293214Y-24721156D02*
X8293214Y-24521156D01*
X8274167Y-24549728D01*
X8255119Y-24568775D01*
X8236071Y-24578299D01*
X8540833Y-24721156D02*
X8426548Y-24721156D01*
X8483690Y-24721156D02*
X8483690Y-24521156D01*
X8464643Y-24549728D01*
X8445595Y-24568775D01*
X8426548Y-24578299D01*
X8655119Y-24606870D02*
X8636071Y-24597347D01*
X8626548Y-24587823D01*
X8617024Y-24568775D01*
X8617024Y-24559251D01*
X8626548Y-24540204D01*
X8636071Y-24530680D01*
X8655119Y-24521156D01*
X8693214Y-24521156D01*
X8712262Y-24530680D01*
X8721786Y-24540204D01*
X8731310Y-24559251D01*
X8731310Y-24568775D01*
X8721786Y-24587823D01*
X8712262Y-24597347D01*
X8693214Y-24606870D01*
X8655119Y-24606870D01*
X8636071Y-24616394D01*
X8626548Y-24625918D01*
X8617024Y-24644966D01*
X8617024Y-24683061D01*
X8626548Y-24702108D01*
X8636071Y-24711632D01*
X8655119Y-24721156D01*
X8693214Y-24721156D01*
X8712262Y-24711632D01*
X8721786Y-24702108D01*
X8731310Y-24683061D01*
X8731310Y-24644966D01*
X8721786Y-24625918D01*
X8712262Y-24616394D01*
X8693214Y-24606870D01*
X8921786Y-24721156D02*
X8807500Y-24721156D01*
X8864643Y-24721156D02*
X8864643Y-24521156D01*
X8845595Y-24549728D01*
X8826548Y-24568775D01*
X8807500Y-24578299D01*
X8997976Y-24521156D02*
X8997976Y-24559251D01*
X9074167Y-24521156D02*
X9074167Y-24559251D01*
X9369405Y-24797347D02*
X9359881Y-24787823D01*
X9340833Y-24759251D01*
X9331310Y-24740204D01*
X9321786Y-24711632D01*
X9312262Y-24664013D01*
X9312262Y-24625918D01*
X9321786Y-24578299D01*
X9331310Y-24549728D01*
X9340833Y-24530680D01*
X9359881Y-24502108D01*
X9369405Y-24492585D01*
X9474167Y-24606870D02*
X9455119Y-24597347D01*
X9445595Y-24587823D01*
X9436071Y-24568775D01*
X9436071Y-24559251D01*
X9445595Y-24540204D01*
X9455119Y-24530680D01*
X9474167Y-24521156D01*
X9512262Y-24521156D01*
X9531310Y-24530680D01*
X9540833Y-24540204D01*
X9550357Y-24559251D01*
X9550357Y-24568775D01*
X9540833Y-24587823D01*
X9531310Y-24597347D01*
X9512262Y-24606870D01*
X9474167Y-24606870D01*
X9455119Y-24616394D01*
X9445595Y-24625918D01*
X9436071Y-24644966D01*
X9436071Y-24683061D01*
X9445595Y-24702108D01*
X9455119Y-24711632D01*
X9474167Y-24721156D01*
X9512262Y-24721156D01*
X9531310Y-24711632D01*
X9540833Y-24702108D01*
X9550357Y-24683061D01*
X9550357Y-24644966D01*
X9540833Y-24625918D01*
X9531310Y-24616394D01*
X9512262Y-24606870D01*
X9674167Y-24521156D02*
X9693214Y-24521156D01*
X9712262Y-24530680D01*
X9721786Y-24540204D01*
X9731310Y-24559251D01*
X9740833Y-24597347D01*
X9740833Y-24644966D01*
X9731310Y-24683061D01*
X9721786Y-24702108D01*
X9712262Y-24711632D01*
X9693214Y-24721156D01*
X9674167Y-24721156D01*
X9655119Y-24711632D01*
X9645595Y-24702108D01*
X9636071Y-24683061D01*
X9626548Y-24644966D01*
X9626548Y-24597347D01*
X9636071Y-24559251D01*
X9645595Y-24540204D01*
X9655119Y-24530680D01*
X9674167Y-24521156D01*
X9978929Y-24721156D02*
X9978929Y-24521156D01*
X10064643Y-24721156D02*
X10064643Y-24616394D01*
X10055119Y-24597347D01*
X10036071Y-24587823D01*
X10007500Y-24587823D01*
X9988452Y-24597347D01*
X9978929Y-24606870D01*
X10188452Y-24721156D02*
X10169405Y-24711632D01*
X10159881Y-24702108D01*
X10150357Y-24683061D01*
X10150357Y-24625918D01*
X10159881Y-24606870D01*
X10169405Y-24597347D01*
X10188452Y-24587823D01*
X10217024Y-24587823D01*
X10236071Y-24597347D01*
X10245595Y-24606870D01*
X10255119Y-24625918D01*
X10255119Y-24683061D01*
X10245595Y-24702108D01*
X10236071Y-24711632D01*
X10217024Y-24721156D01*
X10188452Y-24721156D01*
X10369405Y-24721156D02*
X10350357Y-24711632D01*
X10340833Y-24692585D01*
X10340833Y-24521156D01*
X10521786Y-24711632D02*
X10502738Y-24721156D01*
X10464643Y-24721156D01*
X10445595Y-24711632D01*
X10436071Y-24692585D01*
X10436071Y-24616394D01*
X10445595Y-24597347D01*
X10464643Y-24587823D01*
X10502738Y-24587823D01*
X10521786Y-24597347D01*
X10531310Y-24616394D01*
X10531310Y-24635442D01*
X10436071Y-24654489D01*
X10607500Y-24711632D02*
X10626548Y-24721156D01*
X10664643Y-24721156D01*
X10683690Y-24711632D01*
X10693214Y-24692585D01*
X10693214Y-24683061D01*
X10683690Y-24664013D01*
X10664643Y-24654489D01*
X10636071Y-24654489D01*
X10617024Y-24644966D01*
X10607500Y-24625918D01*
X10607500Y-24616394D01*
X10617024Y-24597347D01*
X10636071Y-24587823D01*
X10664643Y-24587823D01*
X10683690Y-24597347D01*
X10759881Y-24797347D02*
X10769405Y-24787823D01*
X10788452Y-24759251D01*
X10797976Y-24740204D01*
X10807500Y-24711632D01*
X10817024Y-24664013D01*
X10817024Y-24625918D01*
X10807500Y-24578299D01*
X10797976Y-24549728D01*
X10788452Y-24530680D01*
X10769405Y-24502108D01*
X10759881Y-24492585D01*
X11121786Y-24797347D02*
X11112262Y-24787823D01*
X11093214Y-24759251D01*
X11083690Y-24740204D01*
X11074167Y-24711632D01*
X11064643Y-24664013D01*
X11064643Y-24625918D01*
X11074167Y-24578299D01*
X11083690Y-24549728D01*
X11093214Y-24530680D01*
X11112262Y-24502108D01*
X11121786Y-24492585D01*
X11197976Y-24587823D02*
X11197976Y-24721156D01*
X11197976Y-24606870D02*
X11207500Y-24597347D01*
X11226548Y-24587823D01*
X11255119Y-24587823D01*
X11274167Y-24597347D01*
X11283690Y-24616394D01*
X11283690Y-24721156D01*
X11407500Y-24721156D02*
X11388452Y-24711632D01*
X11378928Y-24702108D01*
X11369405Y-24683061D01*
X11369405Y-24625918D01*
X11378928Y-24606870D01*
X11388452Y-24597347D01*
X11407500Y-24587823D01*
X11436071Y-24587823D01*
X11455119Y-24597347D01*
X11464643Y-24606870D01*
X11474167Y-24625918D01*
X11474167Y-24683061D01*
X11464643Y-24702108D01*
X11455119Y-24711632D01*
X11436071Y-24721156D01*
X11407500Y-24721156D01*
X11531309Y-24587823D02*
X11607500Y-24587823D01*
X11559881Y-24521156D02*
X11559881Y-24692585D01*
X11569405Y-24711632D01*
X11588452Y-24721156D01*
X11607500Y-24721156D01*
X11826548Y-24587823D02*
X11826548Y-24787823D01*
X11826548Y-24597347D02*
X11845595Y-24587823D01*
X11883690Y-24587823D01*
X11902738Y-24597347D01*
X11912262Y-24606870D01*
X11921786Y-24625918D01*
X11921786Y-24683061D01*
X11912262Y-24702108D01*
X11902738Y-24711632D01*
X11883690Y-24721156D01*
X11845595Y-24721156D01*
X11826548Y-24711632D01*
X12036071Y-24721156D02*
X12017024Y-24711632D01*
X12007500Y-24692585D01*
X12007500Y-24521156D01*
X12197976Y-24721156D02*
X12197976Y-24616394D01*
X12188452Y-24597347D01*
X12169405Y-24587823D01*
X12131309Y-24587823D01*
X12112262Y-24597347D01*
X12197976Y-24711632D02*
X12178928Y-24721156D01*
X12131309Y-24721156D01*
X12112262Y-24711632D01*
X12102738Y-24692585D01*
X12102738Y-24673537D01*
X12112262Y-24654489D01*
X12131309Y-24644966D01*
X12178928Y-24644966D01*
X12197976Y-24635442D01*
X12264643Y-24587823D02*
X12340833Y-24587823D01*
X12293214Y-24521156D02*
X12293214Y-24692585D01*
X12302738Y-24711632D01*
X12321786Y-24721156D01*
X12340833Y-24721156D01*
X12483690Y-24711632D02*
X12464643Y-24721156D01*
X12426548Y-24721156D01*
X12407500Y-24711632D01*
X12397976Y-24692585D01*
X12397976Y-24616394D01*
X12407500Y-24597347D01*
X12426548Y-24587823D01*
X12464643Y-24587823D01*
X12483690Y-24597347D01*
X12493214Y-24616394D01*
X12493214Y-24635442D01*
X12397976Y-24654489D01*
X12664643Y-24721156D02*
X12664643Y-24521156D01*
X12664643Y-24711632D02*
X12645595Y-24721156D01*
X12607500Y-24721156D01*
X12588452Y-24711632D01*
X12578928Y-24702108D01*
X12569405Y-24683061D01*
X12569405Y-24625918D01*
X12578928Y-24606870D01*
X12588452Y-24597347D01*
X12607500Y-24587823D01*
X12645595Y-24587823D01*
X12664643Y-24597347D01*
X12740833Y-24797347D02*
X12750357Y-24787823D01*
X12769405Y-24759251D01*
X12778928Y-24740204D01*
X12788452Y-24711632D01*
X12797976Y-24664013D01*
X12797976Y-24625918D01*
X12788452Y-24578299D01*
X12778928Y-24549728D01*
X12769405Y-24530680D01*
X12750357Y-24502108D01*
X12740833Y-24492585D01*
X5697500Y-25050680D02*
X5797500Y-24950680D01*
X5697500Y-24850680D01*
X5597500Y-24950680D01*
X5697500Y-25050680D01*
X6036071Y-24841156D02*
X6159881Y-24841156D01*
X6093214Y-24917347D01*
X6121786Y-24917347D01*
X6140833Y-24926870D01*
X6150357Y-24936394D01*
X6159881Y-24955442D01*
X6159881Y-25003061D01*
X6150357Y-25022108D01*
X6140833Y-25031632D01*
X6121786Y-25041156D01*
X6064643Y-25041156D01*
X6045595Y-25031632D01*
X6036071Y-25022108D01*
X6245595Y-25022108D02*
X6255119Y-25031632D01*
X6245595Y-25041156D01*
X6236071Y-25031632D01*
X6245595Y-25022108D01*
X6245595Y-25041156D01*
X6331309Y-24860204D02*
X6340833Y-24850680D01*
X6359881Y-24841156D01*
X6407500Y-24841156D01*
X6426548Y-24850680D01*
X6436071Y-24860204D01*
X6445595Y-24879251D01*
X6445595Y-24898299D01*
X6436071Y-24926870D01*
X6321786Y-25041156D01*
X6445595Y-25041156D01*
X6569405Y-24841156D02*
X6588452Y-24841156D01*
X6607500Y-24850680D01*
X6617024Y-24860204D01*
X6626548Y-24879251D01*
X6636071Y-24917347D01*
X6636071Y-24964966D01*
X6626548Y-25003061D01*
X6617024Y-25022108D01*
X6607500Y-25031632D01*
X6588452Y-25041156D01*
X6569405Y-25041156D01*
X6550357Y-25031632D01*
X6540833Y-25022108D01*
X6531309Y-25003061D01*
X6521786Y-24964966D01*
X6521786Y-24917347D01*
X6531309Y-24879251D01*
X6540833Y-24860204D01*
X6550357Y-24850680D01*
X6569405Y-24841156D01*
X6759881Y-24841156D02*
X6778928Y-24841156D01*
X6797976Y-24850680D01*
X6807500Y-24860204D01*
X6817024Y-24879251D01*
X6826548Y-24917347D01*
X6826548Y-24964966D01*
X6817024Y-25003061D01*
X6807500Y-25022108D01*
X6797976Y-25031632D01*
X6778928Y-25041156D01*
X6759881Y-25041156D01*
X6740833Y-25031632D01*
X6731309Y-25022108D01*
X6721786Y-25003061D01*
X6712262Y-24964966D01*
X6712262Y-24917347D01*
X6721786Y-24879251D01*
X6731309Y-24860204D01*
X6740833Y-24850680D01*
X6759881Y-24841156D01*
X6912262Y-25041156D02*
X6912262Y-24907823D01*
X6912262Y-24926870D02*
X6921786Y-24917347D01*
X6940833Y-24907823D01*
X6969405Y-24907823D01*
X6988452Y-24917347D01*
X6997976Y-24936394D01*
X6997976Y-25041156D01*
X6997976Y-24936394D02*
X7007500Y-24917347D01*
X7026548Y-24907823D01*
X7055119Y-24907823D01*
X7074167Y-24917347D01*
X7083690Y-24936394D01*
X7083690Y-25041156D01*
X7178928Y-25041156D02*
X7178928Y-24907823D01*
X7178928Y-24926870D02*
X7188452Y-24917347D01*
X7207500Y-24907823D01*
X7236071Y-24907823D01*
X7255119Y-24917347D01*
X7264643Y-24936394D01*
X7264643Y-25041156D01*
X7264643Y-24936394D02*
X7274167Y-24917347D01*
X7293214Y-24907823D01*
X7321786Y-24907823D01*
X7340833Y-24917347D01*
X7350357Y-24936394D01*
X7350357Y-25041156D01*
X7740833Y-24831632D02*
X7569405Y-25088775D01*
X7997976Y-24841156D02*
X8017024Y-24841156D01*
X8036071Y-24850680D01*
X8045595Y-24860204D01*
X8055119Y-24879251D01*
X8064643Y-24917347D01*
X8064643Y-24964966D01*
X8055119Y-25003061D01*
X8045595Y-25022108D01*
X8036071Y-25031632D01*
X8017024Y-25041156D01*
X7997976Y-25041156D01*
X7978928Y-25031632D01*
X7969405Y-25022108D01*
X7959881Y-25003061D01*
X7950357Y-24964966D01*
X7950357Y-24917347D01*
X7959881Y-24879251D01*
X7969405Y-24860204D01*
X7978928Y-24850680D01*
X7997976Y-24841156D01*
X8150357Y-25022108D02*
X8159881Y-25031632D01*
X8150357Y-25041156D01*
X8140833Y-25031632D01*
X8150357Y-25022108D01*
X8150357Y-25041156D01*
X8350357Y-25041156D02*
X8236071Y-25041156D01*
X8293214Y-25041156D02*
X8293214Y-24841156D01*
X8274167Y-24869728D01*
X8255119Y-24888775D01*
X8236071Y-24898299D01*
X8426548Y-24860204D02*
X8436071Y-24850680D01*
X8455119Y-24841156D01*
X8502738Y-24841156D01*
X8521786Y-24850680D01*
X8531310Y-24860204D01*
X8540833Y-24879251D01*
X8540833Y-24898299D01*
X8531310Y-24926870D01*
X8417024Y-25041156D01*
X8540833Y-25041156D01*
X8712262Y-24841156D02*
X8674167Y-24841156D01*
X8655119Y-24850680D01*
X8645595Y-24860204D01*
X8626548Y-24888775D01*
X8617024Y-24926870D01*
X8617024Y-25003061D01*
X8626548Y-25022108D01*
X8636071Y-25031632D01*
X8655119Y-25041156D01*
X8693214Y-25041156D01*
X8712262Y-25031632D01*
X8721786Y-25022108D01*
X8731310Y-25003061D01*
X8731310Y-24955442D01*
X8721786Y-24936394D01*
X8712262Y-24926870D01*
X8693214Y-24917347D01*
X8655119Y-24917347D01*
X8636071Y-24926870D01*
X8626548Y-24936394D01*
X8617024Y-24955442D01*
X8855119Y-24841156D02*
X8874167Y-24841156D01*
X8893214Y-24850680D01*
X8902738Y-24860204D01*
X8912262Y-24879251D01*
X8921786Y-24917347D01*
X8921786Y-24964966D01*
X8912262Y-25003061D01*
X8902738Y-25022108D01*
X8893214Y-25031632D01*
X8874167Y-25041156D01*
X8855119Y-25041156D01*
X8836071Y-25031632D01*
X8826548Y-25022108D01*
X8817024Y-25003061D01*
X8807500Y-24964966D01*
X8807500Y-24917347D01*
X8817024Y-24879251D01*
X8826548Y-24860204D01*
X8836071Y-24850680D01*
X8855119Y-24841156D01*
X8997976Y-24841156D02*
X8997976Y-24879251D01*
X9074167Y-24841156D02*
X9074167Y-24879251D01*
X9369405Y-25117347D02*
X9359881Y-25107823D01*
X9340833Y-25079251D01*
X9331310Y-25060204D01*
X9321786Y-25031632D01*
X9312262Y-24984013D01*
X9312262Y-24945918D01*
X9321786Y-24898299D01*
X9331310Y-24869728D01*
X9340833Y-24850680D01*
X9359881Y-24822108D01*
X9369405Y-24812585D01*
X9550357Y-25041156D02*
X9436071Y-25041156D01*
X9493214Y-25041156D02*
X9493214Y-24841156D01*
X9474167Y-24869728D01*
X9455119Y-24888775D01*
X9436071Y-24898299D01*
X9617024Y-24841156D02*
X9740833Y-24841156D01*
X9674167Y-24917347D01*
X9702738Y-24917347D01*
X9721786Y-24926870D01*
X9731310Y-24936394D01*
X9740833Y-24955442D01*
X9740833Y-25003061D01*
X9731310Y-25022108D01*
X9721786Y-25031632D01*
X9702738Y-25041156D01*
X9645595Y-25041156D01*
X9626548Y-25031632D01*
X9617024Y-25022108D01*
X9978929Y-25041156D02*
X9978929Y-24841156D01*
X10064643Y-25041156D02*
X10064643Y-24936394D01*
X10055119Y-24917347D01*
X10036071Y-24907823D01*
X10007500Y-24907823D01*
X9988452Y-24917347D01*
X9978929Y-24926870D01*
X10188452Y-25041156D02*
X10169405Y-25031632D01*
X10159881Y-25022108D01*
X10150357Y-25003061D01*
X10150357Y-24945918D01*
X10159881Y-24926870D01*
X10169405Y-24917347D01*
X10188452Y-24907823D01*
X10217024Y-24907823D01*
X10236071Y-24917347D01*
X10245595Y-24926870D01*
X10255119Y-24945918D01*
X10255119Y-25003061D01*
X10245595Y-25022108D01*
X10236071Y-25031632D01*
X10217024Y-25041156D01*
X10188452Y-25041156D01*
X10369405Y-25041156D02*
X10350357Y-25031632D01*
X10340833Y-25012585D01*
X10340833Y-24841156D01*
X10521786Y-25031632D02*
X10502738Y-25041156D01*
X10464643Y-25041156D01*
X10445595Y-25031632D01*
X10436071Y-25012585D01*
X10436071Y-24936394D01*
X10445595Y-24917347D01*
X10464643Y-24907823D01*
X10502738Y-24907823D01*
X10521786Y-24917347D01*
X10531310Y-24936394D01*
X10531310Y-24955442D01*
X10436071Y-24974489D01*
X10607500Y-25031632D02*
X10626548Y-25041156D01*
X10664643Y-25041156D01*
X10683690Y-25031632D01*
X10693214Y-25012585D01*
X10693214Y-25003061D01*
X10683690Y-24984013D01*
X10664643Y-24974489D01*
X10636071Y-24974489D01*
X10617024Y-24964966D01*
X10607500Y-24945918D01*
X10607500Y-24936394D01*
X10617024Y-24917347D01*
X10636071Y-24907823D01*
X10664643Y-24907823D01*
X10683690Y-24917347D01*
X10759881Y-25117347D02*
X10769405Y-25107823D01*
X10788452Y-25079251D01*
X10797976Y-25060204D01*
X10807500Y-25031632D01*
X10817024Y-24984013D01*
X10817024Y-24945918D01*
X10807500Y-24898299D01*
X10797976Y-24869728D01*
X10788452Y-24850680D01*
X10769405Y-24822108D01*
X10759881Y-24812585D01*
X11121786Y-25117347D02*
X11112262Y-25107823D01*
X11093214Y-25079251D01*
X11083690Y-25060204D01*
X11074167Y-25031632D01*
X11064643Y-24984013D01*
X11064643Y-24945918D01*
X11074167Y-24898299D01*
X11083690Y-24869728D01*
X11093214Y-24850680D01*
X11112262Y-24822108D01*
X11121786Y-24812585D01*
X11197976Y-24907823D02*
X11197976Y-25041156D01*
X11197976Y-24926870D02*
X11207500Y-24917347D01*
X11226548Y-24907823D01*
X11255119Y-24907823D01*
X11274167Y-24917347D01*
X11283690Y-24936394D01*
X11283690Y-25041156D01*
X11407500Y-25041156D02*
X11388452Y-25031632D01*
X11378928Y-25022108D01*
X11369405Y-25003061D01*
X11369405Y-24945918D01*
X11378928Y-24926870D01*
X11388452Y-24917347D01*
X11407500Y-24907823D01*
X11436071Y-24907823D01*
X11455119Y-24917347D01*
X11464643Y-24926870D01*
X11474167Y-24945918D01*
X11474167Y-25003061D01*
X11464643Y-25022108D01*
X11455119Y-25031632D01*
X11436071Y-25041156D01*
X11407500Y-25041156D01*
X11531309Y-24907823D02*
X11607500Y-24907823D01*
X11559881Y-24841156D02*
X11559881Y-25012585D01*
X11569405Y-25031632D01*
X11588452Y-25041156D01*
X11607500Y-25041156D01*
X11826548Y-24907823D02*
X11826548Y-25107823D01*
X11826548Y-24917347D02*
X11845595Y-24907823D01*
X11883690Y-24907823D01*
X11902738Y-24917347D01*
X11912262Y-24926870D01*
X11921786Y-24945918D01*
X11921786Y-25003061D01*
X11912262Y-25022108D01*
X11902738Y-25031632D01*
X11883690Y-25041156D01*
X11845595Y-25041156D01*
X11826548Y-25031632D01*
X12036071Y-25041156D02*
X12017024Y-25031632D01*
X12007500Y-25012585D01*
X12007500Y-24841156D01*
X12197976Y-25041156D02*
X12197976Y-24936394D01*
X12188452Y-24917347D01*
X12169405Y-24907823D01*
X12131309Y-24907823D01*
X12112262Y-24917347D01*
X12197976Y-25031632D02*
X12178928Y-25041156D01*
X12131309Y-25041156D01*
X12112262Y-25031632D01*
X12102738Y-25012585D01*
X12102738Y-24993537D01*
X12112262Y-24974489D01*
X12131309Y-24964966D01*
X12178928Y-24964966D01*
X12197976Y-24955442D01*
X12264643Y-24907823D02*
X12340833Y-24907823D01*
X12293214Y-24841156D02*
X12293214Y-25012585D01*
X12302738Y-25031632D01*
X12321786Y-25041156D01*
X12340833Y-25041156D01*
X12483690Y-25031632D02*
X12464643Y-25041156D01*
X12426548Y-25041156D01*
X12407500Y-25031632D01*
X12397976Y-25012585D01*
X12397976Y-24936394D01*
X12407500Y-24917347D01*
X12426548Y-24907823D01*
X12464643Y-24907823D01*
X12483690Y-24917347D01*
X12493214Y-24936394D01*
X12493214Y-24955442D01*
X12397976Y-24974489D01*
X12664643Y-25041156D02*
X12664643Y-24841156D01*
X12664643Y-25031632D02*
X12645595Y-25041156D01*
X12607500Y-25041156D01*
X12588452Y-25031632D01*
X12578928Y-25022108D01*
X12569405Y-25003061D01*
X12569405Y-24945918D01*
X12578928Y-24926870D01*
X12588452Y-24917347D01*
X12607500Y-24907823D01*
X12645595Y-24907823D01*
X12664643Y-24917347D01*
X12740833Y-25117347D02*
X12750357Y-25107823D01*
X12769405Y-25079251D01*
X12778928Y-25060204D01*
X12788452Y-25031632D01*
X12797976Y-24984013D01*
X12797976Y-24945918D01*
X12788452Y-24898299D01*
X12778928Y-24869728D01*
X12769405Y-24850680D01*
X12750357Y-24822108D01*
X12740833Y-24812585D01*
X5597500Y-25170680D02*
X5797500Y-25370680D01*
X5797500Y-25170680D02*
X5597500Y-25370680D01*
X5797500Y-25270680D02*
G75*
G03*
X5797500Y-25270680I-100000J0D01*
G01*
X6036071Y-25161156D02*
X6159881Y-25161156D01*
X6093214Y-25237347D01*
X6121786Y-25237347D01*
X6140833Y-25246870D01*
X6150357Y-25256394D01*
X6159881Y-25275442D01*
X6159881Y-25323061D01*
X6150357Y-25342108D01*
X6140833Y-25351632D01*
X6121786Y-25361156D01*
X6064643Y-25361156D01*
X6045595Y-25351632D01*
X6036071Y-25342108D01*
X6245595Y-25342108D02*
X6255119Y-25351632D01*
X6245595Y-25361156D01*
X6236071Y-25351632D01*
X6245595Y-25342108D01*
X6245595Y-25361156D01*
X6426548Y-25227823D02*
X6426548Y-25361156D01*
X6378928Y-25151632D02*
X6331309Y-25294489D01*
X6455119Y-25294489D01*
X6521786Y-25180204D02*
X6531309Y-25170680D01*
X6550357Y-25161156D01*
X6597976Y-25161156D01*
X6617024Y-25170680D01*
X6626548Y-25180204D01*
X6636071Y-25199251D01*
X6636071Y-25218299D01*
X6626548Y-25246870D01*
X6512262Y-25361156D01*
X6636071Y-25361156D01*
X6731309Y-25361156D02*
X6769405Y-25361156D01*
X6788452Y-25351632D01*
X6797976Y-25342108D01*
X6817024Y-25313537D01*
X6826548Y-25275442D01*
X6826548Y-25199251D01*
X6817024Y-25180204D01*
X6807500Y-25170680D01*
X6788452Y-25161156D01*
X6750357Y-25161156D01*
X6731309Y-25170680D01*
X6721786Y-25180204D01*
X6712262Y-25199251D01*
X6712262Y-25246870D01*
X6721786Y-25265918D01*
X6731309Y-25275442D01*
X6750357Y-25284966D01*
X6788452Y-25284966D01*
X6807500Y-25275442D01*
X6817024Y-25265918D01*
X6826548Y-25246870D01*
X6912262Y-25361156D02*
X6912262Y-25227823D01*
X6912262Y-25246870D02*
X6921786Y-25237347D01*
X6940833Y-25227823D01*
X6969405Y-25227823D01*
X6988452Y-25237347D01*
X6997976Y-25256394D01*
X6997976Y-25361156D01*
X6997976Y-25256394D02*
X7007500Y-25237347D01*
X7026548Y-25227823D01*
X7055119Y-25227823D01*
X7074167Y-25237347D01*
X7083690Y-25256394D01*
X7083690Y-25361156D01*
X7178928Y-25361156D02*
X7178928Y-25227823D01*
X7178928Y-25246870D02*
X7188452Y-25237347D01*
X7207500Y-25227823D01*
X7236071Y-25227823D01*
X7255119Y-25237347D01*
X7264643Y-25256394D01*
X7264643Y-25361156D01*
X7264643Y-25256394D02*
X7274167Y-25237347D01*
X7293214Y-25227823D01*
X7321786Y-25227823D01*
X7340833Y-25237347D01*
X7350357Y-25256394D01*
X7350357Y-25361156D01*
X7740833Y-25151632D02*
X7569405Y-25408775D01*
X7997976Y-25161156D02*
X8017024Y-25161156D01*
X8036071Y-25170680D01*
X8045595Y-25180204D01*
X8055119Y-25199251D01*
X8064643Y-25237347D01*
X8064643Y-25284966D01*
X8055119Y-25323061D01*
X8045595Y-25342108D01*
X8036071Y-25351632D01*
X8017024Y-25361156D01*
X7997976Y-25361156D01*
X7978928Y-25351632D01*
X7969405Y-25342108D01*
X7959881Y-25323061D01*
X7950357Y-25284966D01*
X7950357Y-25237347D01*
X7959881Y-25199251D01*
X7969405Y-25180204D01*
X7978928Y-25170680D01*
X7997976Y-25161156D01*
X8150357Y-25342108D02*
X8159881Y-25351632D01*
X8150357Y-25361156D01*
X8140833Y-25351632D01*
X8150357Y-25342108D01*
X8150357Y-25361156D01*
X8350357Y-25361156D02*
X8236071Y-25361156D01*
X8293214Y-25361156D02*
X8293214Y-25161156D01*
X8274167Y-25189728D01*
X8255119Y-25208775D01*
X8236071Y-25218299D01*
X8417024Y-25161156D02*
X8540833Y-25161156D01*
X8474167Y-25237347D01*
X8502738Y-25237347D01*
X8521786Y-25246870D01*
X8531310Y-25256394D01*
X8540833Y-25275442D01*
X8540833Y-25323061D01*
X8531310Y-25342108D01*
X8521786Y-25351632D01*
X8502738Y-25361156D01*
X8445595Y-25361156D01*
X8426548Y-25351632D01*
X8417024Y-25342108D01*
X8721786Y-25161156D02*
X8626548Y-25161156D01*
X8617024Y-25256394D01*
X8626548Y-25246870D01*
X8645595Y-25237347D01*
X8693214Y-25237347D01*
X8712262Y-25246870D01*
X8721786Y-25256394D01*
X8731310Y-25275442D01*
X8731310Y-25323061D01*
X8721786Y-25342108D01*
X8712262Y-25351632D01*
X8693214Y-25361156D01*
X8645595Y-25361156D01*
X8626548Y-25351632D01*
X8617024Y-25342108D01*
X8855119Y-25161156D02*
X8874167Y-25161156D01*
X8893214Y-25170680D01*
X8902738Y-25180204D01*
X8912262Y-25199251D01*
X8921786Y-25237347D01*
X8921786Y-25284966D01*
X8912262Y-25323061D01*
X8902738Y-25342108D01*
X8893214Y-25351632D01*
X8874167Y-25361156D01*
X8855119Y-25361156D01*
X8836071Y-25351632D01*
X8826548Y-25342108D01*
X8817024Y-25323061D01*
X8807500Y-25284966D01*
X8807500Y-25237347D01*
X8817024Y-25199251D01*
X8826548Y-25180204D01*
X8836071Y-25170680D01*
X8855119Y-25161156D01*
X8997976Y-25161156D02*
X8997976Y-25199251D01*
X9074167Y-25161156D02*
X9074167Y-25199251D01*
X9369405Y-25437347D02*
X9359881Y-25427823D01*
X9340833Y-25399251D01*
X9331310Y-25380204D01*
X9321786Y-25351632D01*
X9312262Y-25304013D01*
X9312262Y-25265918D01*
X9321786Y-25218299D01*
X9331310Y-25189728D01*
X9340833Y-25170680D01*
X9359881Y-25142108D01*
X9369405Y-25132585D01*
X9436071Y-25180204D02*
X9445595Y-25170680D01*
X9464643Y-25161156D01*
X9512262Y-25161156D01*
X9531310Y-25170680D01*
X9540833Y-25180204D01*
X9550357Y-25199251D01*
X9550357Y-25218299D01*
X9540833Y-25246870D01*
X9426548Y-25361156D01*
X9550357Y-25361156D01*
X9674167Y-25161156D02*
X9693214Y-25161156D01*
X9712262Y-25170680D01*
X9721786Y-25180204D01*
X9731310Y-25199251D01*
X9740833Y-25237347D01*
X9740833Y-25284966D01*
X9731310Y-25323061D01*
X9721786Y-25342108D01*
X9712262Y-25351632D01*
X9693214Y-25361156D01*
X9674167Y-25361156D01*
X9655119Y-25351632D01*
X9645595Y-25342108D01*
X9636071Y-25323061D01*
X9626548Y-25284966D01*
X9626548Y-25237347D01*
X9636071Y-25199251D01*
X9645595Y-25180204D01*
X9655119Y-25170680D01*
X9674167Y-25161156D01*
X9978929Y-25361156D02*
X9978929Y-25161156D01*
X10064643Y-25361156D02*
X10064643Y-25256394D01*
X10055119Y-25237347D01*
X10036071Y-25227823D01*
X10007500Y-25227823D01*
X9988452Y-25237347D01*
X9978929Y-25246870D01*
X10188452Y-25361156D02*
X10169405Y-25351632D01*
X10159881Y-25342108D01*
X10150357Y-25323061D01*
X10150357Y-25265918D01*
X10159881Y-25246870D01*
X10169405Y-25237347D01*
X10188452Y-25227823D01*
X10217024Y-25227823D01*
X10236071Y-25237347D01*
X10245595Y-25246870D01*
X10255119Y-25265918D01*
X10255119Y-25323061D01*
X10245595Y-25342108D01*
X10236071Y-25351632D01*
X10217024Y-25361156D01*
X10188452Y-25361156D01*
X10369405Y-25361156D02*
X10350357Y-25351632D01*
X10340833Y-25332585D01*
X10340833Y-25161156D01*
X10521786Y-25351632D02*
X10502738Y-25361156D01*
X10464643Y-25361156D01*
X10445595Y-25351632D01*
X10436071Y-25332585D01*
X10436071Y-25256394D01*
X10445595Y-25237347D01*
X10464643Y-25227823D01*
X10502738Y-25227823D01*
X10521786Y-25237347D01*
X10531310Y-25256394D01*
X10531310Y-25275442D01*
X10436071Y-25294489D01*
X10607500Y-25351632D02*
X10626548Y-25361156D01*
X10664643Y-25361156D01*
X10683690Y-25351632D01*
X10693214Y-25332585D01*
X10693214Y-25323061D01*
X10683690Y-25304013D01*
X10664643Y-25294489D01*
X10636071Y-25294489D01*
X10617024Y-25284966D01*
X10607500Y-25265918D01*
X10607500Y-25256394D01*
X10617024Y-25237347D01*
X10636071Y-25227823D01*
X10664643Y-25227823D01*
X10683690Y-25237347D01*
X10759881Y-25437347D02*
X10769405Y-25427823D01*
X10788452Y-25399251D01*
X10797976Y-25380204D01*
X10807500Y-25351632D01*
X10817024Y-25304013D01*
X10817024Y-25265918D01*
X10807500Y-25218299D01*
X10797976Y-25189728D01*
X10788452Y-25170680D01*
X10769405Y-25142108D01*
X10759881Y-25132585D01*
X11121786Y-25437347D02*
X11112262Y-25427823D01*
X11093214Y-25399251D01*
X11083690Y-25380204D01*
X11074167Y-25351632D01*
X11064643Y-25304013D01*
X11064643Y-25265918D01*
X11074167Y-25218299D01*
X11083690Y-25189728D01*
X11093214Y-25170680D01*
X11112262Y-25142108D01*
X11121786Y-25132585D01*
X11197976Y-25227823D02*
X11197976Y-25361156D01*
X11197976Y-25246870D02*
X11207500Y-25237347D01*
X11226548Y-25227823D01*
X11255119Y-25227823D01*
X11274167Y-25237347D01*
X11283690Y-25256394D01*
X11283690Y-25361156D01*
X11407500Y-25361156D02*
X11388452Y-25351632D01*
X11378928Y-25342108D01*
X11369405Y-25323061D01*
X11369405Y-25265918D01*
X11378928Y-25246870D01*
X11388452Y-25237347D01*
X11407500Y-25227823D01*
X11436071Y-25227823D01*
X11455119Y-25237347D01*
X11464643Y-25246870D01*
X11474167Y-25265918D01*
X11474167Y-25323061D01*
X11464643Y-25342108D01*
X11455119Y-25351632D01*
X11436071Y-25361156D01*
X11407500Y-25361156D01*
X11531309Y-25227823D02*
X11607500Y-25227823D01*
X11559881Y-25161156D02*
X11559881Y-25332585D01*
X11569405Y-25351632D01*
X11588452Y-25361156D01*
X11607500Y-25361156D01*
X11826548Y-25227823D02*
X11826548Y-25427823D01*
X11826548Y-25237347D02*
X11845595Y-25227823D01*
X11883690Y-25227823D01*
X11902738Y-25237347D01*
X11912262Y-25246870D01*
X11921786Y-25265918D01*
X11921786Y-25323061D01*
X11912262Y-25342108D01*
X11902738Y-25351632D01*
X11883690Y-25361156D01*
X11845595Y-25361156D01*
X11826548Y-25351632D01*
X12036071Y-25361156D02*
X12017024Y-25351632D01*
X12007500Y-25332585D01*
X12007500Y-25161156D01*
X12197976Y-25361156D02*
X12197976Y-25256394D01*
X12188452Y-25237347D01*
X12169405Y-25227823D01*
X12131309Y-25227823D01*
X12112262Y-25237347D01*
X12197976Y-25351632D02*
X12178928Y-25361156D01*
X12131309Y-25361156D01*
X12112262Y-25351632D01*
X12102738Y-25332585D01*
X12102738Y-25313537D01*
X12112262Y-25294489D01*
X12131309Y-25284966D01*
X12178928Y-25284966D01*
X12197976Y-25275442D01*
X12264643Y-25227823D02*
X12340833Y-25227823D01*
X12293214Y-25161156D02*
X12293214Y-25332585D01*
X12302738Y-25351632D01*
X12321786Y-25361156D01*
X12340833Y-25361156D01*
X12483690Y-25351632D02*
X12464643Y-25361156D01*
X12426548Y-25361156D01*
X12407500Y-25351632D01*
X12397976Y-25332585D01*
X12397976Y-25256394D01*
X12407500Y-25237347D01*
X12426548Y-25227823D01*
X12464643Y-25227823D01*
X12483690Y-25237347D01*
X12493214Y-25256394D01*
X12493214Y-25275442D01*
X12397976Y-25294489D01*
X12664643Y-25361156D02*
X12664643Y-25161156D01*
X12664643Y-25351632D02*
X12645595Y-25361156D01*
X12607500Y-25361156D01*
X12588452Y-25351632D01*
X12578928Y-25342108D01*
X12569405Y-25323061D01*
X12569405Y-25265918D01*
X12578928Y-25246870D01*
X12588452Y-25237347D01*
X12607500Y-25227823D01*
X12645595Y-25227823D01*
X12664643Y-25237347D01*
X12740833Y-25437347D02*
X12750357Y-25427823D01*
X12769405Y-25399251D01*
X12778928Y-25380204D01*
X12788452Y-25351632D01*
X12797976Y-25304013D01*
X12797976Y-25265918D01*
X12788452Y-25218299D01*
X12778928Y-25189728D01*
X12769405Y-25170680D01*
X12750357Y-25142108D01*
X12740833Y-25132585D01*
X5597500Y-25490680D02*
X5797500Y-25690680D01*
X5797500Y-25490680D02*
X5597500Y-25690680D01*
X5697500Y-25490680D02*
X5697500Y-25690680D01*
X5597500Y-25590680D02*
X5797500Y-25590680D01*
X6036071Y-25481156D02*
X6159881Y-25481156D01*
X6093214Y-25557347D01*
X6121786Y-25557347D01*
X6140833Y-25566870D01*
X6150357Y-25576394D01*
X6159881Y-25595442D01*
X6159881Y-25643061D01*
X6150357Y-25662108D01*
X6140833Y-25671632D01*
X6121786Y-25681156D01*
X6064643Y-25681156D01*
X6045595Y-25671632D01*
X6036071Y-25662108D01*
X6245595Y-25662108D02*
X6255119Y-25671632D01*
X6245595Y-25681156D01*
X6236071Y-25671632D01*
X6245595Y-25662108D01*
X6245595Y-25681156D01*
X6350357Y-25681156D02*
X6388452Y-25681156D01*
X6407500Y-25671632D01*
X6417024Y-25662108D01*
X6436071Y-25633537D01*
X6445595Y-25595442D01*
X6445595Y-25519251D01*
X6436071Y-25500204D01*
X6426548Y-25490680D01*
X6407500Y-25481156D01*
X6369405Y-25481156D01*
X6350357Y-25490680D01*
X6340833Y-25500204D01*
X6331309Y-25519251D01*
X6331309Y-25566870D01*
X6340833Y-25585918D01*
X6350357Y-25595442D01*
X6369405Y-25604966D01*
X6407500Y-25604966D01*
X6426548Y-25595442D01*
X6436071Y-25585918D01*
X6445595Y-25566870D01*
X6559881Y-25566870D02*
X6540833Y-25557347D01*
X6531309Y-25547823D01*
X6521786Y-25528775D01*
X6521786Y-25519251D01*
X6531309Y-25500204D01*
X6540833Y-25490680D01*
X6559881Y-25481156D01*
X6597976Y-25481156D01*
X6617024Y-25490680D01*
X6626548Y-25500204D01*
X6636071Y-25519251D01*
X6636071Y-25528775D01*
X6626548Y-25547823D01*
X6617024Y-25557347D01*
X6597976Y-25566870D01*
X6559881Y-25566870D01*
X6540833Y-25576394D01*
X6531309Y-25585918D01*
X6521786Y-25604966D01*
X6521786Y-25643061D01*
X6531309Y-25662108D01*
X6540833Y-25671632D01*
X6559881Y-25681156D01*
X6597976Y-25681156D01*
X6617024Y-25671632D01*
X6626548Y-25662108D01*
X6636071Y-25643061D01*
X6636071Y-25604966D01*
X6626548Y-25585918D01*
X6617024Y-25576394D01*
X6597976Y-25566870D01*
X6750357Y-25566870D02*
X6731309Y-25557347D01*
X6721786Y-25547823D01*
X6712262Y-25528775D01*
X6712262Y-25519251D01*
X6721786Y-25500204D01*
X6731309Y-25490680D01*
X6750357Y-25481156D01*
X6788452Y-25481156D01*
X6807500Y-25490680D01*
X6817024Y-25500204D01*
X6826548Y-25519251D01*
X6826548Y-25528775D01*
X6817024Y-25547823D01*
X6807500Y-25557347D01*
X6788452Y-25566870D01*
X6750357Y-25566870D01*
X6731309Y-25576394D01*
X6721786Y-25585918D01*
X6712262Y-25604966D01*
X6712262Y-25643061D01*
X6721786Y-25662108D01*
X6731309Y-25671632D01*
X6750357Y-25681156D01*
X6788452Y-25681156D01*
X6807500Y-25671632D01*
X6817024Y-25662108D01*
X6826548Y-25643061D01*
X6826548Y-25604966D01*
X6817024Y-25585918D01*
X6807500Y-25576394D01*
X6788452Y-25566870D01*
X6912262Y-25681156D02*
X6912262Y-25547823D01*
X6912262Y-25566870D02*
X6921786Y-25557347D01*
X6940833Y-25547823D01*
X6969405Y-25547823D01*
X6988452Y-25557347D01*
X6997976Y-25576394D01*
X6997976Y-25681156D01*
X6997976Y-25576394D02*
X7007500Y-25557347D01*
X7026548Y-25547823D01*
X7055119Y-25547823D01*
X7074167Y-25557347D01*
X7083690Y-25576394D01*
X7083690Y-25681156D01*
X7178928Y-25681156D02*
X7178928Y-25547823D01*
X7178928Y-25566870D02*
X7188452Y-25557347D01*
X7207500Y-25547823D01*
X7236071Y-25547823D01*
X7255119Y-25557347D01*
X7264643Y-25576394D01*
X7264643Y-25681156D01*
X7264643Y-25576394D02*
X7274167Y-25557347D01*
X7293214Y-25547823D01*
X7321786Y-25547823D01*
X7340833Y-25557347D01*
X7350357Y-25576394D01*
X7350357Y-25681156D01*
X7740833Y-25471632D02*
X7569405Y-25728775D01*
X7997976Y-25481156D02*
X8017024Y-25481156D01*
X8036071Y-25490680D01*
X8045595Y-25500204D01*
X8055119Y-25519251D01*
X8064643Y-25557347D01*
X8064643Y-25604966D01*
X8055119Y-25643061D01*
X8045595Y-25662108D01*
X8036071Y-25671632D01*
X8017024Y-25681156D01*
X7997976Y-25681156D01*
X7978928Y-25671632D01*
X7969405Y-25662108D01*
X7959881Y-25643061D01*
X7950357Y-25604966D01*
X7950357Y-25557347D01*
X7959881Y-25519251D01*
X7969405Y-25500204D01*
X7978928Y-25490680D01*
X7997976Y-25481156D01*
X8150357Y-25662108D02*
X8159881Y-25671632D01*
X8150357Y-25681156D01*
X8140833Y-25671632D01*
X8150357Y-25662108D01*
X8150357Y-25681156D01*
X8350357Y-25681156D02*
X8236071Y-25681156D01*
X8293214Y-25681156D02*
X8293214Y-25481156D01*
X8274167Y-25509728D01*
X8255119Y-25528775D01*
X8236071Y-25538299D01*
X8531310Y-25481156D02*
X8436071Y-25481156D01*
X8426548Y-25576394D01*
X8436071Y-25566870D01*
X8455119Y-25557347D01*
X8502738Y-25557347D01*
X8521786Y-25566870D01*
X8531310Y-25576394D01*
X8540833Y-25595442D01*
X8540833Y-25643061D01*
X8531310Y-25662108D01*
X8521786Y-25671632D01*
X8502738Y-25681156D01*
X8455119Y-25681156D01*
X8436071Y-25671632D01*
X8426548Y-25662108D01*
X8607500Y-25481156D02*
X8740833Y-25481156D01*
X8655119Y-25681156D01*
X8855119Y-25481156D02*
X8874167Y-25481156D01*
X8893214Y-25490680D01*
X8902738Y-25500204D01*
X8912262Y-25519251D01*
X8921786Y-25557347D01*
X8921786Y-25604966D01*
X8912262Y-25643061D01*
X8902738Y-25662108D01*
X8893214Y-25671632D01*
X8874167Y-25681156D01*
X8855119Y-25681156D01*
X8836071Y-25671632D01*
X8826548Y-25662108D01*
X8817024Y-25643061D01*
X8807500Y-25604966D01*
X8807500Y-25557347D01*
X8817024Y-25519251D01*
X8826548Y-25500204D01*
X8836071Y-25490680D01*
X8855119Y-25481156D01*
X8997976Y-25481156D02*
X8997976Y-25519251D01*
X9074167Y-25481156D02*
X9074167Y-25519251D01*
X9369405Y-25757347D02*
X9359881Y-25747823D01*
X9340833Y-25719251D01*
X9331310Y-25700204D01*
X9321786Y-25671632D01*
X9312262Y-25624013D01*
X9312262Y-25585918D01*
X9321786Y-25538299D01*
X9331310Y-25509728D01*
X9340833Y-25490680D01*
X9359881Y-25462108D01*
X9369405Y-25452585D01*
X9436071Y-25500204D02*
X9445595Y-25490680D01*
X9464643Y-25481156D01*
X9512262Y-25481156D01*
X9531310Y-25490680D01*
X9540833Y-25500204D01*
X9550357Y-25519251D01*
X9550357Y-25538299D01*
X9540833Y-25566870D01*
X9426548Y-25681156D01*
X9550357Y-25681156D01*
X9674167Y-25481156D02*
X9693214Y-25481156D01*
X9712262Y-25490680D01*
X9721786Y-25500204D01*
X9731310Y-25519251D01*
X9740833Y-25557347D01*
X9740833Y-25604966D01*
X9731310Y-25643061D01*
X9721786Y-25662108D01*
X9712262Y-25671632D01*
X9693214Y-25681156D01*
X9674167Y-25681156D01*
X9655119Y-25671632D01*
X9645595Y-25662108D01*
X9636071Y-25643061D01*
X9626548Y-25604966D01*
X9626548Y-25557347D01*
X9636071Y-25519251D01*
X9645595Y-25500204D01*
X9655119Y-25490680D01*
X9674167Y-25481156D01*
X9978929Y-25681156D02*
X9978929Y-25481156D01*
X10064643Y-25681156D02*
X10064643Y-25576394D01*
X10055119Y-25557347D01*
X10036071Y-25547823D01*
X10007500Y-25547823D01*
X9988452Y-25557347D01*
X9978929Y-25566870D01*
X10188452Y-25681156D02*
X10169405Y-25671632D01*
X10159881Y-25662108D01*
X10150357Y-25643061D01*
X10150357Y-25585918D01*
X10159881Y-25566870D01*
X10169405Y-25557347D01*
X10188452Y-25547823D01*
X10217024Y-25547823D01*
X10236071Y-25557347D01*
X10245595Y-25566870D01*
X10255119Y-25585918D01*
X10255119Y-25643061D01*
X10245595Y-25662108D01*
X10236071Y-25671632D01*
X10217024Y-25681156D01*
X10188452Y-25681156D01*
X10369405Y-25681156D02*
X10350357Y-25671632D01*
X10340833Y-25652585D01*
X10340833Y-25481156D01*
X10521786Y-25671632D02*
X10502738Y-25681156D01*
X10464643Y-25681156D01*
X10445595Y-25671632D01*
X10436071Y-25652585D01*
X10436071Y-25576394D01*
X10445595Y-25557347D01*
X10464643Y-25547823D01*
X10502738Y-25547823D01*
X10521786Y-25557347D01*
X10531310Y-25576394D01*
X10531310Y-25595442D01*
X10436071Y-25614489D01*
X10607500Y-25671632D02*
X10626548Y-25681156D01*
X10664643Y-25681156D01*
X10683690Y-25671632D01*
X10693214Y-25652585D01*
X10693214Y-25643061D01*
X10683690Y-25624013D01*
X10664643Y-25614489D01*
X10636071Y-25614489D01*
X10617024Y-25604966D01*
X10607500Y-25585918D01*
X10607500Y-25576394D01*
X10617024Y-25557347D01*
X10636071Y-25547823D01*
X10664643Y-25547823D01*
X10683690Y-25557347D01*
X10759881Y-25757347D02*
X10769405Y-25747823D01*
X10788452Y-25719251D01*
X10797976Y-25700204D01*
X10807500Y-25671632D01*
X10817024Y-25624013D01*
X10817024Y-25585918D01*
X10807500Y-25538299D01*
X10797976Y-25509728D01*
X10788452Y-25490680D01*
X10769405Y-25462108D01*
X10759881Y-25452585D01*
X11121786Y-25757347D02*
X11112262Y-25747823D01*
X11093214Y-25719251D01*
X11083690Y-25700204D01*
X11074167Y-25671632D01*
X11064643Y-25624013D01*
X11064643Y-25585918D01*
X11074167Y-25538299D01*
X11083690Y-25509728D01*
X11093214Y-25490680D01*
X11112262Y-25462108D01*
X11121786Y-25452585D01*
X11197976Y-25547823D02*
X11197976Y-25681156D01*
X11197976Y-25566870D02*
X11207500Y-25557347D01*
X11226548Y-25547823D01*
X11255119Y-25547823D01*
X11274167Y-25557347D01*
X11283690Y-25576394D01*
X11283690Y-25681156D01*
X11407500Y-25681156D02*
X11388452Y-25671632D01*
X11378928Y-25662108D01*
X11369405Y-25643061D01*
X11369405Y-25585918D01*
X11378928Y-25566870D01*
X11388452Y-25557347D01*
X11407500Y-25547823D01*
X11436071Y-25547823D01*
X11455119Y-25557347D01*
X11464643Y-25566870D01*
X11474167Y-25585918D01*
X11474167Y-25643061D01*
X11464643Y-25662108D01*
X11455119Y-25671632D01*
X11436071Y-25681156D01*
X11407500Y-25681156D01*
X11531309Y-25547823D02*
X11607500Y-25547823D01*
X11559881Y-25481156D02*
X11559881Y-25652585D01*
X11569405Y-25671632D01*
X11588452Y-25681156D01*
X11607500Y-25681156D01*
X11826548Y-25547823D02*
X11826548Y-25747823D01*
X11826548Y-25557347D02*
X11845595Y-25547823D01*
X11883690Y-25547823D01*
X11902738Y-25557347D01*
X11912262Y-25566870D01*
X11921786Y-25585918D01*
X11921786Y-25643061D01*
X11912262Y-25662108D01*
X11902738Y-25671632D01*
X11883690Y-25681156D01*
X11845595Y-25681156D01*
X11826548Y-25671632D01*
X12036071Y-25681156D02*
X12017024Y-25671632D01*
X12007500Y-25652585D01*
X12007500Y-25481156D01*
X12197976Y-25681156D02*
X12197976Y-25576394D01*
X12188452Y-25557347D01*
X12169405Y-25547823D01*
X12131309Y-25547823D01*
X12112262Y-25557347D01*
X12197976Y-25671632D02*
X12178928Y-25681156D01*
X12131309Y-25681156D01*
X12112262Y-25671632D01*
X12102738Y-25652585D01*
X12102738Y-25633537D01*
X12112262Y-25614489D01*
X12131309Y-25604966D01*
X12178928Y-25604966D01*
X12197976Y-25595442D01*
X12264643Y-25547823D02*
X12340833Y-25547823D01*
X12293214Y-25481156D02*
X12293214Y-25652585D01*
X12302738Y-25671632D01*
X12321786Y-25681156D01*
X12340833Y-25681156D01*
X12483690Y-25671632D02*
X12464643Y-25681156D01*
X12426548Y-25681156D01*
X12407500Y-25671632D01*
X12397976Y-25652585D01*
X12397976Y-25576394D01*
X12407500Y-25557347D01*
X12426548Y-25547823D01*
X12464643Y-25547823D01*
X12483690Y-25557347D01*
X12493214Y-25576394D01*
X12493214Y-25595442D01*
X12397976Y-25614489D01*
X12664643Y-25681156D02*
X12664643Y-25481156D01*
X12664643Y-25671632D02*
X12645595Y-25681156D01*
X12607500Y-25681156D01*
X12588452Y-25671632D01*
X12578928Y-25662108D01*
X12569405Y-25643061D01*
X12569405Y-25585918D01*
X12578928Y-25566870D01*
X12588452Y-25557347D01*
X12607500Y-25547823D01*
X12645595Y-25547823D01*
X12664643Y-25557347D01*
X12740833Y-25757347D02*
X12750357Y-25747823D01*
X12769405Y-25719251D01*
X12778928Y-25700204D01*
X12788452Y-25671632D01*
X12797976Y-25624013D01*
X12797976Y-25585918D01*
X12788452Y-25538299D01*
X12778928Y-25509728D01*
X12769405Y-25490680D01*
X12750357Y-25462108D01*
X12740833Y-25452585D01*
M02*
