G04 #@! TF.GenerationSoftware,KiCad,Pcbnew,(6.0.4)*
G04 #@! TF.CreationDate,2022-05-10T23:12:15-07:00*
G04 #@! TF.ProjectId,GCCMX,4743434d-582e-46b6-9963-61645f706362,rev?*
G04 #@! TF.SameCoordinates,Original*
G04 #@! TF.FileFunction,Legend,Bot*
G04 #@! TF.FilePolarity,Positive*
%FSLAX46Y46*%
G04 Gerber Fmt 4.6, Leading zero omitted, Abs format (unit mm)*
G04 Created by KiCad (PCBNEW (6.0.4)) date 2022-05-10 23:12:15*
%MOMM*%
%LPD*%
G01*
G04 APERTURE LIST*
G04 Aperture macros list*
%AMRoundRect*
0 Rectangle with rounded corners*
0 $1 Rounding radius*
0 $2 $3 $4 $5 $6 $7 $8 $9 X,Y pos of 4 corners*
0 Add a 4 corners polygon primitive as box body*
4,1,4,$2,$3,$4,$5,$6,$7,$8,$9,$2,$3,0*
0 Add four circle primitives for the rounded corners*
1,1,$1+$1,$2,$3*
1,1,$1+$1,$4,$5*
1,1,$1+$1,$6,$7*
1,1,$1+$1,$8,$9*
0 Add four rect primitives between the rounded corners*
20,1,$1+$1,$2,$3,$4,$5,0*
20,1,$1+$1,$4,$5,$6,$7,0*
20,1,$1+$1,$6,$7,$8,$9,0*
20,1,$1+$1,$8,$9,$2,$3,0*%
G04 Aperture macros list end*
%ADD10C,0.200000*%
%ADD11C,0.120000*%
%ADD12C,0.300000*%
%ADD13C,0.150000*%
%ADD14C,3.429000*%
%ADD15C,3.000000*%
%ADD16C,3.987800*%
%ADD17C,1.701800*%
%ADD18R,2.600000X2.600000*%
%ADD19R,2.550000X2.500000*%
%ADD20C,3.200000*%
%ADD21O,1.300000X2.000000*%
%ADD22O,1.200000X1.650000*%
%ADD23O,1.700000X1.700000*%
%ADD24R,1.700000X1.700000*%
%ADD25RoundRect,0.255906X-0.394094X-0.394094X0.394094X-0.394094X0.394094X0.394094X-0.394094X0.394094X0*%
%ADD26R,2.200000X2.200000*%
%ADD27O,2.200000X2.200000*%
G04 APERTURE END LIST*
D10*
X281100000Y-76200000D02*
X176100000Y-76200000D01*
X228600000Y-76200000D02*
X228600000Y-80250000D01*
D11*
X232970000Y-75250000D02*
X224230000Y-75250000D01*
X224230000Y-75250000D02*
X224230000Y-86580000D01*
X232970000Y-86580000D02*
X232970000Y-75250000D01*
X224230000Y-86580000D02*
X232970000Y-86580000D01*
D12*
X220520659Y-165137439D02*
X221020659Y-164423153D01*
X221377802Y-165137439D02*
X221377802Y-163637439D01*
X220806373Y-163637439D01*
X220663516Y-163708868D01*
X220592087Y-163780296D01*
X220520659Y-163923153D01*
X220520659Y-164137439D01*
X220592087Y-164280296D01*
X220663516Y-164351725D01*
X220806373Y-164423153D01*
X221377802Y-164423153D01*
D13*
X244163904Y-139090476D02*
X244163904Y-139547619D01*
X244963904Y-139319047D02*
X244163904Y-139319047D01*
X244163904Y-139738095D02*
X244963904Y-140271428D01*
X244163904Y-140271428D02*
X244963904Y-139738095D01*
X255543095Y-142944761D02*
X256343095Y-142944761D01*
X256343095Y-142754285D01*
X256305000Y-142640000D01*
X256228809Y-142563809D01*
X256152619Y-142525714D01*
X256000238Y-142487619D01*
X255885952Y-142487619D01*
X255733571Y-142525714D01*
X255657380Y-142563809D01*
X255581190Y-142640000D01*
X255543095Y-142754285D01*
X255543095Y-142944761D01*
X255847857Y-142144761D02*
X255847857Y-141535238D01*
X255543095Y-141840000D02*
X256152619Y-141840000D01*
D12*
X188770659Y-192934582D02*
X188842087Y-193006010D01*
X189056373Y-193077439D01*
X189199230Y-193077439D01*
X189413516Y-193006010D01*
X189556373Y-192863153D01*
X189627802Y-192720296D01*
X189699230Y-192434582D01*
X189699230Y-192220296D01*
X189627802Y-191934582D01*
X189556373Y-191791725D01*
X189413516Y-191648868D01*
X189199230Y-191577439D01*
X189056373Y-191577439D01*
X188842087Y-191648868D01*
X188770659Y-191720296D01*
X188127802Y-192506010D02*
X186984945Y-192506010D01*
X186270659Y-193077439D02*
X186270659Y-191577439D01*
X185913516Y-191577439D01*
X185699230Y-191648868D01*
X185556373Y-191791725D01*
X185484945Y-191934582D01*
X185413516Y-192220296D01*
X185413516Y-192434582D01*
X185484945Y-192720296D01*
X185556373Y-192863153D01*
X185699230Y-193006010D01*
X185913516Y-193077439D01*
X186270659Y-193077439D01*
X184556373Y-193077439D02*
X184699230Y-193006010D01*
X184770659Y-192934582D01*
X184842087Y-192791725D01*
X184842087Y-192363153D01*
X184770659Y-192220296D01*
X184699230Y-192148868D01*
X184556373Y-192077439D01*
X184342087Y-192077439D01*
X184199230Y-192148868D01*
X184127802Y-192220296D01*
X184056373Y-192363153D01*
X184056373Y-192791725D01*
X184127802Y-192934582D01*
X184199230Y-193006010D01*
X184342087Y-193077439D01*
X184556373Y-193077439D01*
X183556373Y-192077439D02*
X183270659Y-193077439D01*
X182984945Y-192363153D01*
X182699230Y-193077439D01*
X182413516Y-192077439D01*
X181842087Y-192077439D02*
X181842087Y-193077439D01*
X181842087Y-192220296D02*
X181770659Y-192148868D01*
X181627802Y-192077439D01*
X181413516Y-192077439D01*
X181270659Y-192148868D01*
X181199230Y-192291725D01*
X181199230Y-193077439D01*
X190571905Y-165004674D02*
X190571905Y-163504674D01*
X190071905Y-164576103D01*
X189571905Y-163504674D01*
X189571905Y-165004674D01*
X188643333Y-165004674D02*
X188786190Y-164933245D01*
X188857619Y-164861817D01*
X188929048Y-164718960D01*
X188929048Y-164290388D01*
X188857619Y-164147531D01*
X188786190Y-164076103D01*
X188643333Y-164004674D01*
X188429048Y-164004674D01*
X188286190Y-164076103D01*
X188214762Y-164147531D01*
X188143333Y-164290388D01*
X188143333Y-164718960D01*
X188214762Y-164861817D01*
X188286190Y-164933245D01*
X188429048Y-165004674D01*
X188643333Y-165004674D01*
X186857619Y-165004674D02*
X186857619Y-163504674D01*
X186857619Y-164933245D02*
X187000476Y-165004674D01*
X187286190Y-165004674D01*
X187429048Y-164933245D01*
X187500476Y-164861817D01*
X187571905Y-164718960D01*
X187571905Y-164290388D01*
X187500476Y-164147531D01*
X187429048Y-164076103D01*
X187286190Y-164004674D01*
X187000476Y-164004674D01*
X186857619Y-164076103D01*
X186286190Y-163504674D02*
X185286190Y-165004674D01*
X185286190Y-163504674D02*
X186286190Y-165004674D01*
D13*
X244163904Y-136550476D02*
X244163904Y-137045714D01*
X244468666Y-136779047D01*
X244468666Y-136893333D01*
X244506761Y-136969523D01*
X244544857Y-137007619D01*
X244621047Y-137045714D01*
X244811523Y-137045714D01*
X244887714Y-137007619D01*
X244925809Y-136969523D01*
X244963904Y-136893333D01*
X244963904Y-136664761D01*
X244925809Y-136588571D01*
X244887714Y-136550476D01*
X244163904Y-137274285D02*
X244963904Y-137540952D01*
X244163904Y-137807619D01*
D12*
X190969230Y-144746010D02*
X190754945Y-144817439D01*
X190397802Y-144817439D01*
X190254945Y-144746010D01*
X190183516Y-144674582D01*
X190112087Y-144531725D01*
X190112087Y-144388868D01*
X190183516Y-144246010D01*
X190254945Y-144174582D01*
X190397802Y-144103153D01*
X190683516Y-144031725D01*
X190826373Y-143960296D01*
X190897802Y-143888868D01*
X190969230Y-143746010D01*
X190969230Y-143603153D01*
X190897802Y-143460296D01*
X190826373Y-143388868D01*
X190683516Y-143317439D01*
X190326373Y-143317439D01*
X190112087Y-143388868D01*
X189683516Y-143817439D02*
X189112087Y-143817439D01*
X189469230Y-143317439D02*
X189469230Y-144603153D01*
X189397802Y-144746010D01*
X189254945Y-144817439D01*
X189112087Y-144817439D01*
X187969230Y-144817439D02*
X187969230Y-144031725D01*
X188040659Y-143888868D01*
X188183516Y-143817439D01*
X188469230Y-143817439D01*
X188612087Y-143888868D01*
X187969230Y-144746010D02*
X188112087Y-144817439D01*
X188469230Y-144817439D01*
X188612087Y-144746010D01*
X188683516Y-144603153D01*
X188683516Y-144460296D01*
X188612087Y-144317439D01*
X188469230Y-144246010D01*
X188112087Y-144246010D01*
X187969230Y-144174582D01*
X187254945Y-144817439D02*
X187254945Y-143817439D01*
X187254945Y-144103153D02*
X187183516Y-143960296D01*
X187112087Y-143888868D01*
X186969230Y-143817439D01*
X186826373Y-143817439D01*
X186540659Y-143817439D02*
X185969230Y-143817439D01*
X186326373Y-143317439D02*
X186326373Y-144603153D01*
X186254945Y-144746010D01*
X186112087Y-144817439D01*
X185969230Y-144817439D01*
X223282802Y-185457439D02*
X223282802Y-183957439D01*
X222782802Y-185028868D01*
X222282802Y-183957439D01*
X222282802Y-185457439D01*
X221639945Y-185386010D02*
X221425659Y-185457439D01*
X221068516Y-185457439D01*
X220925659Y-185386010D01*
X220854230Y-185314582D01*
X220782802Y-185171725D01*
X220782802Y-185028868D01*
X220854230Y-184886010D01*
X220925659Y-184814582D01*
X221068516Y-184743153D01*
X221354230Y-184671725D01*
X221497087Y-184600296D01*
X221568516Y-184528868D01*
X221639945Y-184386010D01*
X221639945Y-184243153D01*
X221568516Y-184100296D01*
X221497087Y-184028868D01*
X221354230Y-183957439D01*
X220997087Y-183957439D01*
X220782802Y-184028868D01*
X223282802Y-189037439D02*
X223282802Y-190251725D01*
X223211373Y-190394582D01*
X223139945Y-190466010D01*
X222997087Y-190537439D01*
X222711373Y-190537439D01*
X222568516Y-190466010D01*
X222497087Y-190394582D01*
X222425659Y-190251725D01*
X222425659Y-189037439D01*
X221711373Y-189537439D02*
X221711373Y-191037439D01*
X221711373Y-189608868D02*
X221568516Y-189537439D01*
X221282802Y-189537439D01*
X221139945Y-189608868D01*
X221068516Y-189680296D01*
X220997087Y-189823153D01*
X220997087Y-190251725D01*
X221068516Y-190394582D01*
X221139945Y-190466010D01*
X221282802Y-190537439D01*
X221568516Y-190537439D01*
X221711373Y-190466010D01*
D13*
X255543095Y-135553333D02*
X256343095Y-135553333D01*
X256343095Y-135362857D01*
X256305000Y-135248571D01*
X256228809Y-135172380D01*
X256152619Y-135134285D01*
X256000238Y-135096190D01*
X255885952Y-135096190D01*
X255733571Y-135134285D01*
X255657380Y-135172380D01*
X255581190Y-135248571D01*
X255543095Y-135362857D01*
X255543095Y-135553333D01*
X256343095Y-134829523D02*
X256343095Y-134334285D01*
X256038333Y-134600952D01*
X256038333Y-134486666D01*
X256000238Y-134410476D01*
X255962142Y-134372380D01*
X255885952Y-134334285D01*
X255695476Y-134334285D01*
X255619285Y-134372380D01*
X255581190Y-134410476D01*
X255543095Y-134486666D01*
X255543095Y-134715238D01*
X255581190Y-134791428D01*
X255619285Y-134829523D01*
X256343095Y-134105714D02*
X255543095Y-133839047D01*
X256343095Y-133572380D01*
D12*
X189453999Y-182767548D02*
X189525427Y-182838976D01*
X189739713Y-182910405D01*
X189882570Y-182910405D01*
X190096856Y-182838976D01*
X190239713Y-182696119D01*
X190311142Y-182553262D01*
X190382570Y-182267548D01*
X190382570Y-182053262D01*
X190311142Y-181767548D01*
X190239713Y-181624691D01*
X190096856Y-181481834D01*
X189882570Y-181410405D01*
X189739713Y-181410405D01*
X189525427Y-181481834D01*
X189453999Y-181553262D01*
X188811142Y-182338976D02*
X187668285Y-182338976D01*
X186953999Y-181410405D02*
X186953999Y-182624691D01*
X186882570Y-182767548D01*
X186811142Y-182838976D01*
X186668285Y-182910405D01*
X186382570Y-182910405D01*
X186239713Y-182838976D01*
X186168285Y-182767548D01*
X186096856Y-182624691D01*
X186096856Y-181410405D01*
X185382570Y-181910405D02*
X185382570Y-183410405D01*
X185382570Y-181981834D02*
X185239713Y-181910405D01*
X184953999Y-181910405D01*
X184811142Y-181981834D01*
X184739713Y-182053262D01*
X184668285Y-182196119D01*
X184668285Y-182624691D01*
X184739713Y-182767548D01*
X184811142Y-182838976D01*
X184953999Y-182910405D01*
X185239713Y-182910405D01*
X185382570Y-182838976D01*
X190040659Y-152437439D02*
X190540659Y-151723153D01*
X190897802Y-152437439D02*
X190897802Y-150937439D01*
X190326373Y-150937439D01*
X190183516Y-151008868D01*
X190112087Y-151080296D01*
X190040659Y-151223153D01*
X190040659Y-151437439D01*
X190112087Y-151580296D01*
X190183516Y-151651725D01*
X190326373Y-151723153D01*
X190897802Y-151723153D01*
X189397802Y-152437439D02*
X189397802Y-151437439D01*
X189397802Y-150937439D02*
X189469230Y-151008868D01*
X189397802Y-151080296D01*
X189326373Y-151008868D01*
X189397802Y-150937439D01*
X189397802Y-151080296D01*
X188040659Y-151437439D02*
X188040659Y-152651725D01*
X188112087Y-152794582D01*
X188183516Y-152866010D01*
X188326373Y-152937439D01*
X188540659Y-152937439D01*
X188683516Y-152866010D01*
X188040659Y-152366010D02*
X188183516Y-152437439D01*
X188469230Y-152437439D01*
X188612087Y-152366010D01*
X188683516Y-152294582D01*
X188754945Y-152151725D01*
X188754945Y-151723153D01*
X188683516Y-151580296D01*
X188612087Y-151508868D01*
X188469230Y-151437439D01*
X188183516Y-151437439D01*
X188040659Y-151508868D01*
X187326373Y-152437439D02*
X187326373Y-150937439D01*
X186683516Y-152437439D02*
X186683516Y-151651725D01*
X186754945Y-151508868D01*
X186897802Y-151437439D01*
X187112087Y-151437439D01*
X187254945Y-151508868D01*
X187326373Y-151580296D01*
X186183516Y-151437439D02*
X185612087Y-151437439D01*
X185969230Y-150937439D02*
X185969230Y-152223153D01*
X185897802Y-152366010D01*
X185754945Y-152437439D01*
X185612087Y-152437439D01*
X220877802Y-166891725D02*
X220663516Y-166963153D01*
X220592087Y-167034582D01*
X220520659Y-167177439D01*
X220520659Y-167391725D01*
X220592087Y-167534582D01*
X220663516Y-167606010D01*
X220806373Y-167677439D01*
X221377802Y-167677439D01*
X221377802Y-166177439D01*
X220877802Y-166177439D01*
X220734945Y-166248868D01*
X220663516Y-166320296D01*
X220592087Y-166463153D01*
X220592087Y-166606010D01*
X220663516Y-166748868D01*
X220734945Y-166820296D01*
X220877802Y-166891725D01*
X221377802Y-166891725D01*
D13*
X255543095Y-140404761D02*
X256343095Y-140404761D01*
X256343095Y-140214285D01*
X256305000Y-140100000D01*
X256228809Y-140023809D01*
X256152619Y-139985714D01*
X256000238Y-139947619D01*
X255885952Y-139947619D01*
X255733571Y-139985714D01*
X255657380Y-140023809D01*
X255581190Y-140100000D01*
X255543095Y-140214285D01*
X255543095Y-140404761D01*
X255847857Y-139604761D02*
X255847857Y-138995238D01*
D12*
X228775659Y-192934582D02*
X228847087Y-193006010D01*
X229061373Y-193077439D01*
X229204230Y-193077439D01*
X229418516Y-193006010D01*
X229561373Y-192863153D01*
X229632802Y-192720296D01*
X229704230Y-192434582D01*
X229704230Y-192220296D01*
X229632802Y-191934582D01*
X229561373Y-191791725D01*
X229418516Y-191648868D01*
X229204230Y-191577439D01*
X229061373Y-191577439D01*
X228847087Y-191648868D01*
X228775659Y-191720296D01*
X228132802Y-192506010D02*
X226989945Y-192506010D01*
X225418516Y-193077439D02*
X225918516Y-192363153D01*
X226275659Y-193077439D02*
X226275659Y-191577439D01*
X225704230Y-191577439D01*
X225561373Y-191648868D01*
X225489945Y-191720296D01*
X225418516Y-191863153D01*
X225418516Y-192077439D01*
X225489945Y-192220296D01*
X225561373Y-192291725D01*
X225704230Y-192363153D01*
X226275659Y-192363153D01*
X224775659Y-193077439D02*
X224775659Y-192077439D01*
X224775659Y-191577439D02*
X224847087Y-191648868D01*
X224775659Y-191720296D01*
X224704230Y-191648868D01*
X224775659Y-191577439D01*
X224775659Y-191720296D01*
X223418516Y-192077439D02*
X223418516Y-193291725D01*
X223489945Y-193434582D01*
X223561373Y-193506010D01*
X223704230Y-193577439D01*
X223918516Y-193577439D01*
X224061373Y-193506010D01*
X223418516Y-193006010D02*
X223561373Y-193077439D01*
X223847087Y-193077439D01*
X223989945Y-193006010D01*
X224061373Y-192934582D01*
X224132802Y-192791725D01*
X224132802Y-192363153D01*
X224061373Y-192220296D01*
X223989945Y-192148868D01*
X223847087Y-192077439D01*
X223561373Y-192077439D01*
X223418516Y-192148868D01*
X222704230Y-193077439D02*
X222704230Y-191577439D01*
X222061373Y-193077439D02*
X222061373Y-192291725D01*
X222132802Y-192148868D01*
X222275659Y-192077439D01*
X222489945Y-192077439D01*
X222632802Y-192148868D01*
X222704230Y-192220296D01*
X221561373Y-192077439D02*
X220989945Y-192077439D01*
X221347087Y-191577439D02*
X221347087Y-192863153D01*
X221275659Y-193006010D01*
X221132802Y-193077439D01*
X220989945Y-193077439D01*
X221092087Y-172043153D02*
X221092087Y-172757439D01*
X221592087Y-171257439D02*
X221092087Y-172043153D01*
X220592087Y-171257439D01*
X189280157Y-185722863D02*
X189351585Y-185794291D01*
X189565871Y-185865720D01*
X189708728Y-185865720D01*
X189923014Y-185794291D01*
X190065871Y-185651434D01*
X190137300Y-185508577D01*
X190208728Y-185222863D01*
X190208728Y-185008577D01*
X190137300Y-184722863D01*
X190065871Y-184580006D01*
X189923014Y-184437149D01*
X189708728Y-184365720D01*
X189565871Y-184365720D01*
X189351585Y-184437149D01*
X189280157Y-184508577D01*
X188637300Y-185294291D02*
X187494443Y-185294291D01*
X186065871Y-185865720D02*
X186780157Y-185865720D01*
X186780157Y-184365720D01*
X184994443Y-185794291D02*
X185137300Y-185865720D01*
X185423014Y-185865720D01*
X185565871Y-185794291D01*
X185637300Y-185651434D01*
X185637300Y-185080006D01*
X185565871Y-184937149D01*
X185423014Y-184865720D01*
X185137300Y-184865720D01*
X184994443Y-184937149D01*
X184923014Y-185080006D01*
X184923014Y-185222863D01*
X185637300Y-185365720D01*
X184494443Y-184865720D02*
X183923014Y-184865720D01*
X184280157Y-185865720D02*
X184280157Y-184580006D01*
X184208728Y-184437149D01*
X184065871Y-184365720D01*
X183923014Y-184365720D01*
X183637300Y-184865720D02*
X183065871Y-184865720D01*
X183423014Y-184365720D02*
X183423014Y-185651434D01*
X183351585Y-185794291D01*
X183208728Y-185865720D01*
X183065871Y-185865720D01*
X189774123Y-190391648D02*
X189059838Y-190391648D01*
X189916980Y-190820219D02*
X189416980Y-189320219D01*
X188916980Y-190820219D01*
X221520659Y-176337439D02*
X220520659Y-177837439D01*
X220520659Y-176337439D02*
X221520659Y-177837439D01*
X190398063Y-167612305D02*
X190398063Y-166112305D01*
X189898063Y-167183734D01*
X189398063Y-166112305D01*
X189398063Y-167612305D01*
X188469491Y-167612305D02*
X188612348Y-167540876D01*
X188683777Y-167469448D01*
X188755206Y-167326591D01*
X188755206Y-166898019D01*
X188683777Y-166755162D01*
X188612348Y-166683734D01*
X188469491Y-166612305D01*
X188255206Y-166612305D01*
X188112348Y-166683734D01*
X188040920Y-166755162D01*
X187969491Y-166898019D01*
X187969491Y-167326591D01*
X188040920Y-167469448D01*
X188112348Y-167540876D01*
X188255206Y-167612305D01*
X188469491Y-167612305D01*
X186683777Y-167612305D02*
X186683777Y-166112305D01*
X186683777Y-167540876D02*
X186826634Y-167612305D01*
X187112348Y-167612305D01*
X187255206Y-167540876D01*
X187326634Y-167469448D01*
X187398063Y-167326591D01*
X187398063Y-166898019D01*
X187326634Y-166755162D01*
X187255206Y-166683734D01*
X187112348Y-166612305D01*
X186826634Y-166612305D01*
X186683777Y-166683734D01*
X185683777Y-166898019D02*
X185683777Y-167612305D01*
X186183777Y-166112305D02*
X185683777Y-166898019D01*
X185183777Y-166112305D01*
X221520659Y-181417439D02*
X220520659Y-181417439D01*
X221520659Y-182917439D01*
X220520659Y-182917439D01*
D13*
X244163904Y-142087619D02*
X244163904Y-141706666D01*
X244544857Y-141668571D01*
X244506761Y-141706666D01*
X244468666Y-141782857D01*
X244468666Y-141973333D01*
X244506761Y-142049523D01*
X244544857Y-142087619D01*
X244621047Y-142125714D01*
X244811523Y-142125714D01*
X244887714Y-142087619D01*
X244925809Y-142049523D01*
X244963904Y-141973333D01*
X244963904Y-141782857D01*
X244925809Y-141706666D01*
X244887714Y-141668571D01*
X244163904Y-142354285D02*
X244963904Y-142620952D01*
X244163904Y-142887619D01*
D12*
X189925148Y-157517439D02*
X190639434Y-157517439D01*
X190639434Y-156017439D01*
X188853719Y-157446010D02*
X188996577Y-157517439D01*
X189282291Y-157517439D01*
X189425148Y-157446010D01*
X189496577Y-157303153D01*
X189496577Y-156731725D01*
X189425148Y-156588868D01*
X189282291Y-156517439D01*
X188996577Y-156517439D01*
X188853719Y-156588868D01*
X188782291Y-156731725D01*
X188782291Y-156874582D01*
X189496577Y-157017439D01*
X188353719Y-156517439D02*
X187782291Y-156517439D01*
X188139434Y-157517439D02*
X188139434Y-156231725D01*
X188068005Y-156088868D01*
X187925148Y-156017439D01*
X187782291Y-156017439D01*
X187496577Y-156517439D02*
X186925148Y-156517439D01*
X187282291Y-156017439D02*
X187282291Y-157303153D01*
X187210862Y-157446010D01*
X187068005Y-157517439D01*
X186925148Y-157517439D01*
D13*
X255543095Y-137293333D02*
X255924047Y-137560000D01*
X255543095Y-137750476D02*
X256343095Y-137750476D01*
X256343095Y-137445714D01*
X256305000Y-137369523D01*
X256266904Y-137331428D01*
X256190714Y-137293333D01*
X256076428Y-137293333D01*
X256000238Y-137331428D01*
X255962142Y-137369523D01*
X255924047Y-137445714D01*
X255924047Y-137750476D01*
X256343095Y-137026666D02*
X255543095Y-136493333D01*
X256343095Y-136493333D02*
X255543095Y-137026666D01*
X244202000Y-134010476D02*
X244163904Y-133934285D01*
X244163904Y-133820000D01*
X244202000Y-133705714D01*
X244278190Y-133629523D01*
X244354380Y-133591428D01*
X244506761Y-133553333D01*
X244621047Y-133553333D01*
X244773428Y-133591428D01*
X244849619Y-133629523D01*
X244925809Y-133705714D01*
X244963904Y-133820000D01*
X244963904Y-133896190D01*
X244925809Y-134010476D01*
X244887714Y-134048571D01*
X244621047Y-134048571D01*
X244621047Y-133896190D01*
X244963904Y-134391428D02*
X244163904Y-134391428D01*
X244963904Y-134848571D01*
X244163904Y-134848571D01*
X244963904Y-135229523D02*
X244163904Y-135229523D01*
X244163904Y-135420000D01*
X244202000Y-135534285D01*
X244278190Y-135610476D01*
X244354380Y-135648571D01*
X244506761Y-135686666D01*
X244621047Y-135686666D01*
X244773428Y-135648571D01*
X244849619Y-135610476D01*
X244925809Y-135534285D01*
X244963904Y-135420000D01*
X244963904Y-135229523D01*
D12*
X190897802Y-154977439D02*
X190897802Y-153477439D01*
X190540659Y-153477439D01*
X190326373Y-153548868D01*
X190183516Y-153691725D01*
X190112087Y-153834582D01*
X190040659Y-154120296D01*
X190040659Y-154334582D01*
X190112087Y-154620296D01*
X190183516Y-154763153D01*
X190326373Y-154906010D01*
X190540659Y-154977439D01*
X190897802Y-154977439D01*
X189183516Y-154977439D02*
X189326373Y-154906010D01*
X189397802Y-154834582D01*
X189469230Y-154691725D01*
X189469230Y-154263153D01*
X189397802Y-154120296D01*
X189326373Y-154048868D01*
X189183516Y-153977439D01*
X188969230Y-153977439D01*
X188826373Y-154048868D01*
X188754945Y-154120296D01*
X188683516Y-154263153D01*
X188683516Y-154691725D01*
X188754945Y-154834582D01*
X188826373Y-154906010D01*
X188969230Y-154977439D01*
X189183516Y-154977439D01*
X188183516Y-153977439D02*
X187897802Y-154977439D01*
X187612087Y-154263153D01*
X187326373Y-154977439D01*
X187040659Y-153977439D01*
X186469230Y-153977439D02*
X186469230Y-154977439D01*
X186469230Y-154120296D02*
X186397802Y-154048868D01*
X186254945Y-153977439D01*
X186040659Y-153977439D01*
X185897802Y-154048868D01*
X185826373Y-154191725D01*
X185826373Y-154977439D01*
X189770622Y-159989859D02*
X190484908Y-159989859D01*
X190484908Y-158489859D01*
X221933516Y-180377439D02*
X222647802Y-180377439D01*
X222647802Y-178877439D01*
X221504945Y-180306010D02*
X221290659Y-180377439D01*
X220933516Y-180377439D01*
X220790659Y-180306010D01*
X220719230Y-180234582D01*
X220647802Y-180091725D01*
X220647802Y-179948868D01*
X220719230Y-179806010D01*
X220790659Y-179734582D01*
X220933516Y-179663153D01*
X221219230Y-179591725D01*
X221362087Y-179520296D01*
X221433516Y-179448868D01*
X221504945Y-179306010D01*
X221504945Y-179163153D01*
X221433516Y-179020296D01*
X221362087Y-178948868D01*
X221219230Y-178877439D01*
X220862087Y-178877439D01*
X220647802Y-178948868D01*
D13*
X95628278Y-104543629D02*
X95485421Y-104591248D01*
X95247325Y-104591248D01*
X95152087Y-104543629D01*
X95104468Y-104496010D01*
X95056849Y-104400772D01*
X95056849Y-104305534D01*
X95104468Y-104210296D01*
X95152087Y-104162677D01*
X95247325Y-104115058D01*
X95437802Y-104067439D01*
X95533040Y-104019820D01*
X95580659Y-103972201D01*
X95628278Y-103876963D01*
X95628278Y-103781725D01*
X95580659Y-103686487D01*
X95533040Y-103638868D01*
X95437802Y-103591248D01*
X95199706Y-103591248D01*
X95056849Y-103638868D01*
X94723516Y-103591248D02*
X94485421Y-104591248D01*
X94294945Y-103876963D01*
X94104468Y-104591248D01*
X93866373Y-103591248D01*
X93533040Y-103686487D02*
X93485421Y-103638868D01*
X93390183Y-103591248D01*
X93152087Y-103591248D01*
X93056849Y-103638868D01*
X93009230Y-103686487D01*
X92961611Y-103781725D01*
X92961611Y-103876963D01*
X93009230Y-104019820D01*
X93580659Y-104591248D01*
X92961611Y-104591248D01*
X95628278Y-104543629D02*
X95485421Y-104591248D01*
X95247325Y-104591248D01*
X95152087Y-104543629D01*
X95104468Y-104496010D01*
X95056849Y-104400772D01*
X95056849Y-104305534D01*
X95104468Y-104210296D01*
X95152087Y-104162677D01*
X95247325Y-104115058D01*
X95437802Y-104067439D01*
X95533040Y-104019820D01*
X95580659Y-103972201D01*
X95628278Y-103876963D01*
X95628278Y-103781725D01*
X95580659Y-103686487D01*
X95533040Y-103638868D01*
X95437802Y-103591248D01*
X95199706Y-103591248D01*
X95056849Y-103638868D01*
X94723516Y-103591248D02*
X94485421Y-104591248D01*
X94294945Y-103876963D01*
X94104468Y-104591248D01*
X93866373Y-103591248D01*
X93533040Y-103686487D02*
X93485421Y-103638868D01*
X93390183Y-103591248D01*
X93152087Y-103591248D01*
X93056849Y-103638868D01*
X93009230Y-103686487D01*
X92961611Y-103781725D01*
X92961611Y-103876963D01*
X93009230Y-104019820D01*
X93580659Y-104591248D01*
X92961611Y-104591248D01*
X124251546Y-101347789D02*
X124108689Y-101395408D01*
X123870593Y-101395408D01*
X123775355Y-101347789D01*
X123727736Y-101300170D01*
X123680117Y-101204932D01*
X123680117Y-101109694D01*
X123727736Y-101014456D01*
X123775355Y-100966837D01*
X123870593Y-100919218D01*
X124061070Y-100871599D01*
X124156308Y-100823980D01*
X124203927Y-100776361D01*
X124251546Y-100681123D01*
X124251546Y-100585885D01*
X124203927Y-100490647D01*
X124156308Y-100443028D01*
X124061070Y-100395408D01*
X123822974Y-100395408D01*
X123680117Y-100443028D01*
X123346784Y-100395408D02*
X123108689Y-101395408D01*
X122918213Y-100681123D01*
X122727736Y-101395408D01*
X122489641Y-100395408D01*
X122203927Y-100395408D02*
X121584879Y-100395408D01*
X121918213Y-100776361D01*
X121775355Y-100776361D01*
X121680117Y-100823980D01*
X121632498Y-100871599D01*
X121584879Y-100966837D01*
X121584879Y-101204932D01*
X121632498Y-101300170D01*
X121680117Y-101347789D01*
X121775355Y-101395408D01*
X122061070Y-101395408D01*
X122156308Y-101347789D01*
X122203927Y-101300170D01*
X150433333Y-113117261D02*
X150290476Y-113164880D01*
X150052380Y-113164880D01*
X149957142Y-113117261D01*
X149909523Y-113069642D01*
X149861904Y-112974404D01*
X149861904Y-112879166D01*
X149909523Y-112783928D01*
X149957142Y-112736309D01*
X150052380Y-112688690D01*
X150242857Y-112641071D01*
X150338095Y-112593452D01*
X150385714Y-112545833D01*
X150433333Y-112450595D01*
X150433333Y-112355357D01*
X150385714Y-112260119D01*
X150338095Y-112212500D01*
X150242857Y-112164880D01*
X150004761Y-112164880D01*
X149861904Y-112212500D01*
X149528571Y-112164880D02*
X149290476Y-113164880D01*
X149100000Y-112450595D01*
X148909523Y-113164880D01*
X148671428Y-112164880D01*
X147861904Y-112498214D02*
X147861904Y-113164880D01*
X148100000Y-112117261D02*
X148338095Y-112831547D01*
X147719047Y-112831547D01*
X309297776Y-91324815D02*
X309154919Y-91372434D01*
X308916824Y-91372434D01*
X308821586Y-91324815D01*
X308773967Y-91277196D01*
X308726348Y-91181958D01*
X308726348Y-91086720D01*
X308773967Y-90991482D01*
X308821586Y-90943863D01*
X308916824Y-90896244D01*
X309107300Y-90848625D01*
X309202538Y-90801006D01*
X309250157Y-90753387D01*
X309297776Y-90658149D01*
X309297776Y-90562911D01*
X309250157Y-90467673D01*
X309202538Y-90420054D01*
X309107300Y-90372434D01*
X308869205Y-90372434D01*
X308726348Y-90420054D01*
X308393014Y-90372434D02*
X308154919Y-91372434D01*
X307964443Y-90658149D01*
X307773967Y-91372434D01*
X307535872Y-90372434D01*
X307202538Y-90467673D02*
X307154919Y-90420054D01*
X307059681Y-90372434D01*
X306821586Y-90372434D01*
X306726348Y-90420054D01*
X306678729Y-90467673D01*
X306631110Y-90562911D01*
X306631110Y-90658149D01*
X306678729Y-90801006D01*
X307250157Y-91372434D01*
X306631110Y-91372434D01*
X306250157Y-90467673D02*
X306202538Y-90420054D01*
X306107300Y-90372434D01*
X305869205Y-90372434D01*
X305773967Y-90420054D01*
X305726348Y-90467673D01*
X305678729Y-90562911D01*
X305678729Y-90658149D01*
X305726348Y-90801006D01*
X306297776Y-91372434D01*
X305678729Y-91372434D01*
X335577975Y-79337356D02*
X335435118Y-79384975D01*
X335197023Y-79384975D01*
X335101785Y-79337356D01*
X335054166Y-79289737D01*
X335006547Y-79194499D01*
X335006547Y-79099261D01*
X335054166Y-79004023D01*
X335101785Y-78956404D01*
X335197023Y-78908785D01*
X335387499Y-78861166D01*
X335482737Y-78813547D01*
X335530356Y-78765928D01*
X335577975Y-78670690D01*
X335577975Y-78575452D01*
X335530356Y-78480214D01*
X335482737Y-78432595D01*
X335387499Y-78384975D01*
X335149404Y-78384975D01*
X335006547Y-78432595D01*
X334673213Y-78384975D02*
X334435118Y-79384975D01*
X334244642Y-78670690D01*
X334054166Y-79384975D01*
X333816071Y-78384975D01*
X333482737Y-78480214D02*
X333435118Y-78432595D01*
X333339880Y-78384975D01*
X333101785Y-78384975D01*
X333006547Y-78432595D01*
X332958928Y-78480214D01*
X332911309Y-78575452D01*
X332911309Y-78670690D01*
X332958928Y-78813547D01*
X333530356Y-79384975D01*
X332911309Y-79384975D01*
X331958928Y-79384975D02*
X332530356Y-79384975D01*
X332244642Y-79384975D02*
X332244642Y-78384975D01*
X332339880Y-78527833D01*
X332435118Y-78623071D01*
X332530356Y-78670690D01*
X309297776Y-112964815D02*
X309154919Y-113012434D01*
X308916824Y-113012434D01*
X308821586Y-112964815D01*
X308773967Y-112917196D01*
X308726348Y-112821958D01*
X308726348Y-112726720D01*
X308773967Y-112631482D01*
X308821586Y-112583863D01*
X308916824Y-112536244D01*
X309107300Y-112488625D01*
X309202538Y-112441006D01*
X309250157Y-112393387D01*
X309297776Y-112298149D01*
X309297776Y-112202911D01*
X309250157Y-112107673D01*
X309202538Y-112060054D01*
X309107300Y-112012434D01*
X308869205Y-112012434D01*
X308726348Y-112060054D01*
X308393014Y-112012434D02*
X308154919Y-113012434D01*
X307964443Y-112298149D01*
X307773967Y-113012434D01*
X307535872Y-112012434D01*
X306631110Y-113012434D02*
X307202538Y-113012434D01*
X306916824Y-113012434D02*
X306916824Y-112012434D01*
X307012062Y-112155292D01*
X307107300Y-112250530D01*
X307202538Y-112298149D01*
X306059681Y-112441006D02*
X306154919Y-112393387D01*
X306202538Y-112345768D01*
X306250157Y-112250530D01*
X306250157Y-112202911D01*
X306202538Y-112107673D01*
X306154919Y-112060054D01*
X306059681Y-112012434D01*
X305869205Y-112012434D01*
X305773967Y-112060054D01*
X305726348Y-112107673D01*
X305678729Y-112202911D01*
X305678729Y-112250530D01*
X305726348Y-112345768D01*
X305773967Y-112393387D01*
X305869205Y-112441006D01*
X306059681Y-112441006D01*
X306154919Y-112488625D01*
X306202538Y-112536244D01*
X306250157Y-112631482D01*
X306250157Y-112821958D01*
X306202538Y-112917196D01*
X306154919Y-112964815D01*
X306059681Y-113012434D01*
X305869205Y-113012434D01*
X305773967Y-112964815D01*
X305726348Y-112917196D01*
X305678729Y-112821958D01*
X305678729Y-112631482D01*
X305726348Y-112536244D01*
X305773967Y-112488625D01*
X305869205Y-112441006D01*
X229933333Y-118356011D02*
X229790476Y-118403630D01*
X229552380Y-118403630D01*
X229457142Y-118356011D01*
X229409523Y-118308392D01*
X229361904Y-118213154D01*
X229361904Y-118117916D01*
X229409523Y-118022678D01*
X229457142Y-117975059D01*
X229552380Y-117927440D01*
X229742857Y-117879821D01*
X229838095Y-117832202D01*
X229885714Y-117784583D01*
X229933333Y-117689345D01*
X229933333Y-117594107D01*
X229885714Y-117498869D01*
X229838095Y-117451250D01*
X229742857Y-117403630D01*
X229504761Y-117403630D01*
X229361904Y-117451250D01*
X229028571Y-117403630D02*
X228790476Y-118403630D01*
X228600000Y-117689345D01*
X228409523Y-118403630D01*
X228171428Y-117403630D01*
X227647619Y-117832202D02*
X227742857Y-117784583D01*
X227790476Y-117736964D01*
X227838095Y-117641726D01*
X227838095Y-117594107D01*
X227790476Y-117498869D01*
X227742857Y-117451250D01*
X227647619Y-117403630D01*
X227457142Y-117403630D01*
X227361904Y-117451250D01*
X227314285Y-117498869D01*
X227266666Y-117594107D01*
X227266666Y-117641726D01*
X227314285Y-117736964D01*
X227361904Y-117784583D01*
X227457142Y-117832202D01*
X227647619Y-117832202D01*
X227742857Y-117879821D01*
X227790476Y-117927440D01*
X227838095Y-118022678D01*
X227838095Y-118213154D01*
X227790476Y-118308392D01*
X227742857Y-118356011D01*
X227647619Y-118403630D01*
X227457142Y-118403630D01*
X227361904Y-118356011D01*
X227314285Y-118308392D01*
X227266666Y-118213154D01*
X227266666Y-118022678D01*
X227314285Y-117927440D01*
X227361904Y-117879821D01*
X227457142Y-117832202D01*
X176252936Y-193592024D02*
X176110079Y-193639643D01*
X175871983Y-193639643D01*
X175776745Y-193592024D01*
X175729126Y-193544405D01*
X175681507Y-193449167D01*
X175681507Y-193353929D01*
X175729126Y-193258691D01*
X175776745Y-193211072D01*
X175871983Y-193163453D01*
X176062460Y-193115834D01*
X176157698Y-193068215D01*
X176205317Y-193020596D01*
X176252936Y-192925358D01*
X176252936Y-192830120D01*
X176205317Y-192734882D01*
X176157698Y-192687263D01*
X176062460Y-192639643D01*
X175824364Y-192639643D01*
X175681507Y-192687263D01*
X175348174Y-192639643D02*
X175110079Y-193639643D01*
X174919603Y-192925358D01*
X174729126Y-193639643D01*
X174491031Y-192639643D01*
X173681507Y-192639643D02*
X173871983Y-192639643D01*
X173967222Y-192687263D01*
X174014841Y-192734882D01*
X174110079Y-192877739D01*
X174157698Y-193068215D01*
X174157698Y-193449167D01*
X174110079Y-193544405D01*
X174062460Y-193592024D01*
X173967222Y-193639643D01*
X173776745Y-193639643D01*
X173681507Y-193592024D01*
X173633888Y-193544405D01*
X173586269Y-193449167D01*
X173586269Y-193211072D01*
X173633888Y-193115834D01*
X173681507Y-193068215D01*
X173776745Y-193020596D01*
X173967222Y-193020596D01*
X174062460Y-193068215D01*
X174110079Y-193115834D01*
X174157698Y-193211072D01*
X157227936Y-180271024D02*
X157085079Y-180318643D01*
X156846983Y-180318643D01*
X156751745Y-180271024D01*
X156704126Y-180223405D01*
X156656507Y-180128167D01*
X156656507Y-180032929D01*
X156704126Y-179937691D01*
X156751745Y-179890072D01*
X156846983Y-179842453D01*
X157037460Y-179794834D01*
X157132698Y-179747215D01*
X157180317Y-179699596D01*
X157227936Y-179604358D01*
X157227936Y-179509120D01*
X157180317Y-179413882D01*
X157132698Y-179366263D01*
X157037460Y-179318643D01*
X156799364Y-179318643D01*
X156656507Y-179366263D01*
X156323174Y-179318643D02*
X156085079Y-180318643D01*
X155894603Y-179604358D01*
X155704126Y-180318643D01*
X155466031Y-179318643D01*
X154608888Y-179318643D02*
X155085079Y-179318643D01*
X155132698Y-179794834D01*
X155085079Y-179747215D01*
X154989841Y-179699596D01*
X154751745Y-179699596D01*
X154656507Y-179747215D01*
X154608888Y-179794834D01*
X154561269Y-179890072D01*
X154561269Y-180128167D01*
X154608888Y-180223405D01*
X154656507Y-180271024D01*
X154751745Y-180318643D01*
X154989841Y-180318643D01*
X155085079Y-180271024D01*
X155132698Y-180223405D01*
X363926692Y-82564749D02*
X363783835Y-82612368D01*
X363545740Y-82612368D01*
X363450502Y-82564749D01*
X363402883Y-82517130D01*
X363355264Y-82421892D01*
X363355264Y-82326654D01*
X363402883Y-82231416D01*
X363450502Y-82183797D01*
X363545740Y-82136178D01*
X363736216Y-82088559D01*
X363831454Y-82040940D01*
X363879073Y-81993321D01*
X363926692Y-81898083D01*
X363926692Y-81802845D01*
X363879073Y-81707607D01*
X363831454Y-81659988D01*
X363736216Y-81612368D01*
X363498121Y-81612368D01*
X363355264Y-81659988D01*
X363021930Y-81612368D02*
X362783835Y-82612368D01*
X362593359Y-81898083D01*
X362402883Y-82612368D01*
X362164788Y-81612368D01*
X361831454Y-81707607D02*
X361783835Y-81659988D01*
X361688597Y-81612368D01*
X361450502Y-81612368D01*
X361355264Y-81659988D01*
X361307645Y-81707607D01*
X361260026Y-81802845D01*
X361260026Y-81898083D01*
X361307645Y-82040940D01*
X361879073Y-82612368D01*
X361260026Y-82612368D01*
X360640978Y-81612368D02*
X360545740Y-81612368D01*
X360450502Y-81659988D01*
X360402883Y-81707607D01*
X360355264Y-81802845D01*
X360307645Y-81993321D01*
X360307645Y-82231416D01*
X360355264Y-82421892D01*
X360402883Y-82517130D01*
X360450502Y-82564749D01*
X360545740Y-82612368D01*
X360640978Y-82612368D01*
X360736216Y-82564749D01*
X360783835Y-82517130D01*
X360831454Y-82421892D01*
X360879073Y-82231416D01*
X360879073Y-81993321D01*
X360831454Y-81802845D01*
X360783835Y-81707607D01*
X360736216Y-81659988D01*
X360640978Y-81612368D01*
X390150806Y-98471185D02*
X390007949Y-98518804D01*
X389769854Y-98518804D01*
X389674616Y-98471185D01*
X389626997Y-98423566D01*
X389579378Y-98328328D01*
X389579378Y-98233090D01*
X389626997Y-98137852D01*
X389674616Y-98090233D01*
X389769854Y-98042614D01*
X389960330Y-97994995D01*
X390055568Y-97947376D01*
X390103187Y-97899757D01*
X390150806Y-97804519D01*
X390150806Y-97709281D01*
X390103187Y-97614043D01*
X390055568Y-97566424D01*
X389960330Y-97518804D01*
X389722235Y-97518804D01*
X389579378Y-97566424D01*
X389246044Y-97518804D02*
X389007949Y-98518804D01*
X388817473Y-97804519D01*
X388626997Y-98518804D01*
X388388902Y-97518804D01*
X387484140Y-98518804D02*
X388055568Y-98518804D01*
X387769854Y-98518804D02*
X387769854Y-97518804D01*
X387865092Y-97661662D01*
X387960330Y-97756900D01*
X388055568Y-97804519D01*
X387007949Y-98518804D02*
X386817473Y-98518804D01*
X386722235Y-98471185D01*
X386674616Y-98423566D01*
X386579378Y-98280709D01*
X386531759Y-98090233D01*
X386531759Y-97709281D01*
X386579378Y-97614043D01*
X386626997Y-97566424D01*
X386722235Y-97518804D01*
X386912711Y-97518804D01*
X387007949Y-97566424D01*
X387055568Y-97614043D01*
X387103187Y-97709281D01*
X387103187Y-97947376D01*
X387055568Y-98042614D01*
X387007949Y-98090233D01*
X386912711Y-98137852D01*
X386722235Y-98137852D01*
X386626997Y-98090233D01*
X386579378Y-98042614D01*
X386531759Y-97947376D01*
X283236976Y-193084339D02*
X283094119Y-193131958D01*
X282856024Y-193131958D01*
X282760786Y-193084339D01*
X282713167Y-193036720D01*
X282665548Y-192941482D01*
X282665548Y-192846244D01*
X282713167Y-192751006D01*
X282760786Y-192703387D01*
X282856024Y-192655768D01*
X283046500Y-192608149D01*
X283141738Y-192560530D01*
X283189357Y-192512911D01*
X283236976Y-192417673D01*
X283236976Y-192322435D01*
X283189357Y-192227197D01*
X283141738Y-192179578D01*
X283046500Y-192131958D01*
X282808405Y-192131958D01*
X282665548Y-192179578D01*
X282332214Y-192131958D02*
X282094119Y-193131958D01*
X281903643Y-192417673D01*
X281713167Y-193131958D01*
X281475072Y-192131958D01*
X280570310Y-193131958D02*
X281141738Y-193131958D01*
X280856024Y-193131958D02*
X280856024Y-192131958D01*
X280951262Y-192274816D01*
X281046500Y-192370054D01*
X281141738Y-192417673D01*
X279951262Y-192131958D02*
X279856024Y-192131958D01*
X279760786Y-192179578D01*
X279713167Y-192227197D01*
X279665548Y-192322435D01*
X279617929Y-192512911D01*
X279617929Y-192751006D01*
X279665548Y-192941482D01*
X279713167Y-193036720D01*
X279760786Y-193084339D01*
X279856024Y-193131958D01*
X279951262Y-193131958D01*
X280046500Y-193084339D01*
X280094119Y-193036720D01*
X280141738Y-192941482D01*
X280189357Y-192751006D01*
X280189357Y-192512911D01*
X280141738Y-192322435D01*
X280094119Y-192227197D01*
X280046500Y-192179578D01*
X279951262Y-192131958D01*
X302261976Y-179763339D02*
X302119119Y-179810958D01*
X301881024Y-179810958D01*
X301785786Y-179763339D01*
X301738167Y-179715720D01*
X301690548Y-179620482D01*
X301690548Y-179525244D01*
X301738167Y-179430006D01*
X301785786Y-179382387D01*
X301881024Y-179334768D01*
X302071500Y-179287149D01*
X302166738Y-179239530D01*
X302214357Y-179191911D01*
X302261976Y-179096673D01*
X302261976Y-179001435D01*
X302214357Y-178906197D01*
X302166738Y-178858578D01*
X302071500Y-178810958D01*
X301833405Y-178810958D01*
X301690548Y-178858578D01*
X301357214Y-178810958D02*
X301119119Y-179810958D01*
X300928643Y-179096673D01*
X300738167Y-179810958D01*
X300500072Y-178810958D01*
X299595310Y-179810958D02*
X300166738Y-179810958D01*
X299881024Y-179810958D02*
X299881024Y-178810958D01*
X299976262Y-178953816D01*
X300071500Y-179049054D01*
X300166738Y-179096673D01*
X299214357Y-178906197D02*
X299166738Y-178858578D01*
X299071500Y-178810958D01*
X298833405Y-178810958D01*
X298738167Y-178858578D01*
X298690548Y-178906197D01*
X298642929Y-179001435D01*
X298642929Y-179096673D01*
X298690548Y-179239530D01*
X299261976Y-179810958D01*
X298642929Y-179810958D01*
X321286976Y-166442339D02*
X321144119Y-166489958D01*
X320906024Y-166489958D01*
X320810786Y-166442339D01*
X320763167Y-166394720D01*
X320715548Y-166299482D01*
X320715548Y-166204244D01*
X320763167Y-166109006D01*
X320810786Y-166061387D01*
X320906024Y-166013768D01*
X321096500Y-165966149D01*
X321191738Y-165918530D01*
X321239357Y-165870911D01*
X321286976Y-165775673D01*
X321286976Y-165680435D01*
X321239357Y-165585197D01*
X321191738Y-165537578D01*
X321096500Y-165489958D01*
X320858405Y-165489958D01*
X320715548Y-165537578D01*
X320382214Y-165489958D02*
X320144119Y-166489958D01*
X319953643Y-165775673D01*
X319763167Y-166489958D01*
X319525072Y-165489958D01*
X318620310Y-166489958D02*
X319191738Y-166489958D01*
X318906024Y-166489958D02*
X318906024Y-165489958D01*
X319001262Y-165632816D01*
X319096500Y-165728054D01*
X319191738Y-165775673D01*
X317763167Y-165823292D02*
X317763167Y-166489958D01*
X318001262Y-165442339D02*
X318239357Y-166156625D01*
X317620310Y-166156625D01*
X283236976Y-166442339D02*
X283094119Y-166489958D01*
X282856024Y-166489958D01*
X282760786Y-166442339D01*
X282713167Y-166394720D01*
X282665548Y-166299482D01*
X282665548Y-166204244D01*
X282713167Y-166109006D01*
X282760786Y-166061387D01*
X282856024Y-166013768D01*
X283046500Y-165966149D01*
X283141738Y-165918530D01*
X283189357Y-165870911D01*
X283236976Y-165775673D01*
X283236976Y-165680435D01*
X283189357Y-165585197D01*
X283141738Y-165537578D01*
X283046500Y-165489958D01*
X282808405Y-165489958D01*
X282665548Y-165537578D01*
X282332214Y-165489958D02*
X282094119Y-166489958D01*
X281903643Y-165775673D01*
X281713167Y-166489958D01*
X281475072Y-165489958D01*
X280570310Y-166489958D02*
X281141738Y-166489958D01*
X280856024Y-166489958D02*
X280856024Y-165489958D01*
X280951262Y-165632816D01*
X281046500Y-165728054D01*
X281141738Y-165775673D01*
X279617929Y-166489958D02*
X280189357Y-166489958D01*
X279903643Y-166489958D02*
X279903643Y-165489958D01*
X279998881Y-165632816D01*
X280094119Y-165728054D01*
X280189357Y-165775673D01*
X302261976Y-153121339D02*
X302119119Y-153168958D01*
X301881024Y-153168958D01*
X301785786Y-153121339D01*
X301738167Y-153073720D01*
X301690548Y-152978482D01*
X301690548Y-152883244D01*
X301738167Y-152788006D01*
X301785786Y-152740387D01*
X301881024Y-152692768D01*
X302071500Y-152645149D01*
X302166738Y-152597530D01*
X302214357Y-152549911D01*
X302261976Y-152454673D01*
X302261976Y-152359435D01*
X302214357Y-152264197D01*
X302166738Y-152216578D01*
X302071500Y-152168958D01*
X301833405Y-152168958D01*
X301690548Y-152216578D01*
X301357214Y-152168958D02*
X301119119Y-153168958D01*
X300928643Y-152454673D01*
X300738167Y-153168958D01*
X300500072Y-152168958D01*
X299595310Y-153168958D02*
X300166738Y-153168958D01*
X299881024Y-153168958D02*
X299881024Y-152168958D01*
X299976262Y-152311816D01*
X300071500Y-152407054D01*
X300166738Y-152454673D01*
X299261976Y-152168958D02*
X298642929Y-152168958D01*
X298976262Y-152549911D01*
X298833405Y-152549911D01*
X298738167Y-152597530D01*
X298690548Y-152645149D01*
X298642929Y-152740387D01*
X298642929Y-152978482D01*
X298690548Y-153073720D01*
X298738167Y-153121339D01*
X298833405Y-153168958D01*
X299119119Y-153168958D01*
X299214357Y-153121339D01*
X299261976Y-153073720D01*
X390150806Y-120111185D02*
X390007949Y-120158804D01*
X389769854Y-120158804D01*
X389674616Y-120111185D01*
X389626997Y-120063566D01*
X389579378Y-119968328D01*
X389579378Y-119873090D01*
X389626997Y-119777852D01*
X389674616Y-119730233D01*
X389769854Y-119682614D01*
X389960330Y-119634995D01*
X390055568Y-119587376D01*
X390103187Y-119539757D01*
X390150806Y-119444519D01*
X390150806Y-119349281D01*
X390103187Y-119254043D01*
X390055568Y-119206424D01*
X389960330Y-119158804D01*
X389722235Y-119158804D01*
X389579378Y-119206424D01*
X389246044Y-119158804D02*
X389007949Y-120158804D01*
X388817473Y-119444519D01*
X388626997Y-120158804D01*
X388388902Y-119158804D01*
X387484140Y-120158804D02*
X388055568Y-120158804D01*
X387769854Y-120158804D02*
X387769854Y-119158804D01*
X387865092Y-119301662D01*
X387960330Y-119396900D01*
X388055568Y-119444519D01*
X386579378Y-119158804D02*
X387055568Y-119158804D01*
X387103187Y-119634995D01*
X387055568Y-119587376D01*
X386960330Y-119539757D01*
X386722235Y-119539757D01*
X386626997Y-119587376D01*
X386579378Y-119634995D01*
X386531759Y-119730233D01*
X386531759Y-119968328D01*
X386579378Y-120063566D01*
X386626997Y-120111185D01*
X386722235Y-120158804D01*
X386960330Y-120158804D01*
X387055568Y-120111185D01*
X387103187Y-120063566D01*
X363926692Y-104204749D02*
X363783835Y-104252368D01*
X363545740Y-104252368D01*
X363450502Y-104204749D01*
X363402883Y-104157130D01*
X363355264Y-104061892D01*
X363355264Y-103966654D01*
X363402883Y-103871416D01*
X363450502Y-103823797D01*
X363545740Y-103776178D01*
X363736216Y-103728559D01*
X363831454Y-103680940D01*
X363879073Y-103633321D01*
X363926692Y-103538083D01*
X363926692Y-103442845D01*
X363879073Y-103347607D01*
X363831454Y-103299988D01*
X363736216Y-103252368D01*
X363498121Y-103252368D01*
X363355264Y-103299988D01*
X363021930Y-103252368D02*
X362783835Y-104252368D01*
X362593359Y-103538083D01*
X362402883Y-104252368D01*
X362164788Y-103252368D01*
X361260026Y-104252368D02*
X361831454Y-104252368D01*
X361545740Y-104252368D02*
X361545740Y-103252368D01*
X361640978Y-103395226D01*
X361736216Y-103490464D01*
X361831454Y-103538083D01*
X360402883Y-103252368D02*
X360593359Y-103252368D01*
X360688597Y-103299988D01*
X360736216Y-103347607D01*
X360831454Y-103490464D01*
X360879073Y-103680940D01*
X360879073Y-104061892D01*
X360831454Y-104157130D01*
X360783835Y-104204749D01*
X360688597Y-104252368D01*
X360498121Y-104252368D01*
X360402883Y-104204749D01*
X360355264Y-104157130D01*
X360307645Y-104061892D01*
X360307645Y-103823797D01*
X360355264Y-103728559D01*
X360402883Y-103680940D01*
X360498121Y-103633321D01*
X360688597Y-103633321D01*
X360783835Y-103680940D01*
X360831454Y-103728559D01*
X360879073Y-103823797D01*
X335577975Y-100977356D02*
X335435118Y-101024975D01*
X335197023Y-101024975D01*
X335101785Y-100977356D01*
X335054166Y-100929737D01*
X335006547Y-100834499D01*
X335006547Y-100739261D01*
X335054166Y-100644023D01*
X335101785Y-100596404D01*
X335197023Y-100548785D01*
X335387499Y-100501166D01*
X335482737Y-100453547D01*
X335530356Y-100405928D01*
X335577975Y-100310690D01*
X335577975Y-100215452D01*
X335530356Y-100120214D01*
X335482737Y-100072595D01*
X335387499Y-100024975D01*
X335149404Y-100024975D01*
X335006547Y-100072595D01*
X334673213Y-100024975D02*
X334435118Y-101024975D01*
X334244642Y-100310690D01*
X334054166Y-101024975D01*
X333816071Y-100024975D01*
X332911309Y-101024975D02*
X333482737Y-101024975D01*
X333197023Y-101024975D02*
X333197023Y-100024975D01*
X333292261Y-100167833D01*
X333387499Y-100263071D01*
X333482737Y-100310690D01*
X332577975Y-100024975D02*
X331911309Y-100024975D01*
X332339880Y-101024975D01*
X70761814Y-120818112D02*
X70618957Y-120865731D01*
X70380861Y-120865731D01*
X70285623Y-120818112D01*
X70238004Y-120770493D01*
X70190385Y-120675255D01*
X70190385Y-120580017D01*
X70238004Y-120484779D01*
X70285623Y-120437160D01*
X70380861Y-120389541D01*
X70571338Y-120341922D01*
X70666576Y-120294303D01*
X70714195Y-120246684D01*
X70761814Y-120151446D01*
X70761814Y-120056208D01*
X70714195Y-119960970D01*
X70666576Y-119913351D01*
X70571338Y-119865731D01*
X70333242Y-119865731D01*
X70190385Y-119913351D01*
X69857052Y-119865731D02*
X69618957Y-120865731D01*
X69428481Y-120151446D01*
X69238004Y-120865731D01*
X68999909Y-119865731D01*
X68095147Y-120865731D02*
X68666576Y-120865731D01*
X68380861Y-120865731D02*
X68380861Y-119865731D01*
X68476100Y-120008589D01*
X68571338Y-120103827D01*
X68666576Y-120151446D01*
X92294945Y-119088868D02*
X92294945Y-120088868D01*
X90484945Y-105403868D02*
X99374945Y-105403868D01*
X87294945Y-117988868D02*
X87294945Y-118588868D01*
X99374945Y-105403868D02*
X99374945Y-105784868D01*
X91794945Y-114588868D02*
X91794945Y-113888868D01*
X96294945Y-120088868D02*
X95794945Y-120588868D01*
X88325945Y-111753868D02*
X87944945Y-111753868D01*
X87294945Y-113888868D02*
X87294945Y-114388868D01*
X95794945Y-116088868D02*
X93294945Y-116088868D01*
X87944945Y-107943868D02*
X87944945Y-108324868D01*
X99374945Y-109848868D02*
X94294945Y-109848868D01*
X95794945Y-120588868D02*
X92794945Y-120588868D01*
X87294945Y-118588868D02*
X91794945Y-118588868D01*
X99374945Y-108832868D02*
X99374945Y-109848868D01*
X91794945Y-113888868D02*
X87294945Y-113888868D01*
X91830783Y-111753868D02*
X90103945Y-111753868D01*
X87944945Y-111372868D02*
X87944945Y-111753868D01*
X92794945Y-120588868D02*
X92294945Y-120088868D01*
X96294945Y-116588868D02*
X95794945Y-116088868D01*
X92294945Y-119088868D02*
G75*
G03*
X91794945Y-118588868I-500001J-1D01*
G01*
X91794945Y-114588868D02*
G75*
G03*
X93294945Y-116088868I1500001J1D01*
G01*
X90484945Y-105403868D02*
G75*
G03*
X87944945Y-107943868I1J-2540001D01*
G01*
X94294945Y-109848867D02*
G75*
G03*
X91830783Y-111772828I0J-2540000D01*
G01*
X127998213Y-102213028D02*
X127998213Y-102594028D01*
X124918213Y-116898028D02*
X124418213Y-117398028D01*
X120918213Y-115898028D02*
X120918213Y-116898028D01*
X116568213Y-104753028D02*
X116568213Y-105134028D01*
X121418213Y-117398028D02*
X120918213Y-116898028D01*
X120418213Y-111398028D02*
X120418213Y-110698028D01*
X120454051Y-108563028D02*
X118727213Y-108563028D01*
X127998213Y-105642028D02*
X127998213Y-106658028D01*
X124418213Y-112898028D02*
X121918213Y-112898028D01*
X127998213Y-106658028D02*
X122918213Y-106658028D01*
X124918213Y-113398028D02*
X124418213Y-112898028D01*
X115918213Y-114798028D02*
X115918213Y-115398028D01*
X115918213Y-110698028D02*
X115918213Y-111198028D01*
X124418213Y-117398028D02*
X121418213Y-117398028D01*
X116568213Y-108182028D02*
X116568213Y-108563028D01*
X120418213Y-110698028D02*
X115918213Y-110698028D01*
X116949213Y-108563028D02*
X116568213Y-108563028D01*
X115918213Y-115398028D02*
X120418213Y-115398028D01*
X119108213Y-102213028D02*
X127998213Y-102213028D01*
X120918213Y-115898028D02*
G75*
G03*
X120418213Y-115398028I-500001J-1D01*
G01*
X120418213Y-111398028D02*
G75*
G03*
X121918213Y-112898028I1500001J1D01*
G01*
X119108213Y-102213028D02*
G75*
G03*
X116568213Y-104753028I1J-2540001D01*
G01*
X122918213Y-106658027D02*
G75*
G03*
X120454051Y-108581988I0J-2540000D01*
G01*
X145290000Y-113982500D02*
X154180000Y-113982500D01*
X142100000Y-122467500D02*
X142100000Y-122967500D01*
X150600000Y-129167500D02*
X147600000Y-129167500D01*
X142750000Y-119951500D02*
X142750000Y-120332500D01*
X142100000Y-126567500D02*
X142100000Y-127167500D01*
X154180000Y-117411500D02*
X154180000Y-118427500D01*
X146635838Y-120332500D02*
X144909000Y-120332500D01*
X142750000Y-116522500D02*
X142750000Y-116903500D01*
X147100000Y-127667500D02*
X147100000Y-128667500D01*
X147600000Y-129167500D02*
X147100000Y-128667500D01*
X151100000Y-125167500D02*
X150600000Y-124667500D01*
X146600000Y-122467500D02*
X142100000Y-122467500D01*
X151100000Y-128667500D02*
X150600000Y-129167500D01*
X146600000Y-123167500D02*
X146600000Y-122467500D01*
X154180000Y-118427500D02*
X149100000Y-118427500D01*
X143131000Y-120332500D02*
X142750000Y-120332500D01*
X142100000Y-127167500D02*
X146600000Y-127167500D01*
X150600000Y-124667500D02*
X148100000Y-124667500D01*
X154180000Y-113982500D02*
X154180000Y-114363500D01*
X147100000Y-127667500D02*
G75*
G03*
X146600000Y-127167500I-500001J-1D01*
G01*
X145290000Y-113982500D02*
G75*
G03*
X142750000Y-116522500I1J-2540001D01*
G01*
X146600000Y-123167500D02*
G75*
G03*
X148100000Y-124667500I1500001J1D01*
G01*
X149100000Y-118427499D02*
G75*
G03*
X146635838Y-120351460I0J-2540000D01*
G01*
X312568253Y-96635054D02*
X307488253Y-96635054D01*
X305024091Y-98540054D02*
X303297253Y-98540054D01*
X300488253Y-104775054D02*
X300488253Y-105375054D01*
X300488253Y-100675054D02*
X300488253Y-101175054D01*
X305488253Y-105875054D02*
X305488253Y-106875054D01*
X300488253Y-105375054D02*
X304988253Y-105375054D01*
X309488253Y-106875054D02*
X308988253Y-107375054D01*
X304988253Y-100675054D02*
X300488253Y-100675054D01*
X308988253Y-102875054D02*
X306488253Y-102875054D01*
X301138253Y-98159054D02*
X301138253Y-98540054D01*
X301138253Y-94730054D02*
X301138253Y-95111054D01*
X308988253Y-107375054D02*
X305988253Y-107375054D01*
X304988253Y-101375054D02*
X304988253Y-100675054D01*
X312568253Y-92190054D02*
X312568253Y-92571054D01*
X301519253Y-98540054D02*
X301138253Y-98540054D01*
X305988253Y-107375054D02*
X305488253Y-106875054D01*
X303678253Y-92190054D02*
X312568253Y-92190054D01*
X312568253Y-95619054D02*
X312568253Y-96635054D01*
X309488253Y-103375054D02*
X308988253Y-102875054D01*
X303678253Y-92190054D02*
G75*
G03*
X301138253Y-94730054I1J-2540001D01*
G01*
X307488253Y-96635053D02*
G75*
G03*
X305024091Y-98559014I0J-2540000D01*
G01*
X305488253Y-105875054D02*
G75*
G03*
X304988253Y-105375054I-500001J-1D01*
G01*
X304988253Y-101375054D02*
G75*
G03*
X306488253Y-102875054I1500001J1D01*
G01*
X326768452Y-93387595D02*
X331268452Y-93387595D01*
X332268452Y-95387595D02*
X331768452Y-94887595D01*
X327799452Y-86552595D02*
X327418452Y-86552595D01*
X326768452Y-92787595D02*
X326768452Y-93387595D01*
X327418452Y-82742595D02*
X327418452Y-83123595D01*
X335768452Y-94887595D02*
X335268452Y-95387595D01*
X335268452Y-95387595D02*
X332268452Y-95387595D01*
X331268452Y-89387595D02*
X331268452Y-88687595D01*
X327418452Y-86171595D02*
X327418452Y-86552595D01*
X326768452Y-88687595D02*
X326768452Y-89187595D01*
X331268452Y-88687595D02*
X326768452Y-88687595D01*
X331304290Y-86552595D02*
X329577452Y-86552595D01*
X331768452Y-93887595D02*
X331768452Y-94887595D01*
X329958452Y-80202595D02*
X338848452Y-80202595D01*
X335268452Y-90887595D02*
X332768452Y-90887595D01*
X338848452Y-80202595D02*
X338848452Y-80583595D01*
X338848452Y-83631595D02*
X338848452Y-84647595D01*
X335768452Y-91387595D02*
X335268452Y-90887595D01*
X338848452Y-84647595D02*
X333768452Y-84647595D01*
X333768452Y-84647594D02*
G75*
G03*
X331304290Y-86571555I0J-2540000D01*
G01*
X331768452Y-93887595D02*
G75*
G03*
X331268452Y-93387595I-500001J-1D01*
G01*
X329958452Y-80202595D02*
G75*
G03*
X327418452Y-82742595I1J-2540001D01*
G01*
X331268452Y-89387595D02*
G75*
G03*
X332768452Y-90887595I1500001J1D01*
G01*
X308988253Y-124515054D02*
X306488253Y-124515054D01*
X300488253Y-126415054D02*
X300488253Y-127015054D01*
X300488253Y-127015054D02*
X304988253Y-127015054D01*
X303678253Y-113830054D02*
X312568253Y-113830054D01*
X301138253Y-116370054D02*
X301138253Y-116751054D01*
X309488253Y-128515054D02*
X308988253Y-129015054D01*
X305488253Y-127515054D02*
X305488253Y-128515054D01*
X301519253Y-120180054D02*
X301138253Y-120180054D01*
X304988253Y-122315054D02*
X300488253Y-122315054D01*
X300488253Y-122315054D02*
X300488253Y-122815054D01*
X312568253Y-118275054D02*
X307488253Y-118275054D01*
X309488253Y-125015054D02*
X308988253Y-124515054D01*
X312568253Y-113830054D02*
X312568253Y-114211054D01*
X305988253Y-129015054D02*
X305488253Y-128515054D01*
X312568253Y-117259054D02*
X312568253Y-118275054D01*
X301138253Y-119799054D02*
X301138253Y-120180054D01*
X308988253Y-129015054D02*
X305988253Y-129015054D01*
X304988253Y-123015054D02*
X304988253Y-122315054D01*
X305024091Y-120180054D02*
X303297253Y-120180054D01*
X304988253Y-123015054D02*
G75*
G03*
X306488253Y-124515054I1500001J1D01*
G01*
X303678253Y-113830054D02*
G75*
G03*
X301138253Y-116370054I1J-2540001D01*
G01*
X307488253Y-118275053D02*
G75*
G03*
X305024091Y-120199014I0J-2540000D01*
G01*
X305488253Y-127515054D02*
G75*
G03*
X304988253Y-127015054I-500001J-1D01*
G01*
X233680000Y-122650250D02*
X233680000Y-123666250D01*
X222631000Y-125571250D02*
X222250000Y-125571250D01*
X230600000Y-133906250D02*
X230100000Y-134406250D01*
X226135838Y-125571250D02*
X224409000Y-125571250D01*
X230600000Y-130406250D02*
X230100000Y-129906250D01*
X226100000Y-128406250D02*
X226100000Y-127706250D01*
X230100000Y-134406250D02*
X227100000Y-134406250D01*
X233680000Y-119221250D02*
X233680000Y-119602250D01*
X230100000Y-129906250D02*
X227600000Y-129906250D01*
X233680000Y-123666250D02*
X228600000Y-123666250D01*
X222250000Y-125190250D02*
X222250000Y-125571250D01*
X221600000Y-131806250D02*
X221600000Y-132406250D01*
X226600000Y-132906250D02*
X226600000Y-133906250D01*
X227100000Y-134406250D02*
X226600000Y-133906250D01*
X222250000Y-121761250D02*
X222250000Y-122142250D01*
X221600000Y-132406250D02*
X226100000Y-132406250D01*
X226100000Y-127706250D02*
X221600000Y-127706250D01*
X224790000Y-119221250D02*
X233680000Y-119221250D01*
X221600000Y-127706250D02*
X221600000Y-128206250D01*
X226100000Y-128406250D02*
G75*
G03*
X227600000Y-129906250I1500001J1D01*
G01*
X224790000Y-119221250D02*
G75*
G03*
X222250000Y-121761250I1J-2540001D01*
G01*
X228600000Y-123666249D02*
G75*
G03*
X226135838Y-125590210I0J-2540000D01*
G01*
X226600000Y-132906250D02*
G75*
G03*
X226100000Y-132406250I-500001J-1D01*
G01*
X176419603Y-205142263D02*
X173919603Y-205142263D01*
X176919603Y-205642263D02*
X176419603Y-205142263D01*
X176419603Y-209642263D02*
X173419603Y-209642263D01*
X167919603Y-207642263D02*
X172419603Y-207642263D01*
X179999603Y-198902263D02*
X174919603Y-198902263D01*
X172419603Y-203642263D02*
X172419603Y-202942263D01*
X168569603Y-196997263D02*
X168569603Y-197378263D01*
X172455441Y-200807263D02*
X170728603Y-200807263D01*
X172419603Y-202942263D02*
X167919603Y-202942263D01*
X179999603Y-197886263D02*
X179999603Y-198902263D01*
X172919603Y-208142263D02*
X172919603Y-209142263D01*
X171109603Y-194457263D02*
X179999603Y-194457263D01*
X167919603Y-202942263D02*
X167919603Y-203442263D01*
X179999603Y-194457263D02*
X179999603Y-194838263D01*
X168569603Y-200426263D02*
X168569603Y-200807263D01*
X167919603Y-207042263D02*
X167919603Y-207642263D01*
X173419603Y-209642263D02*
X172919603Y-209142263D01*
X168950603Y-200807263D02*
X168569603Y-200807263D01*
X176919603Y-209142263D02*
X176419603Y-209642263D01*
X171109603Y-194457263D02*
G75*
G03*
X168569603Y-196997263I1J-2540001D01*
G01*
X172419603Y-203642263D02*
G75*
G03*
X173919603Y-205142263I1500001J1D01*
G01*
X172919603Y-208142263D02*
G75*
G03*
X172419603Y-207642263I-500001J-1D01*
G01*
X174919603Y-198902262D02*
G75*
G03*
X172455441Y-200826223I0J-2540000D01*
G01*
X160974603Y-184565263D02*
X160974603Y-185581263D01*
X153394603Y-189621263D02*
X148894603Y-189621263D01*
X149544603Y-187105263D02*
X149544603Y-187486263D01*
X148894603Y-194321263D02*
X153394603Y-194321263D01*
X148894603Y-189621263D02*
X148894603Y-190121263D01*
X160974603Y-181136263D02*
X160974603Y-181517263D01*
X148894603Y-193721263D02*
X148894603Y-194321263D01*
X153894603Y-194821263D02*
X153894603Y-195821263D01*
X152084603Y-181136263D02*
X160974603Y-181136263D01*
X154394603Y-196321263D02*
X153894603Y-195821263D01*
X153394603Y-190321263D02*
X153394603Y-189621263D01*
X160974603Y-185581263D02*
X155894603Y-185581263D01*
X157894603Y-195821263D02*
X157394603Y-196321263D01*
X149544603Y-183676263D02*
X149544603Y-184057263D01*
X149925603Y-187486263D02*
X149544603Y-187486263D01*
X157394603Y-191821263D02*
X154894603Y-191821263D01*
X157394603Y-196321263D02*
X154394603Y-196321263D01*
X157894603Y-192321263D02*
X157394603Y-191821263D01*
X153430441Y-187486263D02*
X151703603Y-187486263D01*
X155894603Y-185581262D02*
G75*
G03*
X153430441Y-187505223I0J-2540000D01*
G01*
X153394603Y-190321263D02*
G75*
G03*
X154894603Y-191821263I1500001J1D01*
G01*
X153894603Y-194821263D02*
G75*
G03*
X153394603Y-194321263I-500001J-1D01*
G01*
X152084603Y-181136263D02*
G75*
G03*
X149544603Y-183676263I1J-2540001D01*
G01*
X359617169Y-91914988D02*
X355117169Y-91914988D01*
X355117169Y-91914988D02*
X355117169Y-92414988D01*
X367197169Y-87874988D02*
X362117169Y-87874988D01*
X364117169Y-94614988D02*
X363617169Y-94114988D01*
X359653007Y-89779988D02*
X357926169Y-89779988D01*
X358307169Y-83429988D02*
X367197169Y-83429988D01*
X355767169Y-89398988D02*
X355767169Y-89779988D01*
X356148169Y-89779988D02*
X355767169Y-89779988D01*
X363617169Y-98614988D02*
X360617169Y-98614988D01*
X355117169Y-96014988D02*
X355117169Y-96614988D01*
X363617169Y-94114988D02*
X361117169Y-94114988D01*
X360117169Y-97114988D02*
X360117169Y-98114988D01*
X367197169Y-86858988D02*
X367197169Y-87874988D01*
X367197169Y-83429988D02*
X367197169Y-83810988D01*
X359617169Y-92614988D02*
X359617169Y-91914988D01*
X355767169Y-85969988D02*
X355767169Y-86350988D01*
X360617169Y-98614988D02*
X360117169Y-98114988D01*
X364117169Y-98114988D02*
X363617169Y-98614988D01*
X355117169Y-96614988D02*
X359617169Y-96614988D01*
X359617169Y-92614988D02*
G75*
G03*
X361117169Y-94114988I1500001J1D01*
G01*
X358307169Y-83429988D02*
G75*
G03*
X355767169Y-85969988I1J-2540001D01*
G01*
X360117169Y-97114988D02*
G75*
G03*
X359617169Y-96614988I-500001J-1D01*
G01*
X362117169Y-87874987D02*
G75*
G03*
X359653007Y-89798948I0J-2540000D01*
G01*
X385841283Y-107821424D02*
X381341283Y-107821424D01*
X386841283Y-114521424D02*
X386341283Y-114021424D01*
X385877121Y-105686424D02*
X384150283Y-105686424D01*
X389841283Y-110021424D02*
X387341283Y-110021424D01*
X381991283Y-105305424D02*
X381991283Y-105686424D01*
X389841283Y-114521424D02*
X386841283Y-114521424D01*
X381991283Y-101876424D02*
X381991283Y-102257424D01*
X390341283Y-114021424D02*
X389841283Y-114521424D01*
X385841283Y-108521424D02*
X385841283Y-107821424D01*
X381341283Y-107821424D02*
X381341283Y-108321424D01*
X393421283Y-103781424D02*
X388341283Y-103781424D01*
X393421283Y-102765424D02*
X393421283Y-103781424D01*
X384531283Y-99336424D02*
X393421283Y-99336424D01*
X390341283Y-110521424D02*
X389841283Y-110021424D01*
X381341283Y-111921424D02*
X381341283Y-112521424D01*
X382372283Y-105686424D02*
X381991283Y-105686424D01*
X393421283Y-99336424D02*
X393421283Y-99717424D01*
X381341283Y-112521424D02*
X385841283Y-112521424D01*
X386341283Y-113021424D02*
X386341283Y-114021424D01*
X385841283Y-108521424D02*
G75*
G03*
X387341283Y-110021424I1500001J1D01*
G01*
X388341283Y-103781423D02*
G75*
G03*
X385877121Y-105705384I0J-2540000D01*
G01*
X386341283Y-113021424D02*
G75*
G03*
X385841283Y-112521424I-500001J-1D01*
G01*
X384531283Y-99336424D02*
G75*
G03*
X381991283Y-101876424I1J-2540001D01*
G01*
X278963291Y-200299578D02*
X277236453Y-200299578D01*
X286507453Y-198394578D02*
X281427453Y-198394578D01*
X274427453Y-202434578D02*
X274427453Y-202934578D01*
X274427453Y-206534578D02*
X274427453Y-207134578D01*
X275458453Y-200299578D02*
X275077453Y-200299578D01*
X277617453Y-193949578D02*
X286507453Y-193949578D01*
X286507453Y-193949578D02*
X286507453Y-194330578D01*
X283427453Y-205134578D02*
X282927453Y-204634578D01*
X275077453Y-199918578D02*
X275077453Y-200299578D01*
X286507453Y-197378578D02*
X286507453Y-198394578D01*
X279927453Y-209134578D02*
X279427453Y-208634578D01*
X275077453Y-196489578D02*
X275077453Y-196870578D01*
X278927453Y-203134578D02*
X278927453Y-202434578D01*
X278927453Y-202434578D02*
X274427453Y-202434578D01*
X279427453Y-207634578D02*
X279427453Y-208634578D01*
X283427453Y-208634578D02*
X282927453Y-209134578D01*
X274427453Y-207134578D02*
X278927453Y-207134578D01*
X282927453Y-204634578D02*
X280427453Y-204634578D01*
X282927453Y-209134578D02*
X279927453Y-209134578D01*
X281427453Y-198394577D02*
G75*
G03*
X278963291Y-200318538I0J-2540000D01*
G01*
X277617453Y-193949578D02*
G75*
G03*
X275077453Y-196489578I1J-2540001D01*
G01*
X279427453Y-207634578D02*
G75*
G03*
X278927453Y-207134578I-500001J-1D01*
G01*
X278927453Y-203134578D02*
G75*
G03*
X280427453Y-204634578I1500001J1D01*
G01*
X297988291Y-186978578D02*
X296261453Y-186978578D01*
X302452453Y-195313578D02*
X301952453Y-195813578D01*
X301952453Y-195813578D02*
X298952453Y-195813578D01*
X297952453Y-189113578D02*
X293452453Y-189113578D01*
X301952453Y-191313578D02*
X299452453Y-191313578D01*
X305532453Y-180628578D02*
X305532453Y-181009578D01*
X293452453Y-189113578D02*
X293452453Y-189613578D01*
X293452453Y-193213578D02*
X293452453Y-193813578D01*
X294102453Y-183168578D02*
X294102453Y-183549578D01*
X305532453Y-185073578D02*
X300452453Y-185073578D01*
X297952453Y-189813578D02*
X297952453Y-189113578D01*
X305532453Y-184057578D02*
X305532453Y-185073578D01*
X298452453Y-194313578D02*
X298452453Y-195313578D01*
X298952453Y-195813578D02*
X298452453Y-195313578D01*
X302452453Y-191813578D02*
X301952453Y-191313578D01*
X293452453Y-193813578D02*
X297952453Y-193813578D01*
X294102453Y-186597578D02*
X294102453Y-186978578D01*
X294483453Y-186978578D02*
X294102453Y-186978578D01*
X296642453Y-180628578D02*
X305532453Y-180628578D01*
X298452453Y-194313578D02*
G75*
G03*
X297952453Y-193813578I-500001J-1D01*
G01*
X296642453Y-180628578D02*
G75*
G03*
X294102453Y-183168578I1J-2540001D01*
G01*
X297952453Y-189813578D02*
G75*
G03*
X299452453Y-191313578I1500001J1D01*
G01*
X300452453Y-185073577D02*
G75*
G03*
X297988291Y-186997538I0J-2540000D01*
G01*
X315667453Y-167307578D02*
X324557453Y-167307578D01*
X320977453Y-177992578D02*
X318477453Y-177992578D01*
X321477453Y-181992578D02*
X320977453Y-182492578D01*
X312477453Y-179892578D02*
X312477453Y-180492578D01*
X324557453Y-170736578D02*
X324557453Y-171752578D01*
X317977453Y-182492578D02*
X317477453Y-181992578D01*
X321477453Y-178492578D02*
X320977453Y-177992578D01*
X313508453Y-173657578D02*
X313127453Y-173657578D01*
X312477453Y-180492578D02*
X316977453Y-180492578D01*
X316977453Y-175792578D02*
X312477453Y-175792578D01*
X312477453Y-175792578D02*
X312477453Y-176292578D01*
X320977453Y-182492578D02*
X317977453Y-182492578D01*
X313127453Y-173276578D02*
X313127453Y-173657578D01*
X317477453Y-180992578D02*
X317477453Y-181992578D01*
X324557453Y-171752578D02*
X319477453Y-171752578D01*
X324557453Y-167307578D02*
X324557453Y-167688578D01*
X313127453Y-169847578D02*
X313127453Y-170228578D01*
X316977453Y-176492578D02*
X316977453Y-175792578D01*
X317013291Y-173657578D02*
X315286453Y-173657578D01*
X315667453Y-167307578D02*
G75*
G03*
X313127453Y-169847578I1J-2540001D01*
G01*
X319477453Y-171752577D02*
G75*
G03*
X317013291Y-173676538I0J-2540000D01*
G01*
X317477453Y-180992578D02*
G75*
G03*
X316977453Y-180492578I-500001J-1D01*
G01*
X316977453Y-176492578D02*
G75*
G03*
X318477453Y-177992578I1500001J1D01*
G01*
X278927453Y-175792578D02*
X274427453Y-175792578D01*
X279427453Y-180992578D02*
X279427453Y-181992578D01*
X274427453Y-175792578D02*
X274427453Y-176292578D01*
X286507453Y-170736578D02*
X286507453Y-171752578D01*
X277617453Y-167307578D02*
X286507453Y-167307578D01*
X275458453Y-173657578D02*
X275077453Y-173657578D01*
X286507453Y-167307578D02*
X286507453Y-167688578D01*
X274427453Y-179892578D02*
X274427453Y-180492578D01*
X279927453Y-182492578D02*
X279427453Y-181992578D01*
X283427453Y-181992578D02*
X282927453Y-182492578D01*
X275077453Y-169847578D02*
X275077453Y-170228578D01*
X282927453Y-182492578D02*
X279927453Y-182492578D01*
X274427453Y-180492578D02*
X278927453Y-180492578D01*
X278963291Y-173657578D02*
X277236453Y-173657578D01*
X275077453Y-173276578D02*
X275077453Y-173657578D01*
X278927453Y-176492578D02*
X278927453Y-175792578D01*
X286507453Y-171752578D02*
X281427453Y-171752578D01*
X283427453Y-178492578D02*
X282927453Y-177992578D01*
X282927453Y-177992578D02*
X280427453Y-177992578D01*
X279427453Y-180992578D02*
G75*
G03*
X278927453Y-180492578I-500001J-1D01*
G01*
X278927453Y-176492578D02*
G75*
G03*
X280427453Y-177992578I1500001J1D01*
G01*
X277617453Y-167307578D02*
G75*
G03*
X275077453Y-169847578I1J-2540001D01*
G01*
X281427453Y-171752577D02*
G75*
G03*
X278963291Y-173676538I0J-2540000D01*
G01*
X294102453Y-156526578D02*
X294102453Y-156907578D01*
X305532453Y-158431578D02*
X300452453Y-158431578D01*
X301952453Y-164671578D02*
X299452453Y-164671578D01*
X305532453Y-157415578D02*
X305532453Y-158431578D01*
X294483453Y-160336578D02*
X294102453Y-160336578D01*
X293452453Y-162471578D02*
X293452453Y-162971578D01*
X298952453Y-169171578D02*
X298452453Y-168671578D01*
X298452453Y-167671578D02*
X298452453Y-168671578D01*
X293452453Y-166571578D02*
X293452453Y-167171578D01*
X301952453Y-169171578D02*
X298952453Y-169171578D01*
X296642453Y-153986578D02*
X305532453Y-153986578D01*
X305532453Y-153986578D02*
X305532453Y-154367578D01*
X294102453Y-159955578D02*
X294102453Y-160336578D01*
X297988291Y-160336578D02*
X296261453Y-160336578D01*
X302452453Y-165171578D02*
X301952453Y-164671578D01*
X293452453Y-167171578D02*
X297952453Y-167171578D01*
X297952453Y-163171578D02*
X297952453Y-162471578D01*
X297952453Y-162471578D02*
X293452453Y-162471578D01*
X302452453Y-168671578D02*
X301952453Y-169171578D01*
X297952453Y-163171578D02*
G75*
G03*
X299452453Y-164671578I1500001J1D01*
G01*
X296642453Y-153986578D02*
G75*
G03*
X294102453Y-156526578I1J-2540001D01*
G01*
X300452453Y-158431577D02*
G75*
G03*
X297988291Y-160355538I0J-2540000D01*
G01*
X298452453Y-167671578D02*
G75*
G03*
X297952453Y-167171578I-500001J-1D01*
G01*
X390341283Y-135661424D02*
X389841283Y-136161424D01*
X386841283Y-136161424D02*
X386341283Y-135661424D01*
X385877121Y-127326424D02*
X384150283Y-127326424D01*
X381341283Y-129461424D02*
X381341283Y-129961424D01*
X386341283Y-134661424D02*
X386341283Y-135661424D01*
X381991283Y-126945424D02*
X381991283Y-127326424D01*
X385841283Y-129461424D02*
X381341283Y-129461424D01*
X393421283Y-120976424D02*
X393421283Y-121357424D01*
X393421283Y-124405424D02*
X393421283Y-125421424D01*
X381341283Y-134161424D02*
X385841283Y-134161424D01*
X393421283Y-125421424D02*
X388341283Y-125421424D01*
X389841283Y-136161424D02*
X386841283Y-136161424D01*
X381991283Y-123516424D02*
X381991283Y-123897424D01*
X390341283Y-132161424D02*
X389841283Y-131661424D01*
X381341283Y-133561424D02*
X381341283Y-134161424D01*
X382372283Y-127326424D02*
X381991283Y-127326424D01*
X385841283Y-130161424D02*
X385841283Y-129461424D01*
X389841283Y-131661424D02*
X387341283Y-131661424D01*
X384531283Y-120976424D02*
X393421283Y-120976424D01*
X385841283Y-130161424D02*
G75*
G03*
X387341283Y-131661424I1500001J1D01*
G01*
X386341283Y-134661424D02*
G75*
G03*
X385841283Y-134161424I-500001J-1D01*
G01*
X388341283Y-125421423D02*
G75*
G03*
X385877121Y-127345384I0J-2540000D01*
G01*
X384531283Y-120976424D02*
G75*
G03*
X381991283Y-123516424I1J-2540001D01*
G01*
X364117169Y-119754988D02*
X363617169Y-120254988D01*
X367197169Y-109514988D02*
X362117169Y-109514988D01*
X364117169Y-116254988D02*
X363617169Y-115754988D01*
X363617169Y-120254988D02*
X360617169Y-120254988D01*
X360117169Y-118754988D02*
X360117169Y-119754988D01*
X355767169Y-107609988D02*
X355767169Y-107990988D01*
X363617169Y-115754988D02*
X361117169Y-115754988D01*
X355117169Y-118254988D02*
X359617169Y-118254988D01*
X355117169Y-117654988D02*
X355117169Y-118254988D01*
X359653007Y-111419988D02*
X357926169Y-111419988D01*
X359617169Y-114254988D02*
X359617169Y-113554988D01*
X355117169Y-113554988D02*
X355117169Y-114054988D01*
X358307169Y-105069988D02*
X367197169Y-105069988D01*
X355767169Y-111038988D02*
X355767169Y-111419988D01*
X356148169Y-111419988D02*
X355767169Y-111419988D01*
X360617169Y-120254988D02*
X360117169Y-119754988D01*
X359617169Y-113554988D02*
X355117169Y-113554988D01*
X367197169Y-105069988D02*
X367197169Y-105450988D01*
X367197169Y-108498988D02*
X367197169Y-109514988D01*
X359617169Y-114254988D02*
G75*
G03*
X361117169Y-115754988I1500001J1D01*
G01*
X358307169Y-105069988D02*
G75*
G03*
X355767169Y-107609988I1J-2540001D01*
G01*
X362117169Y-109514987D02*
G75*
G03*
X359653007Y-111438948I0J-2540000D01*
G01*
X360117169Y-118754988D02*
G75*
G03*
X359617169Y-118254988I-500001J-1D01*
G01*
X329958452Y-101842595D02*
X338848452Y-101842595D01*
X335268452Y-112527595D02*
X332768452Y-112527595D01*
X332268452Y-117027595D02*
X331768452Y-116527595D01*
X335768452Y-113027595D02*
X335268452Y-112527595D01*
X331304290Y-108192595D02*
X329577452Y-108192595D01*
X331268452Y-110327595D02*
X326768452Y-110327595D01*
X331768452Y-115527595D02*
X331768452Y-116527595D01*
X338848452Y-106287595D02*
X333768452Y-106287595D01*
X331268452Y-111027595D02*
X331268452Y-110327595D01*
X327799452Y-108192595D02*
X327418452Y-108192595D01*
X338848452Y-101842595D02*
X338848452Y-102223595D01*
X326768452Y-114427595D02*
X326768452Y-115027595D01*
X338848452Y-105271595D02*
X338848452Y-106287595D01*
X335268452Y-117027595D02*
X332268452Y-117027595D01*
X327418452Y-104382595D02*
X327418452Y-104763595D01*
X326768452Y-115027595D02*
X331268452Y-115027595D01*
X335768452Y-116527595D02*
X335268452Y-117027595D01*
X327418452Y-107811595D02*
X327418452Y-108192595D01*
X326768452Y-110327595D02*
X326768452Y-110827595D01*
X333768452Y-106287594D02*
G75*
G03*
X331304290Y-108211555I0J-2540000D01*
G01*
X331768452Y-115527595D02*
G75*
G03*
X331268452Y-115027595I-500001J-1D01*
G01*
X331268452Y-111027595D02*
G75*
G03*
X332768452Y-112527595I1500001J1D01*
G01*
X329958452Y-101842595D02*
G75*
G03*
X327418452Y-104382595I1J-2540001D01*
G01*
X63078481Y-127652351D02*
X63078481Y-128033351D01*
X63078481Y-124223351D02*
X63078481Y-124604351D01*
X62428481Y-134868351D02*
X66928481Y-134868351D01*
X65618481Y-121683351D02*
X74508481Y-121683351D01*
X66928481Y-130168351D02*
X62428481Y-130168351D01*
X67928481Y-136868351D02*
X67428481Y-136368351D01*
X71428481Y-132868351D02*
X70928481Y-132368351D01*
X74508481Y-121683351D02*
X74508481Y-122064351D01*
X71428481Y-136368351D02*
X70928481Y-136868351D01*
X62428481Y-134268351D02*
X62428481Y-134868351D01*
X70928481Y-136868351D02*
X67928481Y-136868351D01*
X62428481Y-130168351D02*
X62428481Y-130668351D01*
X70928481Y-132368351D02*
X68428481Y-132368351D01*
X67428481Y-135368351D02*
X67428481Y-136368351D01*
X63459481Y-128033351D02*
X63078481Y-128033351D01*
X66964319Y-128033351D02*
X65237481Y-128033351D01*
X66928481Y-130868351D02*
X66928481Y-130168351D01*
X74508481Y-125112351D02*
X74508481Y-126128351D01*
X74508481Y-126128351D02*
X69428481Y-126128351D01*
X67428481Y-135368351D02*
G75*
G03*
X66928481Y-134868351I-500001J-1D01*
G01*
X66928481Y-130868351D02*
G75*
G03*
X68428481Y-132368351I1500001J1D01*
G01*
X69428481Y-126128350D02*
G75*
G03*
X66964319Y-128052311I0J-2540000D01*
G01*
X65618481Y-121683351D02*
G75*
G03*
X63078481Y-124223351I1J-2540001D01*
G01*
G36*
X80890943Y-200211333D02*
G01*
X80763216Y-200660494D01*
X80481103Y-201298458D01*
X80104047Y-201911502D01*
X79664352Y-202440903D01*
X79294261Y-202785146D01*
X78572847Y-203292929D01*
X77795907Y-203640877D01*
X76962921Y-203829258D01*
X76843520Y-203842694D01*
X75996485Y-203845963D01*
X75175256Y-203695569D01*
X74398606Y-203404476D01*
X73685306Y-202985646D01*
X73054127Y-202452045D01*
X72523843Y-201816634D01*
X72113225Y-201092377D01*
X71841045Y-200292238D01*
X71762585Y-199869162D01*
X71734501Y-199167531D01*
X72096801Y-199167531D01*
X72119036Y-199788267D01*
X72211364Y-200332476D01*
X72362156Y-200782752D01*
X72732250Y-201492010D01*
X73230479Y-202129873D01*
X73833197Y-202672694D01*
X74516761Y-203096831D01*
X75257524Y-203378636D01*
X75323849Y-203395317D01*
X75892654Y-203479821D01*
X76523659Y-203491073D01*
X77144214Y-203431343D01*
X77681666Y-203302900D01*
X78147568Y-203111568D01*
X78847913Y-202690527D01*
X79454698Y-202154495D01*
X79952862Y-201523968D01*
X80327341Y-200819444D01*
X80563075Y-200061418D01*
X80645000Y-199270389D01*
X80608921Y-198714941D01*
X80429342Y-197931284D01*
X80113696Y-197210424D01*
X79678280Y-196565665D01*
X79139393Y-196010312D01*
X78513333Y-195557671D01*
X77816399Y-195221047D01*
X77064888Y-195013746D01*
X76275101Y-194949072D01*
X75463334Y-195040330D01*
X75166720Y-195120933D01*
X74847957Y-195237419D01*
X74538492Y-195374361D01*
X74262941Y-195517771D01*
X74045919Y-195653660D01*
X73912039Y-195768043D01*
X73885918Y-195846929D01*
X73992170Y-195876334D01*
X74008354Y-195877076D01*
X74201241Y-195958866D01*
X74415413Y-196143272D01*
X74605706Y-196383740D01*
X74726953Y-196633717D01*
X74774843Y-196910018D01*
X74759971Y-197014950D01*
X74723980Y-197268890D01*
X74556972Y-197568983D01*
X74302639Y-197798311D01*
X73989802Y-197944894D01*
X73647279Y-197996747D01*
X73303890Y-197941889D01*
X72988455Y-197768337D01*
X72729793Y-197464107D01*
X72716406Y-197441713D01*
X72627147Y-197319149D01*
X72551677Y-197295694D01*
X72475457Y-197387424D01*
X72383950Y-197610417D01*
X72262616Y-197980752D01*
X72255946Y-198002368D01*
X72142993Y-198546741D01*
X72096801Y-199167531D01*
X71734501Y-199167531D01*
X71728545Y-199018736D01*
X71853109Y-198181019D01*
X72129899Y-197377699D01*
X72441984Y-196825927D01*
X72949166Y-196825927D01*
X72976606Y-197141007D01*
X73163545Y-197431121D01*
X73282893Y-197530846D01*
X73574971Y-197650627D01*
X73868090Y-197638224D01*
X74128686Y-197514340D01*
X74323200Y-197299681D01*
X74418067Y-197014950D01*
X74379728Y-196680853D01*
X74263287Y-196463080D01*
X74023540Y-196270250D01*
X73727935Y-196196114D01*
X73421173Y-196249449D01*
X73147957Y-196439030D01*
X73081749Y-196519226D01*
X72949166Y-196825927D01*
X72441984Y-196825927D01*
X72552540Y-196630463D01*
X73114652Y-195961000D01*
X73510293Y-195609606D01*
X74227511Y-195139082D01*
X74996533Y-194816107D01*
X75798018Y-194640642D01*
X76612624Y-194612646D01*
X77421012Y-194732079D01*
X78203840Y-194998900D01*
X78941767Y-195413069D01*
X79615453Y-195974547D01*
X79810814Y-196182177D01*
X80324393Y-196884500D01*
X80695841Y-197660653D01*
X80918512Y-198488559D01*
X80979821Y-199270389D01*
X80985762Y-199346144D01*
X80890943Y-200211333D01*
G37*
G36*
X107394243Y-207765751D02*
G01*
X107385218Y-208303813D01*
X107370373Y-208746080D01*
X107348507Y-209118229D01*
X107318417Y-209445939D01*
X107278903Y-209754888D01*
X107228761Y-210070753D01*
X106928548Y-211527299D01*
X106401314Y-213348907D01*
X105717904Y-215114278D01*
X104883113Y-216813876D01*
X103901739Y-218438167D01*
X102778577Y-219977615D01*
X101518425Y-221422684D01*
X100753040Y-222186006D01*
X99341024Y-223409497D01*
X97823146Y-224510465D01*
X96213368Y-225481585D01*
X94525654Y-226315530D01*
X92773966Y-227004973D01*
X90972266Y-227542587D01*
X89134518Y-227921046D01*
X88965503Y-227944704D01*
X88646710Y-227975322D01*
X88249514Y-227997937D01*
X87755745Y-228013036D01*
X87147237Y-228021106D01*
X86405822Y-228022634D01*
X85513333Y-228018108D01*
X84951893Y-228013655D01*
X84275494Y-228006932D01*
X83728338Y-227998431D01*
X83286816Y-227986625D01*
X82927321Y-227969989D01*
X82626246Y-227946998D01*
X82359984Y-227916125D01*
X82104927Y-227875847D01*
X81837468Y-227824637D01*
X81534000Y-227760970D01*
X80360401Y-227481951D01*
X78548518Y-226928315D01*
X76831622Y-226242482D01*
X75195389Y-225417710D01*
X73625498Y-224447257D01*
X72107623Y-223324382D01*
X71794917Y-223064851D01*
X71195527Y-222530876D01*
X70566631Y-221931734D01*
X69949780Y-221308703D01*
X69386523Y-220703060D01*
X68918410Y-220156082D01*
X68773967Y-219974710D01*
X67986773Y-218902553D01*
X67234504Y-217741561D01*
X66543663Y-216537410D01*
X65940751Y-215335775D01*
X65452272Y-214182333D01*
X65108194Y-213204231D01*
X64605795Y-211394020D01*
X64262389Y-209555353D01*
X64076924Y-207700222D01*
X64063469Y-206824658D01*
X64382295Y-206824658D01*
X64498495Y-208681391D01*
X64779571Y-210523667D01*
X64859668Y-210908332D01*
X65342375Y-212741951D01*
X65973401Y-214503316D01*
X66745815Y-216185789D01*
X67652689Y-217782731D01*
X68687093Y-219287506D01*
X69842100Y-220693475D01*
X71110779Y-221994001D01*
X72486202Y-223182445D01*
X73961439Y-224252171D01*
X75529562Y-225196540D01*
X77183643Y-226008915D01*
X78916750Y-226682658D01*
X80721957Y-227211131D01*
X82592333Y-227587696D01*
X82940690Y-227632697D01*
X83533579Y-227684043D01*
X84227189Y-227723278D01*
X84983049Y-227749833D01*
X85762690Y-227763143D01*
X86527642Y-227762640D01*
X87239435Y-227747757D01*
X87859600Y-227717926D01*
X88349666Y-227672580D01*
X89882096Y-227420170D01*
X91702104Y-226973693D01*
X93451648Y-226383078D01*
X95124700Y-225655553D01*
X96715232Y-224798347D01*
X98217213Y-223818689D01*
X99624616Y-222723807D01*
X100931413Y-221520929D01*
X102131575Y-220217284D01*
X103219073Y-218820100D01*
X104187878Y-217336605D01*
X105031963Y-215774029D01*
X105745298Y-214139599D01*
X106321856Y-212440544D01*
X106755607Y-210684092D01*
X107040523Y-208877472D01*
X107170576Y-207027912D01*
X107139736Y-205142641D01*
X107032267Y-203910230D01*
X106732718Y-202037067D01*
X106271855Y-200215272D01*
X105649624Y-198444704D01*
X104865971Y-196725218D01*
X103920845Y-195056671D01*
X102814191Y-193438919D01*
X102789510Y-193406060D01*
X102426923Y-192958355D01*
X101964560Y-192435732D01*
X101431748Y-191867481D01*
X100857814Y-191282896D01*
X100272086Y-190711268D01*
X99703890Y-190181889D01*
X99182554Y-189724050D01*
X98737404Y-189367043D01*
X97207546Y-188314116D01*
X95553080Y-187366982D01*
X93844112Y-186579515D01*
X92076912Y-185950200D01*
X90247747Y-185477528D01*
X88352884Y-185159985D01*
X88180782Y-185140658D01*
X87600242Y-185095429D01*
X86913032Y-185063901D01*
X86164992Y-185046415D01*
X85401962Y-185043314D01*
X84669783Y-185054937D01*
X84014293Y-185081626D01*
X83481333Y-185123723D01*
X82212450Y-185301264D01*
X80381017Y-185697555D01*
X78601911Y-186249237D01*
X76884187Y-186950459D01*
X75236896Y-187795371D01*
X73669092Y-188778123D01*
X72189828Y-189892864D01*
X70808158Y-191133745D01*
X69533134Y-192494915D01*
X68373810Y-193970524D01*
X67339240Y-195554722D01*
X67023168Y-196107665D01*
X66196732Y-197778516D01*
X65521852Y-199512802D01*
X65000749Y-201297542D01*
X64635642Y-203119752D01*
X64428750Y-204966451D01*
X64382295Y-206824658D01*
X64063469Y-206824658D01*
X64048347Y-205840621D01*
X64175605Y-203988543D01*
X64457647Y-202155980D01*
X64893420Y-200354925D01*
X65481872Y-198597371D01*
X66221950Y-196895312D01*
X67112602Y-195260739D01*
X67664676Y-194387727D01*
X68684254Y-192969095D01*
X69794657Y-191663018D01*
X71021400Y-190440545D01*
X72390000Y-189272724D01*
X72913913Y-188872522D01*
X74269195Y-187960883D01*
X75733688Y-187132710D01*
X77272482Y-186405156D01*
X78850667Y-185795375D01*
X80433333Y-185320520D01*
X80962083Y-185190133D01*
X81618367Y-185046230D01*
X82241345Y-184935702D01*
X82871504Y-184853518D01*
X83549333Y-184794643D01*
X84315320Y-184754045D01*
X85209953Y-184726689D01*
X85807252Y-184715490D01*
X86624177Y-184712509D01*
X87336365Y-184729527D01*
X87982729Y-184769229D01*
X88602181Y-184834298D01*
X89233634Y-184927417D01*
X89916000Y-185051272D01*
X90327938Y-185135475D01*
X92156881Y-185611622D01*
X93918917Y-186237342D01*
X95606845Y-187005276D01*
X97213465Y-187908069D01*
X98731575Y-188938362D01*
X100153976Y-190088800D01*
X101473467Y-191352024D01*
X102682846Y-192720679D01*
X103774914Y-194187407D01*
X104742469Y-195744851D01*
X105578312Y-197385654D01*
X106275241Y-199102459D01*
X106826056Y-200887909D01*
X107223556Y-202734648D01*
X107274319Y-203052712D01*
X107315021Y-203363303D01*
X107346056Y-203687410D01*
X107368665Y-204050999D01*
X107384090Y-204480039D01*
X107393571Y-205000496D01*
X107398349Y-205638338D01*
X107399666Y-206419531D01*
X107398768Y-207027912D01*
X107398652Y-207106214D01*
X107394243Y-207765751D01*
G37*
D11*
X259200945Y-143563868D02*
X256540945Y-143563868D01*
X259200945Y-134613868D02*
X259200945Y-133283868D01*
X256540945Y-135883868D02*
X256540945Y-143563868D01*
X259200945Y-135883868D02*
X259200945Y-143563868D01*
X259200945Y-135883868D02*
X256540945Y-135883868D01*
X259200945Y-133283868D02*
X257870945Y-133283868D01*
X243960945Y-135883868D02*
X243960945Y-143563868D01*
X243960945Y-143563868D02*
X241300945Y-143563868D01*
X243960945Y-135883868D02*
X241300945Y-135883868D01*
X243960945Y-133283868D02*
X242630945Y-133283868D01*
X243960945Y-134613868D02*
X243960945Y-133283868D01*
X241300945Y-135883868D02*
X241300945Y-143563868D01*
%LPC*%
D14*
X94294945Y-112388868D03*
D15*
X89294945Y-116138868D03*
X90484945Y-109848868D03*
D16*
X94294945Y-112388868D03*
D17*
X99374945Y-112388868D03*
X89214945Y-112388868D03*
X99794945Y-112388868D03*
X88794945Y-112388868D03*
D15*
X94294945Y-118338868D03*
X96834945Y-107308868D03*
D18*
X97569945Y-118338868D03*
D19*
X100584945Y-107308868D03*
X86734945Y-109848868D03*
D18*
X86019945Y-116138868D03*
D16*
X122918213Y-109198028D03*
D14*
X122918213Y-109198028D03*
D17*
X117838213Y-109198028D03*
X117418213Y-109198028D03*
X128418213Y-109198028D03*
D15*
X119108213Y-106658028D03*
D17*
X127998213Y-109198028D03*
D15*
X117918213Y-112948028D03*
X125458213Y-104118028D03*
X122918213Y-115148028D03*
D19*
X129208213Y-104118028D03*
D18*
X126193213Y-115148028D03*
X114643213Y-112948028D03*
D19*
X115358213Y-106658028D03*
D14*
X149100000Y-120967500D03*
D17*
X154600000Y-120967500D03*
D15*
X149100000Y-126917500D03*
D17*
X154180000Y-120967500D03*
X144020000Y-120967500D03*
D16*
X149100000Y-120967500D03*
D15*
X151640000Y-115887500D03*
X145290000Y-118427500D03*
D17*
X143600000Y-120967500D03*
D15*
X144100000Y-124717500D03*
D18*
X152375000Y-126917500D03*
D19*
X155390000Y-115887500D03*
X141540000Y-118427500D03*
D18*
X140825000Y-124717500D03*
D17*
X301988253Y-99175054D03*
D15*
X310028253Y-94095054D03*
D14*
X307488253Y-99175054D03*
D16*
X307488253Y-99175054D03*
D17*
X302408253Y-99175054D03*
D15*
X302488253Y-102925054D03*
X303678253Y-96635054D03*
D17*
X312988253Y-99175054D03*
X312568253Y-99175054D03*
D15*
X307488253Y-105125054D03*
D19*
X313778253Y-94095054D03*
D18*
X310763253Y-105125054D03*
D19*
X299928253Y-96635054D03*
D18*
X299213253Y-102925054D03*
D15*
X333768452Y-93137595D03*
D17*
X339268452Y-87187595D03*
X328688452Y-87187595D03*
D15*
X328768452Y-90937595D03*
D17*
X328268452Y-87187595D03*
D15*
X329958452Y-84647595D03*
D17*
X338848452Y-87187595D03*
D14*
X333768452Y-87187595D03*
D16*
X333768452Y-87187595D03*
D15*
X336308452Y-82107595D03*
D18*
X337043452Y-93137595D03*
D19*
X340058452Y-82107595D03*
X326208452Y-84647595D03*
D18*
X325493452Y-90937595D03*
D17*
X312568253Y-120815054D03*
D16*
X307488253Y-120815054D03*
D15*
X303678253Y-118275054D03*
D14*
X307488253Y-120815054D03*
D15*
X310028253Y-115735054D03*
X302488253Y-124565054D03*
D17*
X302408253Y-120815054D03*
D15*
X307488253Y-126765054D03*
D17*
X312988253Y-120815054D03*
X301988253Y-120815054D03*
D18*
X310763253Y-126765054D03*
D19*
X313778253Y-115735054D03*
D18*
X299213253Y-124565054D03*
D19*
X299928253Y-118275054D03*
D17*
X223100000Y-126206250D03*
X233680000Y-126206250D03*
X223520000Y-126206250D03*
D14*
X228600000Y-126206250D03*
D16*
X228600000Y-126206250D03*
D17*
X234100000Y-126206250D03*
D15*
X223600000Y-129956250D03*
X228600000Y-132156250D03*
X224790000Y-123666250D03*
X231140000Y-121126250D03*
D18*
X231875000Y-132156250D03*
D19*
X234890000Y-121126250D03*
X221040000Y-123666250D03*
D18*
X220325000Y-129956250D03*
D17*
X180419603Y-201442263D03*
X169839603Y-201442263D03*
D15*
X171109603Y-198902263D03*
X177459603Y-196362263D03*
X169919603Y-205192263D03*
X174919603Y-207392263D03*
D14*
X174919603Y-201442263D03*
D16*
X174919603Y-201442263D03*
D17*
X179999603Y-201442263D03*
X169419603Y-201442263D03*
D19*
X181209603Y-196362263D03*
D18*
X178194603Y-207392263D03*
D19*
X167359603Y-198902263D03*
D18*
X166644603Y-205192263D03*
D17*
X150814603Y-188121263D03*
D15*
X152084603Y-185581263D03*
X155894603Y-194071263D03*
X150894603Y-191871263D03*
D17*
X160974603Y-188121263D03*
D15*
X158434603Y-183041263D03*
D16*
X155894603Y-188121263D03*
D17*
X161394603Y-188121263D03*
X150394603Y-188121263D03*
D14*
X155894603Y-188121263D03*
D18*
X159169603Y-194071263D03*
D19*
X162184603Y-183041263D03*
D18*
X147619603Y-191871263D03*
D19*
X148334603Y-185581263D03*
D17*
X357037169Y-90414988D03*
X367197169Y-90414988D03*
X367617169Y-90414988D03*
D15*
X357117169Y-94164988D03*
D14*
X362117169Y-90414988D03*
D15*
X358307169Y-87874988D03*
X364657169Y-85334988D03*
D17*
X356617169Y-90414988D03*
D15*
X362117169Y-96364988D03*
D16*
X362117169Y-90414988D03*
D19*
X368407169Y-85334988D03*
D18*
X365392169Y-96364988D03*
D19*
X354557169Y-87874988D03*
D18*
X353842169Y-94164988D03*
D17*
X393841283Y-106321424D03*
D15*
X384531283Y-103781424D03*
D17*
X382841283Y-106321424D03*
X383261283Y-106321424D03*
D15*
X383341283Y-110071424D03*
D17*
X393421283Y-106321424D03*
D14*
X388341283Y-106321424D03*
D16*
X388341283Y-106321424D03*
D15*
X390881283Y-101241424D03*
X388341283Y-112271424D03*
D18*
X391616283Y-112271424D03*
D19*
X394631283Y-101241424D03*
D18*
X380066283Y-110071424D03*
D19*
X380781283Y-103781424D03*
D15*
X283967453Y-195854578D03*
D16*
X281427453Y-200934578D03*
D15*
X281427453Y-206884578D03*
D17*
X286507453Y-200934578D03*
D14*
X281427453Y-200934578D03*
D15*
X276427453Y-204684578D03*
D17*
X276347453Y-200934578D03*
X286927453Y-200934578D03*
X275927453Y-200934578D03*
D15*
X277617453Y-198394578D03*
D19*
X287717453Y-195854578D03*
D18*
X284702453Y-206884578D03*
X273152453Y-204684578D03*
D19*
X273867453Y-198394578D03*
D17*
X295372453Y-187613578D03*
D15*
X295452453Y-191363578D03*
D17*
X305532453Y-187613578D03*
D15*
X296642453Y-185073578D03*
X302992453Y-182533578D03*
D17*
X294952453Y-187613578D03*
D15*
X300452453Y-193563578D03*
D16*
X300452453Y-187613578D03*
D14*
X300452453Y-187613578D03*
D17*
X305952453Y-187613578D03*
D18*
X303727453Y-193563578D03*
D19*
X306742453Y-182533578D03*
X292892453Y-185073578D03*
D18*
X292177453Y-191363578D03*
D17*
X324977453Y-174292578D03*
X313977453Y-174292578D03*
D16*
X319477453Y-174292578D03*
D15*
X314477453Y-178042578D03*
D17*
X314397453Y-174292578D03*
D15*
X319477453Y-180242578D03*
D17*
X324557453Y-174292578D03*
D15*
X315667453Y-171752578D03*
X322017453Y-169212578D03*
D14*
X319477453Y-174292578D03*
D18*
X322752453Y-180242578D03*
D19*
X325767453Y-169212578D03*
X311917453Y-171752578D03*
D18*
X311202453Y-178042578D03*
D16*
X281427453Y-174292578D03*
D15*
X281427453Y-180242578D03*
D17*
X286507453Y-174292578D03*
X276347453Y-174292578D03*
D15*
X283967453Y-169212578D03*
D17*
X275927453Y-174292578D03*
D15*
X277617453Y-171752578D03*
D14*
X281427453Y-174292578D03*
D15*
X276427453Y-178042578D03*
D17*
X286927453Y-174292578D03*
D18*
X284702453Y-180242578D03*
D19*
X287717453Y-169212578D03*
X273867453Y-171752578D03*
D18*
X273152453Y-178042578D03*
D17*
X305952453Y-160971578D03*
X295372453Y-160971578D03*
D16*
X300452453Y-160971578D03*
D15*
X300452453Y-166921578D03*
D17*
X305532453Y-160971578D03*
D15*
X296642453Y-158431578D03*
D17*
X294952453Y-160971578D03*
D15*
X302992453Y-155891578D03*
X295452453Y-164721578D03*
D14*
X300452453Y-160971578D03*
D19*
X306742453Y-155891578D03*
D18*
X303727453Y-166921578D03*
D19*
X292892453Y-158431578D03*
D18*
X292177453Y-164721578D03*
D17*
X393841283Y-127961424D03*
X382841283Y-127961424D03*
X393421283Y-127961424D03*
D15*
X390881283Y-122881424D03*
D17*
X383261283Y-127961424D03*
D15*
X383341283Y-131711424D03*
X388341283Y-133911424D03*
X384531283Y-125421424D03*
D16*
X388341283Y-127961424D03*
D14*
X388341283Y-127961424D03*
D19*
X394631283Y-122881424D03*
D18*
X391616283Y-133911424D03*
X380066283Y-131711424D03*
D19*
X380781283Y-125421424D03*
D15*
X364657169Y-106974988D03*
X357117169Y-115804988D03*
D16*
X362117169Y-112054988D03*
D15*
X362117169Y-118004988D03*
D17*
X356617169Y-112054988D03*
X367197169Y-112054988D03*
X367617169Y-112054988D03*
D14*
X362117169Y-112054988D03*
D17*
X357037169Y-112054988D03*
D15*
X358307169Y-109514988D03*
D19*
X368407169Y-106974988D03*
D18*
X365392169Y-118004988D03*
X353842169Y-115804988D03*
D19*
X354557169Y-109514988D03*
D17*
X338848452Y-108827595D03*
D14*
X333768452Y-108827595D03*
D15*
X336308452Y-103747595D03*
D17*
X328688452Y-108827595D03*
D15*
X328768452Y-112577595D03*
X333768452Y-114777595D03*
D16*
X333768452Y-108827595D03*
D17*
X328268452Y-108827595D03*
X339268452Y-108827595D03*
D15*
X329958452Y-106287595D03*
D19*
X340058452Y-103747595D03*
D18*
X337043452Y-114777595D03*
D19*
X326208452Y-106287595D03*
D18*
X325493452Y-112577595D03*
D17*
X74508481Y-128668351D03*
X63928481Y-128668351D03*
D14*
X69428481Y-128668351D03*
D15*
X64428481Y-132418351D03*
D16*
X69428481Y-128668351D03*
D15*
X71968481Y-123588351D03*
D17*
X64348481Y-128668351D03*
X74928481Y-128668351D03*
D15*
X69428481Y-134618351D03*
X65618481Y-126128351D03*
D18*
X72703481Y-134618351D03*
D19*
X75718481Y-123588351D03*
D18*
X61153481Y-132418351D03*
D19*
X61868481Y-126128351D03*
D20*
X394200000Y-81200000D03*
X394200000Y-226700000D03*
X164600000Y-81200000D03*
X292600000Y-81200000D03*
X228600000Y-196200000D03*
X164600000Y-226700000D03*
X292600000Y-226700000D03*
X113800000Y-153950000D03*
X190500000Y-128746250D03*
X266700000Y-128746250D03*
X343400000Y-153950000D03*
X63000000Y-226700000D03*
X63000000Y-81200000D03*
D21*
X202704745Y-144270468D03*
X208154745Y-144270468D03*
D22*
X203004745Y-147300468D03*
X207854745Y-147300468D03*
D23*
X196539745Y-144140468D03*
X196539745Y-146680468D03*
D24*
X196539745Y-149220468D03*
D23*
X196539745Y-151760468D03*
X196539745Y-154300468D03*
X196539745Y-156840468D03*
X196539745Y-159380468D03*
D24*
X196539745Y-161920468D03*
D23*
X196539745Y-164460468D03*
X196539745Y-167000468D03*
X196539745Y-169540468D03*
X196539745Y-172080468D03*
D24*
X196539745Y-174620468D03*
D23*
X196539745Y-177160468D03*
X196539745Y-179700468D03*
X196539745Y-182240468D03*
X196539745Y-184780468D03*
D24*
X196539745Y-187320468D03*
D23*
X196539745Y-189860468D03*
X196539745Y-192400468D03*
X214319745Y-192400468D03*
X214319745Y-189860468D03*
D24*
X214319745Y-187320468D03*
D23*
X214319745Y-184780468D03*
X214319745Y-182240468D03*
X214319745Y-179700468D03*
X214319745Y-177160468D03*
D24*
X214319745Y-174620468D03*
D23*
X214319745Y-172080468D03*
X214319745Y-169540468D03*
X214319745Y-167000468D03*
X214319745Y-164460468D03*
D24*
X214319745Y-161920468D03*
D23*
X214319745Y-159380468D03*
X214319745Y-156840468D03*
X214319745Y-154300468D03*
X214319745Y-151760468D03*
D24*
X214319745Y-149220468D03*
D23*
X214319745Y-146680468D03*
X214319745Y-144140468D03*
D25*
X204429745Y-143970468D03*
X206429745Y-143970468D03*
X205429745Y-147270468D03*
D26*
X224917000Y-146729668D03*
D27*
X235077000Y-146729668D03*
D24*
X257870945Y-134613868D03*
D23*
X257870945Y-137153868D03*
X257870945Y-139693868D03*
X257870945Y-142233868D03*
D24*
X242630945Y-134613868D03*
D23*
X242630945Y-137153868D03*
X242630945Y-139693868D03*
X242630945Y-142233868D03*
M02*
