G04 #@! TF.GenerationSoftware,KiCad,Pcbnew,(6.0.4)*
G04 #@! TF.CreationDate,2022-08-08T16:34:43-07:00*
G04 #@! TF.ProjectId,GCCMX,4743434d-582e-46b6-9963-61645f706362,rev?*
G04 #@! TF.SameCoordinates,Original*
G04 #@! TF.FileFunction,Soldermask,Bot*
G04 #@! TF.FilePolarity,Negative*
%FSLAX46Y46*%
G04 Gerber Fmt 4.6, Leading zero omitted, Abs format (unit mm)*
G04 Created by KiCad (PCBNEW (6.0.4)) date 2022-08-08 16:34:43*
%MOMM*%
%LPD*%
G01*
G04 APERTURE LIST*
G04 Aperture macros list*
%AMRoundRect*
0 Rectangle with rounded corners*
0 $1 Rounding radius*
0 $2 $3 $4 $5 $6 $7 $8 $9 X,Y pos of 4 corners*
0 Add a 4 corners polygon primitive as box body*
4,1,4,$2,$3,$4,$5,$6,$7,$8,$9,$2,$3,0*
0 Add four circle primitives for the rounded corners*
1,1,$1+$1,$2,$3*
1,1,$1+$1,$4,$5*
1,1,$1+$1,$6,$7*
1,1,$1+$1,$8,$9*
0 Add four rect primitives between the rounded corners*
20,1,$1+$1,$2,$3,$4,$5,0*
20,1,$1+$1,$4,$5,$6,$7,0*
20,1,$1+$1,$6,$7,$8,$9,0*
20,1,$1+$1,$8,$9,$2,$3,0*%
G04 Aperture macros list end*
%ADD10C,3.429000*%
%ADD11C,3.000000*%
%ADD12C,3.987800*%
%ADD13C,1.701800*%
%ADD14R,2.600000X2.600000*%
%ADD15R,2.550000X2.500000*%
%ADD16C,3.200000*%
%ADD17O,1.300000X2.000000*%
%ADD18O,1.200000X1.650000*%
%ADD19O,1.700000X1.700000*%
%ADD20R,1.700000X1.700000*%
%ADD21RoundRect,0.255906X-0.394094X-0.394094X0.394094X-0.394094X0.394094X0.394094X-0.394094X0.394094X0*%
G04 APERTURE END LIST*
D10*
X94294945Y-112388868D03*
D11*
X89294945Y-116138868D03*
X90484945Y-109848868D03*
D12*
X94294945Y-112388868D03*
D13*
X99374945Y-112388868D03*
X89214945Y-112388868D03*
X99794945Y-112388868D03*
X88794945Y-112388868D03*
D11*
X94294945Y-118338868D03*
X96834945Y-107308868D03*
D14*
X97569945Y-118338868D03*
D15*
X100584945Y-107308868D03*
X86734945Y-109848868D03*
D14*
X86019945Y-116138868D03*
D12*
X122918213Y-109198028D03*
D10*
X122918213Y-109198028D03*
D13*
X117838213Y-109198028D03*
X117418213Y-109198028D03*
X128418213Y-109198028D03*
D11*
X119108213Y-106658028D03*
D13*
X127998213Y-109198028D03*
D11*
X117918213Y-112948028D03*
X125458213Y-104118028D03*
X122918213Y-115148028D03*
D15*
X129208213Y-104118028D03*
D14*
X126193213Y-115148028D03*
X114643213Y-112948028D03*
D15*
X115358213Y-106658028D03*
D10*
X149100000Y-120967500D03*
D13*
X154600000Y-120967500D03*
D11*
X149100000Y-126917500D03*
D13*
X154180000Y-120967500D03*
X144020000Y-120967500D03*
D12*
X149100000Y-120967500D03*
D11*
X151640000Y-115887500D03*
X145290000Y-118427500D03*
D13*
X143600000Y-120967500D03*
D11*
X144100000Y-124717500D03*
D14*
X152375000Y-126917500D03*
D15*
X155390000Y-115887500D03*
X141540000Y-118427500D03*
D14*
X140825000Y-124717500D03*
D13*
X301988253Y-99175054D03*
D11*
X310028253Y-94095054D03*
D10*
X307488253Y-99175054D03*
D12*
X307488253Y-99175054D03*
D13*
X302408253Y-99175054D03*
D11*
X302488253Y-102925054D03*
X303678253Y-96635054D03*
D13*
X312988253Y-99175054D03*
X312568253Y-99175054D03*
D11*
X307488253Y-105125054D03*
D15*
X313778253Y-94095054D03*
D14*
X310763253Y-105125054D03*
D15*
X299928253Y-96635054D03*
D14*
X299213253Y-102925054D03*
D11*
X333768452Y-93137595D03*
D13*
X339268452Y-87187595D03*
X328688452Y-87187595D03*
D11*
X328768452Y-90937595D03*
D13*
X328268452Y-87187595D03*
D11*
X329958452Y-84647595D03*
D13*
X338848452Y-87187595D03*
D10*
X333768452Y-87187595D03*
D12*
X333768452Y-87187595D03*
D11*
X336308452Y-82107595D03*
D14*
X337043452Y-93137595D03*
D15*
X340058452Y-82107595D03*
X326208452Y-84647595D03*
D14*
X325493452Y-90937595D03*
D13*
X312568253Y-120815054D03*
D12*
X307488253Y-120815054D03*
D11*
X303678253Y-118275054D03*
D10*
X307488253Y-120815054D03*
D11*
X310028253Y-115735054D03*
X302488253Y-124565054D03*
D13*
X302408253Y-120815054D03*
D11*
X307488253Y-126765054D03*
D13*
X312988253Y-120815054D03*
X301988253Y-120815054D03*
D14*
X310763253Y-126765054D03*
D15*
X313778253Y-115735054D03*
D14*
X299213253Y-124565054D03*
D15*
X299928253Y-118275054D03*
D13*
X223100000Y-126206250D03*
X233680000Y-126206250D03*
X223520000Y-126206250D03*
D10*
X228600000Y-126206250D03*
D12*
X228600000Y-126206250D03*
D13*
X234100000Y-126206250D03*
D11*
X223600000Y-129956250D03*
X228600000Y-132156250D03*
X224790000Y-123666250D03*
X231140000Y-121126250D03*
D14*
X231875000Y-132156250D03*
D15*
X234890000Y-121126250D03*
X221040000Y-123666250D03*
D14*
X220325000Y-129956250D03*
D13*
X180419603Y-201442263D03*
X169839603Y-201442263D03*
D11*
X171109603Y-198902263D03*
X177459603Y-196362263D03*
X169919603Y-205192263D03*
X174919603Y-207392263D03*
D10*
X174919603Y-201442263D03*
D12*
X174919603Y-201442263D03*
D13*
X179999603Y-201442263D03*
X169419603Y-201442263D03*
D15*
X181209603Y-196362263D03*
D14*
X178194603Y-207392263D03*
D15*
X167359603Y-198902263D03*
D14*
X166644603Y-205192263D03*
D13*
X150814603Y-188121263D03*
D11*
X152084603Y-185581263D03*
X155894603Y-194071263D03*
X150894603Y-191871263D03*
D13*
X160974603Y-188121263D03*
D11*
X158434603Y-183041263D03*
D12*
X155894603Y-188121263D03*
D13*
X161394603Y-188121263D03*
X150394603Y-188121263D03*
D10*
X155894603Y-188121263D03*
D14*
X159169603Y-194071263D03*
D15*
X162184603Y-183041263D03*
D14*
X147619603Y-191871263D03*
D15*
X148334603Y-185581263D03*
D13*
X357037169Y-90414988D03*
X367197169Y-90414988D03*
X367617169Y-90414988D03*
D11*
X357117169Y-94164988D03*
D10*
X362117169Y-90414988D03*
D11*
X358307169Y-87874988D03*
X364657169Y-85334988D03*
D13*
X356617169Y-90414988D03*
D11*
X362117169Y-96364988D03*
D12*
X362117169Y-90414988D03*
D15*
X368407169Y-85334988D03*
D14*
X365392169Y-96364988D03*
D15*
X354557169Y-87874988D03*
D14*
X353842169Y-94164988D03*
D13*
X393841283Y-106321424D03*
D11*
X384531283Y-103781424D03*
D13*
X382841283Y-106321424D03*
X383261283Y-106321424D03*
D11*
X383341283Y-110071424D03*
D13*
X393421283Y-106321424D03*
D10*
X388341283Y-106321424D03*
D12*
X388341283Y-106321424D03*
D11*
X390881283Y-101241424D03*
X388341283Y-112271424D03*
D14*
X391616283Y-112271424D03*
D15*
X394631283Y-101241424D03*
D14*
X380066283Y-110071424D03*
D15*
X380781283Y-103781424D03*
D11*
X283967453Y-195854578D03*
D12*
X281427453Y-200934578D03*
D11*
X281427453Y-206884578D03*
D13*
X286507453Y-200934578D03*
D10*
X281427453Y-200934578D03*
D11*
X276427453Y-204684578D03*
D13*
X276347453Y-200934578D03*
X286927453Y-200934578D03*
X275927453Y-200934578D03*
D11*
X277617453Y-198394578D03*
D15*
X287717453Y-195854578D03*
D14*
X284702453Y-206884578D03*
X273152453Y-204684578D03*
D15*
X273867453Y-198394578D03*
D13*
X295372453Y-187613578D03*
D11*
X295452453Y-191363578D03*
D13*
X305532453Y-187613578D03*
D11*
X296642453Y-185073578D03*
X302992453Y-182533578D03*
D13*
X294952453Y-187613578D03*
D11*
X300452453Y-193563578D03*
D12*
X300452453Y-187613578D03*
D10*
X300452453Y-187613578D03*
D13*
X305952453Y-187613578D03*
D14*
X303727453Y-193563578D03*
D15*
X306742453Y-182533578D03*
X292892453Y-185073578D03*
D14*
X292177453Y-191363578D03*
D13*
X324977453Y-174292578D03*
X313977453Y-174292578D03*
D12*
X319477453Y-174292578D03*
D11*
X314477453Y-178042578D03*
D13*
X314397453Y-174292578D03*
D11*
X319477453Y-180242578D03*
D13*
X324557453Y-174292578D03*
D11*
X315667453Y-171752578D03*
X322017453Y-169212578D03*
D10*
X319477453Y-174292578D03*
D14*
X322752453Y-180242578D03*
D15*
X325767453Y-169212578D03*
X311917453Y-171752578D03*
D14*
X311202453Y-178042578D03*
D12*
X281427453Y-174292578D03*
D11*
X281427453Y-180242578D03*
D13*
X286507453Y-174292578D03*
X276347453Y-174292578D03*
D11*
X283967453Y-169212578D03*
D13*
X275927453Y-174292578D03*
D11*
X277617453Y-171752578D03*
D10*
X281427453Y-174292578D03*
D11*
X276427453Y-178042578D03*
D13*
X286927453Y-174292578D03*
D14*
X284702453Y-180242578D03*
D15*
X287717453Y-169212578D03*
X273867453Y-171752578D03*
D14*
X273152453Y-178042578D03*
D13*
X305952453Y-160971578D03*
X295372453Y-160971578D03*
D12*
X300452453Y-160971578D03*
D11*
X300452453Y-166921578D03*
D13*
X305532453Y-160971578D03*
D11*
X296642453Y-158431578D03*
D13*
X294952453Y-160971578D03*
D11*
X302992453Y-155891578D03*
X295452453Y-164721578D03*
D10*
X300452453Y-160971578D03*
D15*
X306742453Y-155891578D03*
D14*
X303727453Y-166921578D03*
D15*
X292892453Y-158431578D03*
D14*
X292177453Y-164721578D03*
D13*
X393841283Y-127961424D03*
X382841283Y-127961424D03*
X393421283Y-127961424D03*
D11*
X390881283Y-122881424D03*
D13*
X383261283Y-127961424D03*
D11*
X383341283Y-131711424D03*
X388341283Y-133911424D03*
X384531283Y-125421424D03*
D12*
X388341283Y-127961424D03*
D10*
X388341283Y-127961424D03*
D15*
X394631283Y-122881424D03*
D14*
X391616283Y-133911424D03*
X380066283Y-131711424D03*
D15*
X380781283Y-125421424D03*
D11*
X364657169Y-106974988D03*
X357117169Y-115804988D03*
D12*
X362117169Y-112054988D03*
D11*
X362117169Y-118004988D03*
D13*
X356617169Y-112054988D03*
X367197169Y-112054988D03*
X367617169Y-112054988D03*
D10*
X362117169Y-112054988D03*
D13*
X357037169Y-112054988D03*
D11*
X358307169Y-109514988D03*
D15*
X368407169Y-106974988D03*
D14*
X365392169Y-118004988D03*
X353842169Y-115804988D03*
D15*
X354557169Y-109514988D03*
D13*
X338848452Y-108827595D03*
D10*
X333768452Y-108827595D03*
D11*
X336308452Y-103747595D03*
D13*
X328688452Y-108827595D03*
D11*
X328768452Y-112577595D03*
X333768452Y-114777595D03*
D12*
X333768452Y-108827595D03*
D13*
X328268452Y-108827595D03*
X339268452Y-108827595D03*
D11*
X329958452Y-106287595D03*
D15*
X340058452Y-103747595D03*
D14*
X337043452Y-114777595D03*
D15*
X326208452Y-106287595D03*
D14*
X325493452Y-112577595D03*
D13*
X74508481Y-128668351D03*
X63928481Y-128668351D03*
D10*
X69428481Y-128668351D03*
D11*
X64428481Y-132418351D03*
D12*
X69428481Y-128668351D03*
D11*
X71968481Y-123588351D03*
D13*
X64348481Y-128668351D03*
X74928481Y-128668351D03*
D11*
X69428481Y-134618351D03*
X65618481Y-126128351D03*
D14*
X72703481Y-134618351D03*
D15*
X75718481Y-123588351D03*
D14*
X61153481Y-132418351D03*
D15*
X61868481Y-126128351D03*
D16*
X394200000Y-81200000D03*
X394200000Y-226700000D03*
X164600000Y-81200000D03*
X292600000Y-81200000D03*
X228600000Y-196200000D03*
X164600000Y-226700000D03*
X292600000Y-226700000D03*
X113800000Y-153950000D03*
X190500000Y-128746250D03*
X266700000Y-128746250D03*
X343400000Y-153950000D03*
X63000000Y-226700000D03*
X63000000Y-81200000D03*
D17*
X202704745Y-144270468D03*
X208154745Y-144270468D03*
D18*
X203004745Y-147300468D03*
X207854745Y-147300468D03*
D19*
X196539745Y-144140468D03*
X196539745Y-146680468D03*
D20*
X196539745Y-149220468D03*
D19*
X196539745Y-151760468D03*
X196539745Y-154300468D03*
X196539745Y-156840468D03*
X196539745Y-159380468D03*
D20*
X196539745Y-161920468D03*
D19*
X196539745Y-164460468D03*
X196539745Y-167000468D03*
X196539745Y-169540468D03*
X196539745Y-172080468D03*
D20*
X196539745Y-174620468D03*
D19*
X196539745Y-177160468D03*
X196539745Y-179700468D03*
X196539745Y-182240468D03*
X196539745Y-184780468D03*
D20*
X196539745Y-187320468D03*
D19*
X196539745Y-189860468D03*
X196539745Y-192400468D03*
X214319745Y-192400468D03*
X214319745Y-189860468D03*
D20*
X214319745Y-187320468D03*
D19*
X214319745Y-184780468D03*
X214319745Y-182240468D03*
X214319745Y-179700468D03*
X214319745Y-177160468D03*
D20*
X214319745Y-174620468D03*
D19*
X214319745Y-172080468D03*
X214319745Y-169540468D03*
X214319745Y-167000468D03*
X214319745Y-164460468D03*
D20*
X214319745Y-161920468D03*
D19*
X214319745Y-159380468D03*
X214319745Y-156840468D03*
X214319745Y-154300468D03*
X214319745Y-151760468D03*
D20*
X214319745Y-149220468D03*
D19*
X214319745Y-146680468D03*
X214319745Y-144140468D03*
D21*
X204429745Y-143970468D03*
X206429745Y-143970468D03*
X205429745Y-147270468D03*
D20*
X236220000Y-80655000D03*
D19*
X236220000Y-83195000D03*
X236220000Y-85735000D03*
X236220000Y-88275000D03*
D20*
X220980000Y-80655000D03*
D19*
X220980000Y-83195000D03*
X220980000Y-85735000D03*
X220980000Y-88275000D03*
M02*
