0
SECTION
2
HEADER
9
$INSUNITS
70
4
9
$ACADVER
1
AC1014
9
$HANDSEED
5
FFFF
0
ENDSEC
0
SECTION
2
TABLES
0
TABLE
2
VPORT
5
8
100
AcDbSymbolTable
0
ENDTAB
0
TABLE
2
LTYPE
5
5
100
AcDbSymbolTable
0
LTYPE
5
14
100
AcDbSymbolTableRecord
100
AcDbLinetypeTableRecord
2
BYBLOCK
70
0
0
LTYPE
5
15
100
AcDbSymbolTableRecord
100
AcDbLinetypeTableRecord
2
BYLAYER
70
0
0
ENDTAB
0
TABLE
2
LAYER
5
2
100
AcDbSymbolTable
70
2
0
LAYER
5
50
100
AcDbSymbolTableRecord
100
AcDbLayerTableRecord
2
0
70
0
6
CONTINUOUS
0
ENDTAB
0
TABLE
2
STYLE
5
3
100
AcDbSymbolTable
70
1
0
STYLE
5
11
100
AcDbSymbolTableRecord
100
AcDbTextStyleTableRecord
2
STANDARD
70
0
0
ENDTAB
0
TABLE
2
VIEW
5
6
100
AcDbSymbolTable
70
0
0
ENDTAB
0
TABLE
2
UCS
5
7
100
AcDbSymbolTable
70
0
0
ENDTAB
0
TABLE
2
APPID
5
9
100
AcDbSymbolTable
70
2
0
APPID
5
12
100
AcDbSymbolTableRecord
100
AcDbRegAppTableRecord
2
ACAD
70
0
0
ENDTAB
0
TABLE
2
DIMSTYLE
5
A
100
AcDbSymbolTable
70
1
0
ENDTAB
0
TABLE
2
BLOCK_RECORD
5
1
100
AcDbSymbolTable
70
1
0
BLOCK_RECORD
5
1F
100
AcDbSymbolTableRecord
100
AcDbBlockTableRecord
2
*MODEL_SPACE
0
BLOCK_RECORD
5
1B
100
AcDbSymbolTableRecord
100
AcDbBlockTableRecord
2
*PAPER_SPACE
0
ENDTAB
0
ENDSEC
0
SECTION
2
BLOCKS
0
BLOCK
5
20
100
AcDbEntity
100
AcDbBlockBegin
2
*MODEL_SPACE
0
ENDBLK
5
21
100
AcDbEntity
100
AcDbBlockEnd
0
BLOCK
5
1C
100
AcDbEntity
100
AcDbBlockBegin
2
*PAPER_SPACE
0
ENDBLK
5
1D
100
AcDbEntity
100
AcDbBlockEnd
0
ENDSEC
0
SECTION
2
ENTITIES
0
LWPOLYLINE
5
100
100
AcDbEntity
8
0
100
AcDbPolyline
90
4
70
1
43
0.0
10
-383.0801355189123
20
116.34453365630158
42
-0.60448830020584143
10
-383.0801355189123
20
117.93831434369895
42
4.0567404226972537
10
-393.60243048108771
20
117.93831434369899
42
-0.60448830020594957
10
-393.60243048108771
20
116.34453365630149
42
4.0567404226975441
0
LWPOLYLINE
5
101
100
AcDbEntity
8
0
100
AcDbPolyline
90
4
70
1
43
0.0
10
-302.22710551891328
20
110.79194434369802
42
4.0567404226982227
10
-312.74940048108692
20
110.79194434369802
42
-0.60448830020610234
10
-312.74940048108721
20
109.19816365630082
42
4.0567404226976178
10
-302.22710551891288
20
109.19816365630081
42
-0.60448830020618893
0
LWPOLYLINE
5
102
100
AcDbEntity
8
0
100
AcDbPolyline
90
24
70
1
43
0.0
10
-288.14327574100611
20
165.17994254633544
42
0.32197255939288133
10
-289.19342637787486
20
165.19268473171709
10
-289.24509873729039
20
165.15650457404203
42
0.32197255939271663
10
-289.59232902321412
20
164.16533866868531
42
-1.3364267939951013
10
-311.31257697678581
20
164.16533866868531
42
0.32197255939273189
10
-311.65980726270971
20
165.15650457404203
10
-311.71147962212518
20
165.19268473171709
42
0.3219725593927566
10
-312.76163025899393
20
165.17994254633544
42
-1.9792103867990471
10
-312.76163025899382
20
183.40521345366452
42
0.32197255939265745
10
-311.71147962212501
20
183.39247126828269
10
-311.65980726270959
20
183.42865142595798
42
0.32197255939273228
10
-311.31257697678581
20
184.41981733131456
42
-0.71842120810709831
10
-293.73663025899378
20
196.72621345366451
42
0.32197255939272884
10
-292.68647962212503
20
196.71347126828269
10
-292.63480726270973
20
196.74965142595798
42
0.32197255939277153
10
-292.28757697678594
20
197.74081733131456
42
-6.1028076601759871
10
-288.14327574100622
20
191.82194254633541
42
0.32197255939279218
10
-289.19342637787514
20
191.83468473171718
10
-289.24509873729039
20
191.79850457404203
42
0.32197255939267655
10
-289.59232902321429
20
190.80733866868542
42
-0.14399201158784994
10
-289.59232902321435
20
184.41981733131456
42
0.32197255939276742
10
-289.24509873729039
20
183.42865142595798
10
-289.19342637787497
20
183.39247126828269
42
0.32197255939272884
10
-288.14327574100622
20
183.40521345366452
42
-1.9792103867990449
0
LWPOLYLINE
5
103
100
AcDbEntity
8
0
100
AcDbPolyline
90
8
70
1
43
0.0
10
-427.19999999999999
20
254.80000000000004
42
-0.41421356237310752
10
-422.19999999999993
20
259.7999999999999
10
-35.000000000000071
20
259.80000000000007
42
-0.41421356237309892
10
-29.999999999999993
20
254.80000000000004
10
-29.999999999999996
20
66.200000000000017
42
-0.41421356237309581
10
-35
20
61.20000000000001
10
-422.19999999999993
20
61.199999999999989
42
-0.41421356237309193
10
-427.19999999999999
20
66.200000000000017
0
LWPOLYLINE
5
104
100
AcDbEntity
8
0
100
AcDbPolyline
90
4
70
1
43
0.0
10
-339.02959948108816
20
97.210704656301232
42
4.0567404226970787
10
-328.50730451891201
20
97.210704656301317
42
-0.60448830020573296
10
-328.50730451891189
20
98.8044853436989
42
4.0567404226969783
10
-339.02959948108838
20
98.804485343698914
42
-0.60448830020561983
0
CIRCLE
5
105
100
AcDbEntity
8
0
100
AcDbCircle
10
-94.294945000000013
20
112.388868
30
0
40
11.31999999999999
210
0
220
0
230
1
0
CIRCLE
5
106
100
AcDbEntity
8
0
100
AcDbCircle
10
-149.09999999999999
20
120.9675
30
0
40
11.31999999999999
210
0
220
0
230
1
0
LWPOLYLINE
5
107
100
AcDbEntity
8
0
100
AcDbPolyline
90
4
70
1
43
0.0
10
-367.37831648108846
20
102.03187834369879
42
-0.60448830020547784
10
-367.37831648108846
20
100.43809765630101
42
4.0567404226967572
10
-356.85602151891152
20
100.43809765630103
42
-0.60448830020547462
10
-356.85602151891152
20
102.03187834369879
42
4.0567404226968424
0
CIRCLE
5
108
100
AcDbEntity
8
0
100
AcDbCircle
10
-69.428481000000005
20
128.668351
30
0
40
11.320000000000011
210
0
220
0
230
1
0
LWPOLYLINE
5
109
100
AcDbEntity
8
0
100
AcDbPolyline
90
8
70
1
43
0.0
10
-163.66057637787503
20
197.2211562682827
10
-163.71224873729031
20
197.25733642595799
42
-0.32197255939274749
10
-164.05947902321415
20
198.24850233131454
42
6.1028076601759107
10
-168.20378025899387
20
192.32962754633544
42
-0.321972559392814
10
-167.1536296221251
20
192.34236973171733
10
-167.10195726270973
20
192.30618957404204
42
-0.3219725593927632
10
-166.75472697678583
20
191.31502366868531
42
6.1028076601759444
10
-162.61042574100617
20
197.23389845366455
42
-0.32197255939268926
0
LWPOLYLINE
5
110
100
AcDbEntity
8
0
100
AcDbPolyline
90
16
70
1
43
0.0
10
-292.28757697678583
20
177.48633866868531
42
0.14399201158785538
10
-292.28757697678583
20
171.09881733131459
42
-0.32197255939268377
10
-292.63480726270973
20
170.1076514259579
10
-292.68647962212503
20
170.07147126828272
42
-0.32197255939269709
10
-293.73663025899378
20
170.0842134536646
42
0.32868118046914652
10
-307.16827574100631
20
170.0842134536646
42
-0.3219725593927632
10
-308.21842637787512
20
170.07147126828269
10
-308.27009873729037
20
170.1076514259579
42
-0.32197255939278346
10
-308.61732902321421
20
171.09881733131459
42
0.14399201158784994
10
-308.6173290232141
20
177.48633866868531
42
-0.32197255939268055
10
-308.27009873729037
20
178.477504574042
10
-308.21842637787501
20
178.51368473171718
42
-0.32197255939272995
10
-307.16827574100614
20
178.50094254633547
42
0.32868118046914868
10
-293.73663025899378
20
178.50094254633549
42
-0.32197255939281788
10
-292.68647962212503
20
178.51368473171718
10
-292.63480726270973
20
178.477504574042
42
-0.32197255939281638
0
CIRCLE
5
111
100
AcDbEntity
8
0
100
AcDbCircle
10
-413.19999999999993
20
160.49999999999994
30
0
40
4.25
210
0
220
0
230
1
0
CIRCLE
5
112
100
AcDbEntity
8
0
100
AcDbCircle
10
-294.80000000000013
20
68.700000000000017
30
0
40
4.25
210
0
220
0
230
1
0
CIRCLE
5
113
100
AcDbEntity
8
0
100
AcDbCircle
10
-122.91821300000001
20
109.19802800000001
30
0
40
11.32
210
0
220
0
230
1
0
CIRCLE
5
114
100
AcDbEntity
8
0
100
AcDbCircle
10
-43.999999999999993
20
245.80000000000001
30
0
40
4.25
210
0
220
0
230
1
0
CIRCLE
5
115
100
AcDbEntity
8
0
100
AcDbCircle
10
-162.40000000000003
20
68.700000000000017
30
0
40
4.25
210
0
220
0
230
1
0
CIRCLE
5
116
100
AcDbEntity
8
0
100
AcDbCircle
10
-413.19999999999993
20
75.200000000000017
30
0
40
4.25
210
0
220
0
230
1
0
CIRCLE
5
117
100
AcDbEntity
8
0
100
AcDbCircle
10
-413.19999999999993
20
245.80000000000001
30
0
40
4.25
210
0
220
0
230
1
0
CIRCLE
5
118
100
AcDbEntity
8
0
100
AcDbCircle
10
-43.999999999999993
20
160.5
30
0
40
4.25
210
0
220
0
230
1
0
CIRCLE
5
119
100
AcDbEntity
8
0
100
AcDbCircle
10
-294.80000000000013
20
252.30000000000004
30
0
40
4.25
210
0
220
0
230
1
0
CIRCLE
5
120
100
AcDbEntity
8
0
100
AcDbCircle
10
-162.40000000000003
20
252.30000000000004
30
0
40
4.25
210
0
220
0
230
1
0
CIRCLE
5
121
100
AcDbEntity
8
0
100
AcDbCircle
10
-43.999999999999979
20
75.200000000000017
30
0
40
4.25
210
0
220
0
230
1
0
CIRCLE
5
122
100
AcDbEntity
8
0
100
AcDbCircle
10
-228.59999999999999
20
126.20625000000001
30
0
40
11.31999999999999
210
0
220
0
230
1
0
ENDSEC
0
SECTION
2
OBJECTS
0
DICTIONARY
5
C
100
AcDbDictionary
3
ACAD_GROUP
350
D
3
ACAD_MLINESTYLE
350
17
0
DICTIONARY
5
D
100
AcDbDictionary
0
DICTIONARY
5
1A
330
C
100
AcDbDictionary
0
DICTIONARY
5
17
100
AcDbDictionary
0
ENDSEC
0
EOF
