0
SECTION
2
HEADER
9
$INSUNITS
70
4
9
$ACADVER
1
AC1014
9
$HANDSEED
5
FFFF
0
ENDSEC
0
SECTION
2
TABLES
0
TABLE
2
VPORT
5
8
100
AcDbSymbolTable
0
ENDTAB
0
TABLE
2
LTYPE
5
5
100
AcDbSymbolTable
0
LTYPE
5
14
100
AcDbSymbolTableRecord
100
AcDbLinetypeTableRecord
2
BYBLOCK
70
0
0
LTYPE
5
15
100
AcDbSymbolTableRecord
100
AcDbLinetypeTableRecord
2
BYLAYER
70
0
0
ENDTAB
0
TABLE
2
LAYER
5
2
100
AcDbSymbolTable
70
2
0
LAYER
5
50
100
AcDbSymbolTableRecord
100
AcDbLayerTableRecord
2
0
70
0
6
CONTINUOUS
0
ENDTAB
0
TABLE
2
STYLE
5
3
100
AcDbSymbolTable
70
1
0
STYLE
5
11
100
AcDbSymbolTableRecord
100
AcDbTextStyleTableRecord
2
STANDARD
70
0
0
ENDTAB
0
TABLE
2
VIEW
5
6
100
AcDbSymbolTable
70
0
0
ENDTAB
0
TABLE
2
UCS
5
7
100
AcDbSymbolTable
70
0
0
ENDTAB
0
TABLE
2
APPID
5
9
100
AcDbSymbolTable
70
2
0
APPID
5
12
100
AcDbSymbolTableRecord
100
AcDbRegAppTableRecord
2
ACAD
70
0
0
ENDTAB
0
TABLE
2
DIMSTYLE
5
A
100
AcDbSymbolTable
70
1
0
ENDTAB
0
TABLE
2
BLOCK_RECORD
5
1
100
AcDbSymbolTable
70
1
0
BLOCK_RECORD
5
1F
100
AcDbSymbolTableRecord
100
AcDbBlockTableRecord
2
*MODEL_SPACE
0
BLOCK_RECORD
5
1B
100
AcDbSymbolTableRecord
100
AcDbBlockTableRecord
2
*PAPER_SPACE
0
ENDTAB
0
ENDSEC
0
SECTION
2
BLOCKS
0
BLOCK
5
20
100
AcDbEntity
100
AcDbBlockBegin
2
*MODEL_SPACE
0
ENDBLK
5
21
100
AcDbEntity
100
AcDbBlockEnd
0
BLOCK
5
1C
100
AcDbEntity
100
AcDbBlockBegin
2
*PAPER_SPACE
0
ENDBLK
5
1D
100
AcDbEntity
100
AcDbBlockEnd
0
ENDSEC
0
SECTION
2
ENTITIES
0
LWPOLYLINE
5
100
100
AcDbEntity
8
0
100
AcDbPolyline
90
4
70
1
43
0.0
10
-339.02959948108838
20
98.804485343698914
42
-0.60448830020557531
10
-339.02959948108816
20
97.210704656301232
42
4.0567404226970831
10
-328.50730451891201
20
97.210704656301317
42
-0.60448830020573607
10
-328.50730451891189
20
98.8044853436989
42
4.0567404226969668
0
CIRCLE
5
101
100
AcDbEntity
8
0
100
AcDbCircle
10
-48
20
160.5
30
0
40
4.25
210
0
220
0
230
1
0
LWPOLYLINE
5
102
100
AcDbEntity
8
0
100
AcDbPolyline
90
24
70
1
43
0.0
10
-311.31257697678581
20
184.41981733131453
42
-0.71842120810710064
10
-293.73663025899378
20
196.72621345366451
42
0.32197255939273306
10
-292.68647962212503
20
196.71347126828269
10
-292.63480726270973
20
196.74965142595798
42
0.32197255939270869
10
-292.28757697678594
20
197.74081733131453
42
-6.102807660176004
10
-288.14327574100622
20
191.82194254633541
42
0.32197255939278435
10
-289.1934263778752
20
191.83468473171718
10
-289.24509873729039
20
191.79850457404203
42
0.3219725593926499
10
-289.59232902321435
20
190.80733866868545
42
-0.14399201158784669
10
-289.5923290232144
20
184.41981733131453
42
0.32197255939273767
10
-289.24509873729045
20
183.42865142595798
10
-289.19342637787497
20
183.39247126828269
42
0.32197255939266517
10
-288.14327574100622
20
183.40521345366452
42
-1.9792103867990352
10
-288.14327574100605
20
165.17994254633547
42
0.32197255939289265
10
-289.19342637787486
20
165.19268473171709
10
-289.24509873729039
20
165.15650457404203
42
0.32197255939269409
10
-289.59232902321406
20
164.16533866868531
42
-1.3364267939951002
10
-311.31257697678581
20
164.16533866868531
42
0.32197255939273811
10
-311.65980726270971
20
165.15650457404206
10
-311.71147962212518
20
165.19268473171709
42
0.32197255939276059
10
-312.76163025899393
20
165.17994254633547
42
-1.9792103867990416
10
-312.76163025899382
20
183.40521345366452
42
0.32197255939265823
10
-311.71147962212495
20
183.39247126828266
10
-311.65980726270959
20
183.42865142595798
42
0.32197255939272496
0
LWPOLYLINE
5
103
100
AcDbEntity
8
0
100
AcDbPolyline
90
4
70
1
43
0.0
10
-383.0801355189123
20
117.93831434369898
42
4.0567404226972847
10
-393.60243048108765
20
117.93831434369898
42
-0.6044883002058874
10
-393.60243048108771
20
116.34453365630149
42
4.0567404226975325
10
-383.0801355189123
20
116.34453365630158
42
-0.60448830020583844
0
LWPOLYLINE
5
104
100
AcDbEntity
8
0
100
AcDbPolyline
90
8
70
1
43
0.0
10
-417.19999999999999
20
246.80000000000004
42
-0.41421356237311169
10
-412.19999999999999
20
251.7999999999999
10
-45.000000000000071
20
251.80000000000007
42
-0.41421356237309814
10
-40
20
246.80000000000004
10
-40
20
66.200000000000017
42
-0.41421356237309764
10
-45
20
61.20000000000001
10
-412.19999999999999
20
61.199999999999989
42
-0.4142135623730846
10
-417.20000000000005
20
66.200000000000017
0
LWPOLYLINE
5
105
100
AcDbEntity
8
0
100
AcDbPolyline
90
8
70
1
43
0.0
10
-168.20378025899387
20
192.32962754633547
42
-0.32197255939283304
10
-167.1536296221251
20
192.34236973171733
10
-167.1019572627097
20
192.30618957404204
42
-0.32197255939271252
10
-166.75472697678586
20
191.31502366868528
42
6.1028076601759702
10
-162.61042574100622
20
197.23389845366455
42
-0.32197255939268926
10
-163.66057637787503
20
197.2211562682827
10
-163.71224873729031
20
197.25733642595799
42
-0.32197255939277297
10
-164.05947902321415
20
198.24850233131457
42
6.1028076601758849
0
CIRCLE
5
106
100
AcDbEntity
8
0
100
AcDbCircle
10
-162.40000000000006
20
68.700000000000017
30
0
40
4.25
210
0
220
0
230
1
0
LWPOLYLINE
5
107
100
AcDbEntity
8
0
100
AcDbPolyline
90
4
70
1
43
0.0
10
-367.37831648108846
20
102.03187834369879
42
-0.60448830020547462
10
-367.37831648108846
20
100.43809765630101
42
4.0567404226967723
10
-356.85602151891158
20
100.43809765630107
42
-0.60448830020545397
10
-356.85602151891152
20
102.03187834369879
42
4.0567404226968389
0
CIRCLE
5
108
100
AcDbEntity
8
0
100
AcDbCircle
10
-294.80000000000013
20
68.700000000000017
30
0
40
4.25
210
0
220
0
230
1
0
LWPOLYLINE
5
109
100
AcDbEntity
8
0
100
AcDbPolyline
90
4
70
1
43
0.0
10
-312.74940048108692
20
110.79194434369803
42
-0.60448830020610234
10
-312.74940048108721
20
109.19816365630082
42
4.0567404226976178
10
-302.22710551891288
20
109.19816365630081
42
-0.60448830020618327
10
-302.22710551891328
20
110.79194434369803
42
4.0567404226982227
0
CIRCLE
5
110
100
AcDbEntity
8
0
100
AcDbCircle
10
-409.19999999999993
20
160.49999999999994
30
0
40
4.25
210
0
220
0
230
1
0
CIRCLE
5
111
100
AcDbEntity
8
0
100
AcDbCircle
10
-94.294945000000013
20
112.388868
30
0
40
11.31999999999999
210
0
220
0
230
1
0
CIRCLE
5
112
100
AcDbEntity
8
0
100
AcDbCircle
10
-294.80000000000013
20
242.80000000000004
30
0
40
4.25
210
0
220
0
230
1
0
CIRCLE
5
113
100
AcDbEntity
8
0
100
AcDbCircle
10
-69.428481000000005
20
128.668351
30
0
40
11.320000000000013
210
0
220
0
230
1
0
CIRCLE
5
114
100
AcDbEntity
8
0
100
AcDbCircle
10
-47.999999999999979
20
75.200000000000017
30
0
40
4.25
210
0
220
0
230
1
0
CIRCLE
5
115
100
AcDbEntity
8
0
100
AcDbCircle
10
-122.91821300000001
20
109.19802799999999
30
0
40
11.32
210
0
220
0
230
1
0
CIRCLE
5
116
100
AcDbEntity
8
0
100
AcDbCircle
10
-48
20
236.30000000000001
30
0
40
4.25
210
0
220
0
230
1
0
CIRCLE
5
117
100
AcDbEntity
8
0
100
AcDbCircle
10
-149.09999999999999
20
120.9675
30
0
40
11.31999999999999
210
0
220
0
230
1
0
CIRCLE
5
118
100
AcDbEntity
8
0
100
AcDbCircle
10
-409.19999999999993
20
236.30000000000001
30
0
40
4.25
210
0
220
0
230
1
0
CIRCLE
5
119
100
AcDbEntity
8
0
100
AcDbCircle
10
-409.19999999999993
20
75.200000000000017
30
0
40
4.25
210
0
220
0
230
1
0
CIRCLE
5
120
100
AcDbEntity
8
0
100
AcDbCircle
10
-162.40000000000006
20
242.80000000000004
30
0
40
4.25
210
0
220
0
230
1
0
CIRCLE
5
121
100
AcDbEntity
8
0
100
AcDbCircle
10
-228.59999999999999
20
126.20625000000001
30
0
40
11.31999999999999
210
0
220
0
230
1
0
CIRCLE
5
122
100
AcDbEntity
8
0
100
AcDbCircle
10
-292.59999345988035
20
226.69999493286014
30
0
40
3.0000000000000071
210
0
220
0
230
1
0
CIRCLE
5
123
100
AcDbEntity
8
0
100
AcDbCircle
10
-394.19999345988037
20
226.69999493286014
30
0
40
3.0000000000000071
210
0
220
0
230
1
0
CIRCLE
5
124
100
AcDbEntity
8
0
100
AcDbCircle
10
-164.5999934598803
20
226.69999493286014
30
0
40
3.0000000000000071
210
0
220
0
230
1
0
CIRCLE
5
125
100
AcDbEntity
8
0
100
AcDbCircle
10
-62.999993459880308
20
226.69999493286014
30
0
40
3.0000000000000071
210
0
220
0
230
1
0
CIRCLE
5
126
100
AcDbEntity
8
0
100
AcDbCircle
10
-292.59999345988035
20
81.199994932860108
30
0
40
3.0000000000000071
210
0
220
0
230
1
0
CIRCLE
5
127
100
AcDbEntity
8
0
100
AcDbCircle
10
-164.5999934598803
20
81.199994932860108
30
0
40
3.0000000000000071
210
0
220
0
230
1
0
CIRCLE
5
128
100
AcDbEntity
8
0
100
AcDbCircle
10
-394.19999345988037
20
81.199994932860108
30
0
40
3.0000000000000071
210
0
220
0
230
1
0
CIRCLE
5
129
100
AcDbEntity
8
0
100
AcDbCircle
10
-62.999993459880351
20
81.199994932860136
30
0
40
3.0000000000000071
210
0
220
0
230
1
0
CIRCLE
5
130
100
AcDbEntity
8
0
100
AcDbCircle
10
-343.39999232441187
20
153.94999655894935
30
0
40
2.9999999999999716
210
0
220
0
230
1
0
CIRCLE
5
131
100
AcDbEntity
8
0
100
AcDbCircle
10
-266.70001266757026
20
128.74625611511874
30
0
40
2.9999999999999827
210
0
220
0
230
1
0
CIRCLE
5
132
100
AcDbEntity
8
0
100
AcDbCircle
10
-190.50000904826447
20
128.74625611511874
30
0
40
2.9999999999999871
210
0
220
0
230
1
0
CIRCLE
5
133
100
AcDbEntity
8
0
100
AcDbCircle
10
-113.80000540520996
20
153.95000731223263
30
0
40
3.0000000000000071
210
0
220
0
230
1
0
CIRCLE
5
134
100
AcDbEntity
8
0
100
AcDbCircle
10
-228.59999489039183
20
196.19999561458826
30
0
40
3.0000000000000071
210
0
220
0
230
1
0
ENDSEC
0
SECTION
2
OBJECTS
0
DICTIONARY
5
C
100
AcDbDictionary
3
ACAD_GROUP
350
D
3
ACAD_MLINESTYLE
350
17
0
DICTIONARY
5
D
100
AcDbDictionary
0
DICTIONARY
5
1A
330
C
100
AcDbDictionary
0
DICTIONARY
5
17
100
AcDbDictionary
0
ENDSEC
0
EOF
