0
SECTION
2
HEADER
9
$INSUNITS
70
4
9
$ACADVER
1
AC1014
9
$HANDSEED
5
FFFF
0
ENDSEC
0
SECTION
2
TABLES
0
TABLE
2
VPORT
5
8
100
AcDbSymbolTable
0
ENDTAB
0
TABLE
2
LTYPE
5
5
100
AcDbSymbolTable
0
LTYPE
5
14
100
AcDbSymbolTableRecord
100
AcDbLinetypeTableRecord
2
BYBLOCK
70
0
0
LTYPE
5
15
100
AcDbSymbolTableRecord
100
AcDbLinetypeTableRecord
2
BYLAYER
70
0
0
ENDTAB
0
TABLE
2
LAYER
5
2
100
AcDbSymbolTable
70
2
0
LAYER
5
50
100
AcDbSymbolTableRecord
100
AcDbLayerTableRecord
2
0
70
0
6
CONTINUOUS
0
ENDTAB
0
TABLE
2
STYLE
5
3
100
AcDbSymbolTable
70
1
0
STYLE
5
11
100
AcDbSymbolTableRecord
100
AcDbTextStyleTableRecord
2
STANDARD
70
0
0
ENDTAB
0
TABLE
2
VIEW
5
6
100
AcDbSymbolTable
70
0
0
ENDTAB
0
TABLE
2
UCS
5
7
100
AcDbSymbolTable
70
0
0
ENDTAB
0
TABLE
2
APPID
5
9
100
AcDbSymbolTable
70
2
0
APPID
5
12
100
AcDbSymbolTableRecord
100
AcDbRegAppTableRecord
2
ACAD
70
0
0
ENDTAB
0
TABLE
2
DIMSTYLE
5
A
100
AcDbSymbolTable
70
1
0
ENDTAB
0
TABLE
2
BLOCK_RECORD
5
1
100
AcDbSymbolTable
70
1
0
BLOCK_RECORD
5
1F
100
AcDbSymbolTableRecord
100
AcDbBlockTableRecord
2
*MODEL_SPACE
0
BLOCK_RECORD
5
1B
100
AcDbSymbolTableRecord
100
AcDbBlockTableRecord
2
*PAPER_SPACE
0
ENDTAB
0
ENDSEC
0
SECTION
2
BLOCKS
0
BLOCK
5
20
100
AcDbEntity
100
AcDbBlockBegin
2
*MODEL_SPACE
0
ENDBLK
5
21
100
AcDbEntity
100
AcDbBlockEnd
0
BLOCK
5
1C
100
AcDbEntity
100
AcDbBlockBegin
2
*PAPER_SPACE
0
ENDBLK
5
1D
100
AcDbEntity
100
AcDbBlockEnd
0
ENDSEC
0
SECTION
2
ENTITIES
0
LWPOLYLINE
5
100
100
AcDbEntity
8
0
100
AcDbPolyline
90
4
70
1
43
0.0
10
-274.42745300000001
20
167.29257799999999
10
-288.42745299999996
20
167.29257799999999
10
-288.42745299999996
20
181.29257800000002
10
-274.42745300000001
20
181.29257800000002
0
LWPOLYLINE
5
101
100
AcDbEntity
8
0
100
AcDbPolyline
90
4
70
1
43
0.0
10
-300.48825299999999
20
106.175054
10
-300.48825299999999
20
92.175054000000003
10
-314.48825299999999
20
92.175054000000003
10
-314.48825299999999
20
106.175054
0
LWPOLYLINE
5
102
100
AcDbEntity
8
0
100
AcDbPolyline
90
4
70
1
43
0.0
10
-326.76845200000002
20
80.187595000000016
10
-340.76845200000014
20
80.187595000000016
10
-340.76845200000014
20
94.187595000000002
10
-326.76845200000002
20
94.187595000000002
0
LWPOLYLINE
5
103
100
AcDbEntity
8
0
100
AcDbPolyline
90
4
70
1
43
0.0
10
-312.47745300000014
20
167.29257799999999
10
-326.4774530000002
20
167.29257799999999
10
-326.4774530000002
20
181.29257800000002
10
-312.47745300000014
20
181.29257800000002
0
LWPOLYLINE
5
104
100
AcDbEntity
8
0
100
AcDbPolyline
90
4
70
1
43
0.0
10
-314.48825299999999
20
113.81505400000002
10
-314.48825299999999
20
127.815054
10
-300.48825299999999
20
127.815054
10
-300.48825299999999
20
113.81505400000002
0
LWPOLYLINE
5
105
100
AcDbEntity
8
0
100
AcDbPolyline
90
4
70
1
43
0.0
10
-293.45245299999999
20
180.61357799999999
10
-307.45245299999999
20
180.61357799999999
10
-307.45245299999999
20
194.61357800000002
10
-293.45245299999999
20
194.61357800000002
0
CIRCLE
5
106
100
AcDbEntity
8
0
100
AcDbCircle
10
-63.000000000000007
20
226.70000000000002
30
0
40
1.6000000000000003
210
0
220
0
230
1
0
CIRCLE
5
107
100
AcDbEntity
8
0
100
AcDbCircle
10
-164.60000000000002
20
226.70000000000002
30
0
40
1.6000000000000003
210
0
220
0
230
1
0
LWPOLYLINE
5
108
100
AcDbEntity
8
0
100
AcDbPolyline
90
4
70
1
43
0.0
10
-235.60000000000002
20
119.20625000000001
10
-235.60000000000002
20
133.20625000000001
10
-221.59999999999999
20
133.20625000000001
10
-221.59999999999999
20
119.20625000000001
0
CIRCLE
5
109
100
AcDbEntity
8
0
100
AcDbCircle
10
-294.80000000000007
20
242.80000000000004
30
0
40
4.25
210
0
220
0
230
1
0
LWPOLYLINE
5
110
100
AcDbEntity
8
0
100
AcDbPolyline
90
4
70
1
43
0.0
10
-381.34128300000009
20
134.96142399999999
10
-381.34128300000009
20
120.96142399999999
10
-395.3412830000002
20
120.96142399999999
10
-395.3412830000002
20
134.96142399999999
0
CIRCLE
5
111
100
AcDbEntity
8
0
100
AcDbCircle
10
-47.999999999999979
20
75.200000000000017
30
0
40
4.25
210
0
220
0
230
1
0
CIRCLE
5
112
100
AcDbEntity
8
0
100
AcDbCircle
10
-292.60000000000002
20
226.70000000000002
30
0
40
1.6000000000000003
210
0
220
0
230
1
0
CIRCLE
5
113
100
AcDbEntity
8
0
100
AcDbCircle
10
-162.40000000000003
20
242.80000000000004
30
0
40
4.25
210
0
220
0
230
1
0
LWPOLYLINE
5
114
100
AcDbEntity
8
0
100
AcDbPolyline
90
4
70
1
43
0.0
10
-369.11716899999999
20
83.41498799999998
10
-369.11716899999999
20
97.414988000000008
10
-355.11716900000005
20
97.414988000000008
10
-355.11716900000005
20
83.41498799999998
0
CIRCLE
5
115
100
AcDbEntity
8
0
100
AcDbCircle
10
-394.20000000000016
20
226.70000000000002
30
0
40
1.6000000000000003
210
0
220
0
230
1
0
CIRCLE
5
116
100
AcDbEntity
8
0
100
AcDbCircle
10
-409.19999999999993
20
75.200000000000017
30
0
40
4.25
210
0
220
0
230
1
0
CIRCLE
5
117
100
AcDbEntity
8
0
100
AcDbCircle
10
-190.5
20
128.74625000000003
30
0
40
1.6000000000000003
210
0
220
0
230
1
0
CIRCLE
5
118
100
AcDbEntity
8
0
100
AcDbCircle
10
-294.80000000000013
20
68.700000000000017
30
0
40
4.25
210
0
220
0
230
1
0
CIRCLE
5
119
100
AcDbEntity
8
0
100
AcDbCircle
10
-164.60000000000002
20
81.200000000000031
30
0
40
1.6000000000000003
210
0
220
0
230
1
0
CIRCLE
5
120
100
AcDbEntity
8
0
100
AcDbCircle
10
-266.7000000000001
20
128.74625000000003
30
0
40
1.6000000000000003
210
0
220
0
230
1
0
CIRCLE
5
121
100
AcDbEntity
8
0
100
AcDbCircle
10
-409.19999999999993
20
236.30000000000001
30
0
40
4.25
210
0
220
0
230
1
0
CIRCLE
5
122
100
AcDbEntity
8
0
100
AcDbCircle
10
-394.20000000000016
20
81.200000000000031
30
0
40
1.6000000000000003
210
0
220
0
230
1
0
CIRCLE
5
123
100
AcDbEntity
8
0
100
AcDbCircle
10
-63.000000000000007
20
81.200000000000031
30
0
40
1.6000000000000003
210
0
220
0
230
1
0
LWPOLYLINE
5
124
100
AcDbEntity
8
0
100
AcDbPolyline
90
4
70
1
43
0.0
10
-340.76845200000014
20
101.82759500000002
10
-340.76845200000014
20
115.82759500000002
10
-326.76845200000002
20
115.82759500000002
10
-326.76845200000002
20
101.82759500000002
0
LWPOLYLINE
5
125
100
AcDbEntity
8
0
100
AcDbPolyline
90
4
70
1
43
0.0
10
-355.11716900000005
20
119.05498800000001
10
-355.11716900000005
20
105.05498799999999
10
-369.11716899999999
20
105.05498799999999
10
-369.11716899999999
20
119.05498800000001
0
LWPOLYLINE
5
126
100
AcDbEntity
8
0
100
AcDbPolyline
90
4
70
1
43
0.0
10
-381.34128300000009
20
113.32142400000001
10
-381.34128300000009
20
99.321424000000007
10
-395.3412830000002
20
99.321424000000007
10
-395.3412830000002
20
113.32142400000001
0
CIRCLE
5
127
100
AcDbEntity
8
0
100
AcDbCircle
10
-292.60000000000002
20
81.200000000000031
30
0
40
1.6000000000000003
210
0
220
0
230
1
0
CIRCLE
5
128
100
AcDbEntity
8
0
100
AcDbCircle
10
-228.59999999999999
20
196.20000000000002
30
0
40
1.6000000000000003
210
0
220
0
230
1
0
CIRCLE
5
129
100
AcDbEntity
8
0
100
AcDbCircle
10
-343.39999999999998
20
153.94999999999999
30
0
40
1.6000000000000003
210
0
220
0
230
1
0
CIRCLE
5
130
100
AcDbEntity
8
0
100
AcDbCircle
10
-409.19999999999993
20
160.49999999999994
30
0
40
4.25
210
0
220
0
230
1
0
CIRCLE
5
131
100
AcDbEntity
8
0
100
AcDbCircle
10
-113.80000000000001
20
153.94999999999999
30
0
40
1.6000000000000003
210
0
220
0
230
1
0
CIRCLE
5
132
100
AcDbEntity
8
0
100
AcDbCircle
10
-48
20
236.30000000000001
30
0
40
4.25
210
0
220
0
230
1
0
CIRCLE
5
133
100
AcDbEntity
8
0
100
AcDbCircle
10
-162.40000000000003
20
68.700000000000017
30
0
40
4.25
210
0
220
0
230
1
0
LWPOLYLINE
5
134
100
AcDbEntity
8
0
100
AcDbPolyline
90
22
70
1
43
0.0
10
-412.19999999999993
20
251.7999999999999
42
0.41421356237310752
10
-417.19999999999999
20
246.80000000000004
10
-417.19999999999999
20
66.200000000000017
42
0.41421356237309087
10
-412.19999999999993
20
61.20000000000001
10
-246.39999999999992
20
61.20000000000001
42
0.41421356237309503
10
-243.59999999999991
20
64
10
-243.59999999999991
20
64.200000000000003
10
-248.69999999999993
20
64.200000000000003
10
-248.69999999999993
20
65.900000000000006
10
-243.59999999999991
20
65.900000000000006
10
-243.59999999999991
20
83.200000000000003
10
-213.59999999999999
20
83.200000000000003
10
-213.59999999999999
20
65.900000000000006
10
-208.49999999999997
20
65.900000000000006
10
-208.49999999999997
20
64.200000000000003
10
-213.59999999999999
20
64.200000000000003
10
-213.59999999999999
20
64
42
0.41421356237309503
10
-210.79999999999998
20
61.20000000000001
10
-45.000000000000014
20
61.20000000000001
42
0.41421356237309609
10
-40
20
66.200000000000017
10
-39.999999999999993
20
246.80000000000004
42
0.4142135623730987
10
-45.000000000000071
20
251.80000000000004
0
CIRCLE
5
135
100
AcDbEntity
8
0
100
AcDbCircle
10
-48
20
160.5
30
0
40
4.25
210
0
220
0
230
1
0
LWPOLYLINE
5
136
100
AcDbEntity
8
0
100
AcDbPolyline
90
4
70
1
43
0.0
10
-288.42745299999996
20
207.93457800000002
10
-274.42745300000001
20
207.93457800000002
10
-274.42745300000001
20
193.93457800000004
10
-288.42745299999996
20
193.93457800000004
0
LWPOLYLINE
5
137
100
AcDbEntity
8
0
100
AcDbPolyline
90
4
70
1
43
0.0
10
-156.09999999999999
20
113.9675
10
-156.09999999999999
20
127.96750000000002
10
-142.10000000000002
20
127.96750000000002
10
-142.10000000000002
20
113.9675
0
LWPOLYLINE
5
138
100
AcDbEntity
8
0
100
AcDbPolyline
90
4
70
1
43
0.0
10
-181.91960300000002
20
208.44226300000003
10
-167.919603
20
208.44226300000003
10
-167.919603
20
194.442263
10
-181.91960300000002
20
194.442263
0
LWPOLYLINE
5
139
100
AcDbEntity
8
0
100
AcDbPolyline
90
4
70
1
43
0.0
10
-162.89460299999999
20
181.121263
10
-162.89460299999999
20
195.12126300000003
10
-148.89460299999999
20
195.12126300000003
10
-148.89460299999999
20
181.121263
0
LWPOLYLINE
5
140
100
AcDbEntity
8
0
100
AcDbPolyline
90
4
70
1
43
0.0
10
-62.428481000000019
20
135.668351
10
-62.428481000000019
20
121.668351
10
-76.428481000000019
20
121.668351
10
-76.428481000000019
20
135.668351
0
LWPOLYLINE
5
141
100
AcDbEntity
8
0
100
AcDbPolyline
90
4
70
1
43
0.0
10
-115.91821299999999
20
102.19802800000002
10
-129.91821299999998
20
102.19802800000002
10
-129.91821299999998
20
116.19802800000002
10
-115.91821299999999
20
116.19802800000002
0
LWPOLYLINE
5
142
100
AcDbEntity
8
0
100
AcDbPolyline
90
4
70
1
43
0.0
10
-87.294945000000013
20
105.388868
10
-101.294945
20
105.388868
10
-101.294945
20
119.38886799999999
10
-87.294945000000013
20
119.38886799999999
0
LWPOLYLINE
5
143
100
AcDbEntity
8
0
100
AcDbPolyline
90
4
70
1
43
0.0
10
-307.45245299999999
20
153.97157799999999
10
-307.45245299999999
20
167.97157800000002
10
-293.45245299999999
20
167.97157800000002
10
-293.45245299999999
20
153.97157799999999
0
LWPOLYLINE
5
144
100
AcDbEntity
8
0
100
AcDbPolyline
90
4
70
1
43
0.0
10
-220.49999507144094
20
196.99999559670687
10
-190.49999574199319
20
196.99999559670687
10
-190.49999574199319
20
136.99999693781137
10
-220.49999507144094
20
136.99999693781137
0
LWPOLYLINE
5
145
100
AcDbEntity
8
0
100
AcDbPolyline
90
6
70
1
43
0.0
10
-75
20
210
10
-75
20
225
10
-90
20
225
10
-90
20
220
10
-80
20
220
10
-80
20
210
0
LWPOLYLINE
5
146
100
AcDbEntity
8
0
100
AcDbPolyline
90
6
70
1
43
0.0
10
-75
20
207.5
10
-92.5
20
207.5
10
-92.5
20
225
10
-97.5
20
225
10
-97.5
20
202.5
10
-75
20
202.5
0
ENDSEC
0
SECTION
2
OBJECTS
0
DICTIONARY
5
C
100
AcDbDictionary
3
ACAD_GROUP
350
D
3
ACAD_MLINESTYLE
350
17
0
DICTIONARY
5
D
100
AcDbDictionary
0
DICTIONARY
5
1A
330
C
100
AcDbDictionary
0
DICTIONARY
5
17
100
AcDbDictionary
0
ENDSEC
0
EOF
