0
SECTION
2
HEADER
9
$INSUNITS
70
4
9
$ACADVER
1
AC1014
9
$HANDSEED
5
FFFF
0
ENDSEC
0
SECTION
2
TABLES
0
TABLE
2
VPORT
5
8
100
AcDbSymbolTable
0
ENDTAB
0
TABLE
2
LTYPE
5
5
100
AcDbSymbolTable
0
LTYPE
5
14
100
AcDbSymbolTableRecord
100
AcDbLinetypeTableRecord
2
BYBLOCK
70
0
0
LTYPE
5
15
100
AcDbSymbolTableRecord
100
AcDbLinetypeTableRecord
2
BYLAYER
70
0
0
ENDTAB
0
TABLE
2
LAYER
5
2
100
AcDbSymbolTable
70
2
0
LAYER
5
50
100
AcDbSymbolTableRecord
100
AcDbLayerTableRecord
2
0
70
0
6
CONTINUOUS
0
ENDTAB
0
TABLE
2
STYLE
5
3
100
AcDbSymbolTable
70
1
0
STYLE
5
11
100
AcDbSymbolTableRecord
100
AcDbTextStyleTableRecord
2
STANDARD
70
0
0
ENDTAB
0
TABLE
2
VIEW
5
6
100
AcDbSymbolTable
70
0
0
ENDTAB
0
TABLE
2
UCS
5
7
100
AcDbSymbolTable
70
0
0
ENDTAB
0
TABLE
2
APPID
5
9
100
AcDbSymbolTable
70
2
0
APPID
5
12
100
AcDbSymbolTableRecord
100
AcDbRegAppTableRecord
2
ACAD
70
0
0
ENDTAB
0
TABLE
2
DIMSTYLE
5
A
100
AcDbSymbolTable
70
1
0
ENDTAB
0
TABLE
2
BLOCK_RECORD
5
1
100
AcDbSymbolTable
70
1
0
BLOCK_RECORD
5
1F
100
AcDbSymbolTableRecord
100
AcDbBlockTableRecord
2
*MODEL_SPACE
0
BLOCK_RECORD
5
1B
100
AcDbSymbolTableRecord
100
AcDbBlockTableRecord
2
*PAPER_SPACE
0
ENDTAB
0
ENDSEC
0
SECTION
2
BLOCKS
0
BLOCK
5
20
100
AcDbEntity
100
AcDbBlockBegin
2
*MODEL_SPACE
0
ENDBLK
5
21
100
AcDbEntity
100
AcDbBlockEnd
0
BLOCK
5
1C
100
AcDbEntity
100
AcDbBlockBegin
2
*PAPER_SPACE
0
ENDBLK
5
1D
100
AcDbEntity
100
AcDbBlockEnd
0
ENDSEC
0
SECTION
2
ENTITIES
0
LWPOLYLINE
5
100
100
AcDbEntity
8
0
100
AcDbPolyline
90
44
70
1
43
0.0
10
-129.90000000000003
20
11.182729965664073
10
-129.90000000000003
20
12.500000000000009
42
-0.41421356237311585
10
-129.40000000000001
20
12.999999999999998
10
-30.999999999999943
20
12.999999999999989
42
0.41421356237309553
10
-25.999999999999943
20
18.000000000000007
10
-25.999999999999908
20
167.5
42
0.41421356237309293
10
-30.999999999999943
20
172.5
10
-366.2000000000001
20
172.50000000000003
42
0.4142135623730992
10
-371.20000000000005
20
167.50000000000003
10
-371.20000000000005
20
17.999999999999929
42
0.41421356237307683
10
-366.2000000000001
20
12.999999999999998
10
-267.80000000000007
20
13.000000000000007
42
-0.41421356237313145
10
-267.30000000000007
20
12.500000000000009
10
-267.30000000000013
20
11.182729965664038
42
-0.22551236680627326
10
-267.48421052631579
20
10.795074179804701
42
2.8109099885546658
10
-262.11578947368423
20
10.795074179804686
42
-0.22551236680620992
10
-262.30000000000007
20
11.182729965664038
10
-262.30000000000007
20
12.500000000000009
42
-0.41421356237315748
10
-261.80000000000001
20
12.999999999999998
10
-211.60000000000002
20
12.999999999999998
10
-211.60000000000002
20
4.7000000447034838
10
-216.70000000000005
20
4.7000000447034838
10
-216.70000000000005
20
3.0000000447034836
10
-211.60000000000002
20
3.0000000447034836
10
-211.60000000000002
20
9.7817006574907378e-17
10
-392.19999999999999
20
1.7763568394002505e-14
42
-0.41421356237310281
10
-397.19999999999999
20
5
10
-397.19999999999999
20
193.60000000000002
42
-0.41421356237308876
10
-392.19999999999999
20
198.59999999999997
10
-5.0000000000000711
20
198.60000000000002
42
-0.4142135623730992
10
0
20
193.60000000000002
10
8.8817841970012523e-15
20
5.0000000000000089
42
-0.41421356237309503
10
-5
20
0
10
-185.59999999999999
20
0
10
-185.59999999999999
20
3.0000000447034836
10
-180.49999999999997
20
3.0000000447034836
10
-180.49999999999997
20
4.7000000447034838
10
-185.59999999999999
20
4.7000000447034838
10
-185.59999999999999
20
12.999999999999998
10
-135.39999999999998
20
12.999999999999998
42
-0.4142135623730846
10
-134.90000000000006
20
12.500000000000009
10
-134.90000000000001
20
11.182729965664073
42
-0.22551236680634595
10
-135.08421052631579
20
10.795074179804667
42
2.8109099885546853
10
-129.71578947368425
20
10.79507417980469
42
-0.22551236680627268
0
CIRCLE
5
101
100
AcDbEntity
8
0
100
AcDbCircle
10
-383.19999999999999
20
99.299999999999955
30
0
40
4.25
210
0
220
0
230
1
0
CIRCLE
5
102
100
AcDbEntity
8
0
100
AcDbCircle
10
-383.19999999999999
20
14.000000000000012
30
0
40
4.25
210
0
220
0
230
1
0
CIRCLE
5
103
100
AcDbEntity
8
0
100
AcDbCircle
10
-13.999999999999986
20
99.299999999999997
30
0
40
4.25
210
0
220
0
230
1
0
CIRCLE
5
104
100
AcDbEntity
8
0
100
AcDbCircle
10
-132.40000000000006
20
191.09999999999997
30
0
40
4.25
210
0
220
0
230
1
0
CIRCLE
5
105
100
AcDbEntity
8
0
100
AcDbCircle
10
-13.999999999999986
20
184.59999999999997
30
0
40
4.25
210
0
220
0
230
1
0
CIRCLE
5
106
100
AcDbEntity
8
0
100
AcDbCircle
10
-383.19999999999999
20
184.60000000000002
30
0
40
4.25
210
0
220
0
230
1
0
CIRCLE
5
107
100
AcDbEntity
8
0
100
AcDbCircle
10
-13.999999999999986
20
14.000000000000012
30
0
40
4.25
210
0
220
0
230
1
0
CIRCLE
5
108
100
AcDbEntity
8
0
100
AcDbCircle
10
-264.80000000000007
20
191.09999999999997
30
0
40
4.25
210
0
220
0
230
1
0
ENDSEC
0
SECTION
2
OBJECTS
0
DICTIONARY
5
C
100
AcDbDictionary
3
ACAD_GROUP
350
D
3
ACAD_MLINESTYLE
350
17
0
DICTIONARY
5
D
100
AcDbDictionary
0
DICTIONARY
5
1A
330
C
100
AcDbDictionary
0
DICTIONARY
5
17
100
AcDbDictionary
0
ENDSEC
0
EOF
